SplineFontDB: 3.0
FontName: Jost-Bold
FullName: Jost* 700 Bold
FamilyName: Jost*
Weight: Bold
Copyright: Copyright (c) 2018, Owen Earl,,,
UComments: "2018-6-8: Created with FontForge (http://fontforge.org)"
Version: 003.300
ItalicAngle: 0
UnderlinePosition: -100
UnderlineWidth: 50
Ascent: 800
Descent: 200
InvalidEm: 0
LayerCount: 2
Layer: 0 0 "Back" 1
Layer: 1 0 "Fore" 0
XUID: [1021 69 1495626776 12280187]
FSType: 0
OS2Version: 0
OS2_WeightWidthSlopeOnly: 0
OS2_UseTypoMetrics: 0
CreationTime: 1528476916
ModificationTime: 1536011209
PfmFamily: 17
TTFWeight: 700
TTFWidth: 5
LineGap: 100
VLineGap: 0
OS2TypoAscent: 825
OS2TypoAOffset: 0
OS2TypoDescent: -225
OS2TypoDOffset: 0
OS2TypoLinegap: 100
OS2WinAscent: 900
OS2WinAOffset: 0
OS2WinDescent: 300
OS2WinDOffset: 0
HheadAscent: 1030
HheadAOffset: 0
HheadDescent: -350
HheadDOffset: 0
OS2CapHeight: 700
OS2XHeight: 460
OS2Vendor: 'PfEd'
Lookup: 1 0 0 "Tabular Numbers lookup" { "Tabular Numbers lookup"  } ['tnum' ('DFLT' <'dflt' > 'grek' <'dflt' > 'latn' <'dflt' > ) ]
Lookup: 1 0 0 "alt a" { "alt a"  } ['ss01' ('DFLT' <'dflt' > 'latn' <'dflt' > ) ]
Lookup: 258 0 0 "Lets get our kern on" { "kernin like nobodys business" [150,0,4] } ['kern' ('DFLT' <'dflt' > 'latn' <'dflt' > ) ]
MarkAttachClasses: 1
DEI: 91125
KernClass2: 16 14 "kernin like nobodys business"
 15 slash seven V W
 175 quotedbl quotesingle asterisk grave dieresis ordfeminine macron degree acute ordmasculine circumflex breve dotaccent ring tilde quoteleft quoteright quotedblleft quotedblright
 17 nine question F P
 107 A L backslash Agrave Aacute Acircumflex Atilde Adieresis Aring Amacron Abreve Aogonek Lacute uni013B Lslash
 26 three eight B C germandbls
 5 K X Z
 125 at D G O Ograve Oacute Ocircumflex Otilde Odieresis Oslash Dcaron Dcroat Gcircumflex Gbreve Gdotaccent uni0122 Omacron Obreve
 158 a h m n s agrave aacute acircumflex atilde adieresis aring egrave eacute ecircumflex edieresis ntilde amacron abreve aogonek hcircumflex nacute uni0146 ncaron

StartChar: H
Encoding: 72 72 0
Width: 786
VWidth: 0
Flags: HMW
LayerCount: 2
Fore
SplineSet
120 293 m 257
 120 445 l 257
 650 445 l 257
 650 293 l 257
 120 293 l 257
544 700 m 257
 713 700 l 257
 713 0 l 257
 544 0 l 257
 544 700 l 257
74 700 m 257
 243 700 l 257
 243 0 l 257
 74 0 l 257
 74 700 l 257
EndSplineSet
EndChar

StartChar: O
Encoding: 79 79 1
Width: 821
VWidth: 0
Flags: HMW
LayerCount: 2
Fore
SplineSet
213 350 m 256
 213 226 292 140 410 140 c 256
 528 140 608 226 608 350 c 256
 608 474 532 560 410 560 c 256
 292 560 213 474 213 350 c 256
34 350 m 256
 34 566 196 716 410 716 c 256
 626 716 788 566 788 350 c 256
 788 134 630 -22 410 -22 c 256
 190 -22 34 134 34 350 c 256
EndSplineSet
EndChar

StartChar: I
Encoding: 73 73 2
Width: 320
VWidth: 0
Flags: HMW
LayerCount: 2
Fore
SplineSet
74 700 m 257
 246 700 l 257
 246 0 l 257
 74 0 l 257
 74 700 l 257
EndSplineSet
EndChar

StartChar: C
Encoding: 67 67 3
Width: 700
VWidth: 0
Flags: HMW
LayerCount: 2
Fore
SplineSet
219 350 m 256
 219 222 315 145 428 145 c 256
 527 145 591 188 637 238 c 257
 637 54 l 257
 581 11 520 -16 418 -16 c 256
 193 -16 34 132 34 350 c 256
 34 568 193 716 418 716 c 256
 520 716 581 689 637 646 c 257
 637 462 l 257
 591 512 527 555 428 555 c 256
 315 555 219 478 219 350 c 256
EndSplineSet
EndChar

StartChar: E
Encoding: 69 69 4
Width: 603
VWidth: 0
Flags: HMW
LayerCount: 2
Fore
SplineSet
186 0 m 257
 186 140 l 257
 540 140 l 257
 540 0 l 257
 186 0 l 257
186 560 m 257
 186 700 l 257
 540 700 l 257
 540 560 l 257
 186 560 l 257
186 300 m 257
 186 436 l 257
 520 436 l 257
 520 300 l 257
 186 300 l 257
74 700 m 257
 237 700 l 257
 237 0 l 257
 74 0 l 257
 74 700 l 257
EndSplineSet
EndChar

StartChar: F
Encoding: 70 70 6
Width: 553
VWidth: 0
Flags: HMW
LayerCount: 2
Fore
SplineSet
186 554 m 257
 186 700 l 257
 500 700 l 257
 500 554 l 257
 186 554 l 257
186 280 m 257
 186 417 l 257
 490 417 l 257
 490 280 l 257
 186 280 l 257
74 700 m 257
 237 700 l 257
 237 0 l 257
 74 0 l 257
 74 700 l 257
EndSplineSet
EndChar

StartChar: G
Encoding: 71 71 7
Width: 814
VWidth: 0
Flags: HMW
LayerCount: 2
Fore
SplineSet
420 253 m 257
 420 383 l 257
 775 383 l 257
 787 161 656 -22 417 -22 c 256
 194 -22 34 128 34 350 c 256
 34 572 200 716 423 716 c 256
 571 716 673 647 739 550 c 257
 588 472 l 257
 556 527 505 568 423 568 c 256
 306 568 211 488 211 350 c 256
 211 212 300 125 423 125 c 256
 526.592 125 581.237 177.915 606.261 253 c 257
 420 253 l 257
EndSplineSet
EndChar

StartChar: T
Encoding: 84 84 8
Width: 561
VWidth: 0
Flags: HMW
LayerCount: 2
Fore
SplineSet
4 548 m 257
 4 700 l 257
 558 700 l 257
 558 548 l 257
 366 548 l 257
 366 0 l 257
 196 0 l 257
 196 548 l 257
 4 548 l 257
EndSplineSet
EndChar

StartChar: L
Encoding: 76 76 9
Width: 528
VWidth: 0
Flags: HMW
LayerCount: 2
Fore
SplineSet
74 700 m 257
 243 700 l 257
 243 146 l 257
 524 146 l 257
 524 0 l 257
 74 0 l 257
 74 700 l 257
EndSplineSet
EndChar

StartChar: D
Encoding: 68 68 10
Width: 733
VWidth: 0
Flags: HMW
LayerCount: 2
Fore
SplineSet
74 700 m 257
 248 700 l 257
 248 0 l 257
 74 0 l 257
 74 700 l 257
324 0 m 258
 186 0 l 257
 186 150 l 257
 318 150 l 258
 426 150 524 200 524 350 c 256
 524 500 426 550 318 550 c 258
 186 550 l 257
 186 700 l 257
 324 700 l 258
 553 700 700 566 700 350 c 256
 700 134 553 0 324 0 c 258
EndSplineSet
EndChar

StartChar: Q
Encoding: 81 81 11
Width: 863
VWidth: 0
Flags: HMW
LayerCount: 2
Fore
SplineSet
213 350 m 256
 213 214 308 127 426 127 c 256
 544 127 627 207 627 331 c 256
 627 455 548 560 414 560 c 256
 296 560 213 474 213 350 c 256
34 350 m 256
 34 566 200 716 414 716 c 256
 630 716 788 566 788 350 c 256
 788 134 634 -22 414 -22 c 256
 194 -22 34 134 34 350 c 256
356 300 m 257
 532 300 l 257
 870 -12 l 257
 688 -12 l 257
 356 300 l 257
EndSplineSet
EndChar

StartChar: A
Encoding: 65 65 12
Width: 735
VWidth: 0
Flags: HMW
LayerCount: 2
Fore
SplineSet
184 135 m 257
 196 264 l 257
 544 264 l 257
 554 135 l 257
 184 135 l 257
368 442 m 257
 270 217 l 257
 277 179 l 257
 190 0 l 257
 -2 0 l 257
 368 744 l 257
 736 0 l 257
 544 0 l 257
 460 172 l 257
 466 216 l 257
 368 442 l 257
EndSplineSet
EndChar

StartChar: R
Encoding: 82 82 13
Width: 647
VWidth: 0
Flags: HMW
LayerCount: 2
Fore
SplineSet
248 317 m 257
 425 317 l 257
 644 0 l 257
 445 0 l 257
 248 317 l 257
74 700 m 257
 243 700 l 257
 243 0 l 257
 74 0 l 257
 74 700 l 257
180 556 m 257
 180 700 l 257
 330 700 l 258
 508 700 602 607 602 471 c 256
 602 335 508 242 330 242 c 258
 180 242 l 257
 180 374 l 257
 317 374 l 258
 385 374 426 407 426 465 c 256
 426 523 385 556 317 556 c 258
 180 556 l 257
EndSplineSet
EndChar

StartChar: V
Encoding: 86 86 14
Width: 735
VWidth: 0
Flags: HMW
LayerCount: 2
Fore
SplineSet
368 283 m 257
 538 700 l 257
 736 700 l 257
 368 -44 l 257
 -2 700 l 257
 197 700 l 257
 368 283 l 257
EndSplineSet
EndChar

StartChar: M
Encoding: 77 77 15
Width: 891
VWidth: 0
Flags: HMW
LayerCount: 2
Fore
SplineSet
253.881 350.93 m 257
 212 0 l 257
 34 0 l 257
 147 735 l 257
 446 308 l 257
 744 735 l 257
 858 0 l 257
 678 0 l 257
 636.325 349.21 l 257
 446 65 l 257
 253.881 350.93 l 257
EndSplineSet
EndChar

StartChar: W
Encoding: 87 87 16
Width: 1065
VWidth: 0
Flags: HMW
LayerCount: 2
Fore
SplineSet
731.486 286.156 m 257
 860 700 l 257
 1061 700 l 257
 758 -42 l 257
 532 380 l 257
 307 -42 l 257
 4 700 l 257
 205 700 l 257
 333.102 287.48 l 257
 532 735 l 257
 731.486 286.156 l 257
EndSplineSet
EndChar

StartChar: N
Encoding: 78 78 17
Width: 793
VWidth: 0
Flags: HMW
LayerCount: 2
Fore
SplineSet
557 700 m 257
 720 700 l 257
 720 -35 l 257
 237 385.556 l 257
 237 0 l 257
 74 0 l 257
 74 735 l 257
 557 313.788 l 257
 557 700 l 257
EndSplineSet
EndChar

StartChar: a
Encoding: 97 97 18
Width: 544
VWidth: 0
Flags: HMW
LayerCount: 2
Fore
SplineSet
176 138 m 256
 176 104 202 89 242 89 c 256
 297 89 345 112 345 186 c 257
 361 130 l 257
 361 41 286 -10 191 -10 c 256
 89 -10 24 41 24 128 c 256
 24 222 105 279 223 279 c 256
 292 279 358 252 378 230 c 257
 378 158 l 257
 344 184 310 197 258 197 c 256
 206 197 176 174 176 138 c 256
118 318 m 257
 66 420 l 257
 119 445 193 473 276 473 c 256
 400 473 490 420 490 324 c 258
 490 0 l 257
 345 0 l 257
 345 294 l 258
 345 333 314 358 264 358 c 256
 198 358 140 331 118 318 c 257
EndSplineSet
Substitution2: "alt a" a.alt
EndChar

StartChar: X
Encoding: 88 88 19
Width: 686
VWidth: 0
Flags: HMW
LayerCount: 2
Fore
SplineSet
458 700 m 257
 668 700 l 257
 448 359 l 257
 682 0 l 257
 473 0 l 257
 345 232 l 257
 213 0 l 257
 4 0 l 257
 244 359 l 257
 28 700 l 257
 238 700 l 257
 346 498 l 257
 458 700 l 257
EndSplineSet
EndChar

StartChar: K
Encoding: 75 75 20
Width: 700
VWidth: 0
Flags: HMW
LayerCount: 2
Fore
SplineSet
74 700 m 257
 250 700 l 257
 250 0 l 257
 74 0 l 257
 74 700 l 257
487 700 m 257
 686 700 l 257
 402 372 l 257
 701 0 l 257
 496 0 l 257
 200 367 l 257
 487 700 l 257
EndSplineSet
EndChar

StartChar: Y
Encoding: 89 89 21
Width: 660
VWidth: 0
Flags: HMW
LayerCount: 2
Fore
SplineSet
466 700 m 257
 662 700 l 257
 416 283.578 l 257
 416 0 l 257
 244 0 l 257
 244 283.578 l 257
 -2 700 l 257
 194 700 l 257
 330 437 l 257
 466 700 l 257
EndSplineSet
EndChar

StartChar: B
Encoding: 66 66 22
Width: 664
VWidth: 0
Flags: HMW
LayerCount: 2
Fore
SplineSet
202 348 m 257
 202 422 l 257
 313 422 l 258
 371 422 405 450 405 497 c 256
 405 544 371 568 313 568 c 258
 243 568 l 257
 243 132 l 257
 330 132 l 258
 395 132 445 153 445 220 c 256
 445 281 395 304 330 304 c 258
 202 304 l 257
 202 396 l 257
 348 396 l 258
 483 396 620 339 620 197 c 256
 620 58 514 0 348 0 c 258
 74 0 l 257
 74 700 l 257
 332 700 l 258
 476 700 580 641 580 522 c 256
 580 410 476 348 332 348 c 258
 202 348 l 257
EndSplineSet
EndChar

StartChar: Z
Encoding: 90 90 23
Width: 620
VWidth: 0
Flags: HMW
LayerCount: 2
Fore
SplineSet
57 548 m 257
 57 700 l 257
 606 700 l 257
 274 146 l 257
 570 146 l 257
 570 0 l 257
 8 0 l 257
 336 548 l 257
 57 548 l 257
EndSplineSet
EndChar

StartChar: o
Encoding: 111 111 24
Width: 589
VWidth: 0
Flags: HMW
LayerCount: 2
Fore
SplineSet
32 230 m 256
 32 376 145 470 295 470 c 256
 445 470 558 376 558 230 c 256
 558 84 445 -10 295 -10 c 256
 145 -10 32 84 32 230 c 256
188 230 m 256
 188 159 236 115 295 115 c 256
 354 115 402 159 402 230 c 256
 402 301 354 346 295 346 c 256
 236 346 188 301 188 230 c 256
EndSplineSet
EndChar

StartChar: J
Encoding: 74 74 25
Width: 330
VWidth: 0
Flags: HMW
LayerCount: 2
Fore
SplineSet
-72 -58 m 257
 -52 -76 -21 -91 9 -91 c 256
 39 -91 74 -70 74 -10 c 258
 74 700 l 257
 257 700 l 257
 257 -54 l 258
 257 -188 151 -239 26 -239 c 256
 -52 -239 -124 -208 -164 -182 c 257
 -72 -58 l 257
EndSplineSet
EndChar

StartChar: t
Encoding: 116 116 26
Width: 318
VWidth: 0
Flags: HMW
LayerCount: 2
Fore
SplineSet
5 460 m 257
 313 460 l 257
 313 335 l 257
 5 335 l 257
 5 460 l 257
86 620 m 257
 232 620 l 257
 232 0 l 257
 86 0 l 257
 86 620 l 257
EndSplineSet
EndChar

StartChar: d
Encoding: 100 100 27
Width: 616
VWidth: 0
Flags: HMW
LayerCount: 2
Fore
SplineSet
408 780 m 257
 560 780 l 257
 560 0 l 257
 408 0 l 257
 408 780 l 257
32 230 m 256
 32 386 138 470 250 470 c 256
 365 470 450 379 450 230 c 256
 450 81 365 -10 250 -10 c 256
 138 -10 32 74 32 230 c 256
191 230 m 256
 191 158 241 112 301 112 c 256
 352 112 408 155 408 230 c 256
 408 305 352 348 301 348 c 256
 241 348 191 302 191 230 c 256
EndSplineSet
EndChar

StartChar: l
Encoding: 108 108 28
Width: 270
VWidth: 0
Flags: HMW
LayerCount: 2
Fore
SplineSet
60 780 m 257
 212 780 l 257
 212 0 l 257
 60 0 l 257
 60 780 l 257
EndSplineSet
EndChar

StartChar: i
Encoding: 105 105 29
Width: 276
VWidth: 0
Flags: HMW
LayerCount: 2
Fore
SplineSet
50 632 m 256
 50 680 89 714 138 714 c 256
 187 714 226 680 226 632 c 256
 226 584 187 550 138 550 c 256
 89 550 50 584 50 632 c 256
64 460 m 257
 211 460 l 257
 211 0 l 257
 64 0 l 257
 64 460 l 257
EndSplineSet
EndChar

StartChar: r
Encoding: 114 114 30
Width: 411
VWidth: 0
Flags: HMW
LayerCount: 2
Fore
SplineSet
208 460 m 257
 208 0 l 257
 60 0 l 257
 60 460 l 257
 208 460 l 257
341 303 m 257
 325 319 308 330 282 330 c 256
 238 330 208 293 208 227 c 257
 172 280 l 257
 172 389 246 471 324 471 c 256
 357 471 391 456 407 433 c 257
 341 303 l 257
EndSplineSet
EndChar

StartChar: c
Encoding: 99 99 31
Width: 493
VWidth: 0
Flags: HMW
LayerCount: 2
Fore
SplineSet
186 230 m 256
 186 156 240 110 308 110 c 256
 363 110 416 135 444 179 c 257
 444 32 l 257
 412 6 366 -10 296 -10 c 256
 142 -10 30 84 30 230 c 256
 30 376 142 470 296 470 c 256
 366 470 412 452 444 430 c 257
 444 282 l 257
 416 326 357 350 308 350 c 256
 240 350 186 298 186 230 c 256
EndSplineSet
EndChar

StartChar: b
Encoding: 98 98 32
Width: 616
VWidth: 0
Flags: HMW
LayerCount: 2
Fore
SplineSet
210 780 m 257
 210 0 l 257
 58 0 l 257
 58 780 l 257
 210 780 l 257
585 230 m 256
 585 74 478 -10 366 -10 c 256
 251 -10 167 81 167 230 c 256
 167 379 251 470 366 470 c 256
 478 470 585 386 585 230 c 256
426 230 m 256
 426 302 376 348 316 348 c 256
 265 348 210 305 210 230 c 256
 210 155 265 112 316 112 c 256
 376 112 426 158 426 230 c 256
EndSplineSet
EndChar

StartChar: p
Encoding: 112 112 33
Width: 616
VWidth: 0
Flags: HMW
LayerCount: 2
Fore
SplineSet
210 -220 m 257
 58 -220 l 257
 58 460 l 257
 210 460 l 257
 210 -220 l 257
585 230 m 256
 585 68 478 -16 366 -16 c 256
 244 -16 174 81 174 230 c 256
 174 379 244 476 366 476 c 256
 478 476 585 392 585 230 c 256
426 230 m 256
 426 302 376 342 316 342 c 256
 265 342 210 305 210 230 c 256
 210 155 265 118 316 118 c 256
 376 118 426 158 426 230 c 256
EndSplineSet
EndChar

StartChar: q
Encoding: 113 113 34
Width: 616
VWidth: 0
Flags: HMW
LayerCount: 2
Fore
SplineSet
408 -220 m 257
 408 460 l 257
 560 460 l 257
 560 -220 l 257
 408 -220 l 257
32 230 m 256
 32 392 138 476 250 476 c 256
 372 476 444 379 444 230 c 256
 444 81 372 -16 250 -16 c 256
 138 -16 32 68 32 230 c 256
191 230 m 256
 191 158 241 118 301 118 c 256
 352 118 408 155 408 230 c 256
 408 305 352 342 301 342 c 256
 241 342 191 302 191 230 c 256
EndSplineSet
EndChar

StartChar: h
Encoding: 104 104 35
Width: 568
VWidth: 0
Flags: HMW
LayerCount: 2
Fore
SplineSet
212 780 m 257
 212 0 l 257
 60 0 l 257
 60 780 l 257
 212 780 l 257
358 280 m 258
 358 334 341 364 291 364 c 256
 243 364 212 334 212 280 c 257
 186 280 l 257
 186 389 238 477 352 477 c 256
 466 477 510 414 510 302 c 258
 510 0 l 257
 358 0 l 257
 358 280 l 258
EndSplineSet
EndChar

StartChar: n
Encoding: 110 110 36
Width: 575
VWidth: 0
Flags: HMW
LayerCount: 2
Fore
SplineSet
212 460 m 257
 212 0 l 257
 60 0 l 257
 60 460 l 257
 212 460 l 257
358 280 m 258
 358 334 341 364 291 364 c 256
 243 364 212 334 212 280 c 257
 186 274 l 257
 186 383 238 470 352 470 c 256
 466 470 516 408 516 296 c 258
 516 0 l 257
 358 0 l 257
 358 280 l 258
EndSplineSet
EndChar

StartChar: m
Encoding: 109 109 37
Width: 820
VWidth: 0
Flags: HMW
LayerCount: 2
Fore
SplineSet
331 280 m 258
 331 334 315 364 272 364 c 256
 230 364 205 334 205 280 c 257
 179 274 l 257
 179 383 230 470 338 470 c 256
 446 470 483 414 483 302 c 258
 483 0 l 257
 331 0 l 257
 331 280 l 258
205 460 m 257
 205 0 l 257
 60 0 l 257
 60 460 l 257
 205 460 l 257
762 296 m 258
 762 0 l 257
 610 0 l 257
 610 280 l 258
 610 334 593 364 550 364 c 256
 508 364 483 334 483 280 c 257
 432 274 l 257
 432 383 508 470 616 470 c 256
 724 470 762 408 762 296 c 258
EndSplineSet
EndChar

StartChar: k
Encoding: 107 107 38
Width: 577
VWidth: 0
Flags: HMW
LayerCount: 2
Fore
SplineSet
58 780 m 257
 203 780 l 257
 203 0 l 257
 58 0 l 257
 58 780 l 257
370 460 m 257
 551 460 l 257
 354 270 l 257
 571 0 l 257
 393 0 l 257
 174 270 l 257
 370 460 l 257
EndSplineSet
EndChar

StartChar: u
Encoding: 117 117 39
Width: 575
VWidth: 0
Flags: HMW
LayerCount: 2
Fore
SplineSet
364 0 m 257
 364 460 l 257
 516 460 l 257
 516 0 l 257
 364 0 l 257
218 180 m 258
 218 126 234 96 284 96 c 256
 332 96 364 126 364 180 c 257
 390 186 l 257
 390 77 338 -10 224 -10 c 256
 110 -10 60 52 60 164 c 258
 60 460 l 257
 218 460 l 257
 218 180 l 258
EndSplineSet
EndChar

StartChar: e
Encoding: 101 101 40
Width: 563
VWidth: 0
Flags: HMW
LayerCount: 2
Fore
SplineSet
136 198 m 257
 136 287 l 257
 385.52 287 l 257
 374.517 333.708 342.979 359 288 359 c 256
 222 359 177 322 177 254 c 257
 175 230 l 257
 175 146 232 105 301 105 c 256
 345 105 373 121 390 158 c 257
 516 116 l 257
 480 44 416 -10 294 -10 c 256
 146 -10 37 91 37 230 c 256
 37 247 39 265 42 281 c 256
 61 394 161 470 291 470 c 256
 422 470 525 382 525 237 c 256
 525 229 525 214 523 198 c 257
 136 198 l 257
EndSplineSet
EndChar

StartChar: g
Encoding: 103 103 41
Width: 610
VWidth: 0
Flags: HMW
LayerCount: 2
Fore
SplineSet
42 -33 m 257
 188 -33 l 257
 193 -89 234 -118 293 -118 c 256
 357 -118 408 -75 408 10 c 258
 408 460 l 257
 553 460 l 257
 553 10 l 258
 553 -168 440 -240 300 -240 c 256
 128 -240 53 -155 42 -33 c 257
32 236 m 256
 32 392 138 470 250 470 c 256
 365 470 450 385 450 236 c 256
 450 87 365 2 250 2 c 256
 138 2 32 80 32 236 c 256
191 236 m 256
 191 164 241 124 301 124 c 256
 352 124 408 161 408 236 c 256
 408 311 352 348 301 348 c 256
 241 348 191 308 191 236 c 256
EndSplineSet
EndChar

StartChar: f
Encoding: 102 102 42
Width: 344
VWidth: 0
Flags: HMW
LayerCount: 2
Fore
SplineSet
18 460 m 257
 332 460 l 257
 332 335 l 257
 18 335 l 257
 18 460 l 257
316 634 m 257
 302 652 288 660 270 660 c 256
 240 660 222 639 222 592 c 258
 222 0 l 257
 76 0 l 257
 76 630 l 258
 76 732 134 796 249 796 c 256
 317 796 354 766 376 746 c 257
 316 634 l 257
EndSplineSet
EndChar

StartChar: s
Encoding: 115 115 43
Width: 451
VWidth: 0
Flags: HMW
LayerCount: 2
Fore
SplineSet
84 173 m 257
 147 128 203 98 237 98 c 256
 267 98 281 109 281 129 c 256
 281 157 235 173 183 192 c 256
 118 216 53 254 53 340 c 256
 53 412 126 470 223 470 c 256
 302 470 371 440 417 400 c 257
 362 307 l 257
 317 342 272 362 235 362 c 256
 202 362 190 350 190 334 c 256
 190 306 243 295 300 273 c 256
 365 248 427 218 427 130 c 256
 427 35 360 -19 250 -19 c 256
 154 -19 73 21 19 79 c 257
 84 173 l 257
EndSplineSet
EndChar

StartChar: y
Encoding: 121 121 44
Width: 521
VWidth: 0
Flags: HMW
LayerCount: 2
Fore
SplineSet
530 460 m 257
 230 -220 l 257
 78 -220 l 257
 190 37 l 257
 -10 460 l 257
 158 460 l 257
 306 90 l 257
 228 92 l 257
 375 460 l 257
 530 460 l 257
EndSplineSet
EndChar

StartChar: w
Encoding: 119 119 45
Width: 761
VWidth: 0
Flags: HMW
LayerCount: 2
Fore
SplineSet
-8 460 m 257
 152 460 l 257
 246.117 225.534 l 257
 378 495 l 257
 514.566 224.32 l 257
 610 460 l 257
 768 460 l 257
 532 -28 l 257
 378.497 245.635 l 257
 230 -28 l 257
 -8 460 l 257
EndSplineSet
EndChar

StartChar: v
Encoding: 118 118 46
Width: 527
VWidth: 0
Flags: HMW
LayerCount: 2
Fore
SplineSet
-3 460 m 257
 159 460 l 257
 264 205 l 257
 369 460 l 257
 530 460 l 257
 264 -54 l 257
 -3 460 l 257
EndSplineSet
EndChar

StartChar: x
Encoding: 120 120 47
Width: 532
VWidth: 0
Flags: HMW
LayerCount: 2
Fore
SplineSet
354 460 m 257
 522 460 l 257
 346 236 l 257
 532 0 l 257
 364 0 l 257
 269 134 l 257
 174 0 l 257
 0 0 l 257
 189 236 l 257
 10 460 l 257
 184 460 l 257
 269 340 l 257
 354 460 l 257
EndSplineSet
EndChar

StartChar: z
Encoding: 122 122 48
Width: 522
VWidth: 0
Flags: HMW
LayerCount: 2
Fore
SplineSet
256 322 m 257
 58 322 l 257
 58 460 l 257
 508 460 l 257
 278 138 l 257
 475 138 l 257
 475 0 l 257
 15 0 l 257
 256 322 l 257
EndSplineSet
EndChar

StartChar: j
Encoding: 106 106 49
Width: 271
VWidth: 0
Flags: HMW
LayerCount: 2
Fore
SplineSet
46 632 m 256
 46 680 85 714 134 714 c 256
 183 714 222 680 222 632 c 256
 222 584 183 550 134 550 c 256
 85 550 46 584 46 632 c 256
-34 -77 m 257
 -20 -95 -5 -102 13 -102 c 256
 43 -102 61 -81 61 -34 c 258
 61 460 l 257
 207 460 l 257
 207 -72 l 258
 207 -174 149 -239 34 -239 c 256
 -34 -239 -72 -208 -94 -188 c 257
 -34 -77 l 257
EndSplineSet
EndChar

StartChar: P
Encoding: 80 80 50
Width: 623
VWidth: 0
Flags: HMW
LayerCount: 2
Fore
SplineSet
74 700 m 257
 243 700 l 257
 243 0 l 257
 74 0 l 257
 74 700 l 257
180 560 m 257
 180 700 l 257
 317 700 l 258
 495 700 589 613 589 471 c 256
 589 329 495 242 317 242 c 258
 180 242 l 257
 180 382 l 257
 317 382 l 258
 385 382 426 413 426 471 c 256
 426 529 385 560 317 560 c 258
 180 560 l 257
EndSplineSet
EndChar

StartChar: U
Encoding: 85 85 51
Width: 701
VWidth: 0
Flags: HMW
LayerCount: 2
Fore
SplineSet
68 700 m 257
 238 700 l 257
 238 242 l 258
 238 171 275 123 350 123 c 256
 425 123 463 171 463 242 c 258
 463 700 l 257
 632 700 l 257
 632 230 l 258
 632 54 508 -29 350 -29 c 256
 192 -29 68 54 68 230 c 258
 68 700 l 257
EndSplineSet
EndChar

StartChar: S
Encoding: 83 83 52
Width: 625
VWidth: 0
Flags: HMW
LayerCount: 2
Fore
SplineSet
153 251 m 257
 201 167 249 125 323 125 c 256
 378 125 408 148 408 193 c 256
 408 252 344 270 264 302 c 256
 195 329 74 384 74 520 c 256
 74 638 176 716 321 716 c 256
 471 716 549 633 577 562 c 257
 450 489 l 257
 420 541 382 572 328 572 c 256
 279 572 248 550 248 514 c 256
 248 466 325 443 408 413 c 256
 506 379 586 316 586 196 c 256
 586 54 483 -22 319 -22 c 256
 191 -22 78 53 34 168 c 257
 153 251 l 257
EndSplineSet
EndChar

StartChar: at
Encoding: 64 64 53
Width: 770
VWidth: 0
Flags: HMW
LayerCount: 2
Fore
SplineSet
316 320 m 256
 316 276 333 252 361 252 c 256
 395 252 435 296 435 364 c 256
 435 410 416 435 388 435 c 256
 348 435 316 381 316 320 c 256
192 312 m 256
 192 451 284 530 362 530 c 256
 434 530 472 461 472 375 c 256
 472 236 410 154 328 154 c 256
 248 154 192 213 192 312 c 256
10 320 m 256
 10 546 185 724 415 724 c 256
 624 724 760 556 760 390 c 256
 760 212 650 134 556 134 c 256
 486 134 433 193 443 259 c 257
 434 295 l 257
 460 520 l 257
 579 520 l 257
 548 304 l 258
 547 297 546 286 546 278 c 256
 546 254 553 241 571 241 c 256
 595 241 640 273 640 390 c 256
 640 516 564 625 415 625 c 256
 239 625 130 496 130 320 c 256
 130 170 208 66 370 66 c 256
 440 66 508 77 566 109 c 257
 617 26 l 257
 557 -8 467 -28 365 -28 c 256
 139 -28 10 121 10 320 c 256
EndSplineSet
EndChar

StartChar: period
Encoding: 46 46 54
Width: 322
VWidth: 0
Flags: HMW
LayerCount: 2
Fore
SplineSet
67 68 m 256
 67 118 106 160 161 160 c 256
 216 160 256 118 256 68 c 256
 256 18 216 -24 161 -24 c 256
 106 -24 67 18 67 68 c 256
EndSplineSet
EndChar

StartChar: comma
Encoding: 44 44 55
Width: 323
VWidth: 0
Flags: HMW
LayerCount: 2
Fore
SplineSet
120 110 m 257
 272 78 l 257
 146 -172 l 257
 32 -149 l 257
 120 110 l 257
EndSplineSet
EndChar

StartChar: colon
Encoding: 58 58 56
Width: 322
VWidth: 0
Flags: HMW
LayerCount: 2
Fore
SplineSet
67 68 m 256
 67 118 106 160 161 160 c 256
 216 160 256 118 256 68 c 256
 256 18 216 -24 161 -24 c 256
 106 -24 67 18 67 68 c 256
67 442 m 256
 67 492 106 534 161 534 c 256
 216 534 256 492 256 442 c 256
 256 392 216 350 161 350 c 256
 106 350 67 392 67 442 c 256
EndSplineSet
EndChar

StartChar: semicolon
Encoding: 59 59 57
Width: 393
VWidth: 0
Flags: HMW
LayerCount: 2
Fore
SplineSet
118 436 m 256
 118 486 158 528 213 528 c 256
 268 528 308 486 308 436 c 256
 308 386 268 343 213 343 c 256
 158 343 118 386 118 436 c 256
142 110 m 257
 294 78 l 257
 168 -172 l 257
 54 -149 l 257
 142 110 l 257
EndSplineSet
EndChar

StartChar: quotedbl
Encoding: 34 34 58
Width: 518
VWidth: 0
Flags: HMW
LayerCount: 2
Fore
SplineSet
105 700 m 257
 266 700 l 257
 160 381 l 257
 61 381 l 257
 105 700 l 257
316 700 m 257
 477 700 l 257
 372 381 l 257
 272 381 l 257
 316 700 l 257
EndSplineSet
EndChar

StartChar: exclam
Encoding: 33 33 59
Width: 343
VWidth: 0
Flags: HMW
LayerCount: 2
Fore
SplineSet
78 700 m 257
 266 700 l 257
 233 231 l 257
 110 231 l 257
 78 700 l 257
78 62 m 256
 78 112 117 148 172 148 c 256
 227 148 266 112 266 62 c 256
 266 12 227 -24 172 -24 c 256
 117 -24 78 12 78 62 c 256
EndSplineSet
EndChar

StartChar: quotesingle
Encoding: 39 39 60
Width: 306
VWidth: 0
Flags: HMW
LayerCount: 2
Fore
SplineSet
105 700 m 257
 266 700 l 257
 160 381 l 257
 61 381 l 257
 105 700 l 257
EndSplineSet
EndChar

StartChar: numbersign
Encoding: 35 35 61
Width: 667
VWidth: 0
Flags: HMW
LayerCount: 2
Fore
SplineSet
75 412 m 257
 75 533 l 257
 632 533 l 257
 632 412 l 257
 478 412 l 256
 448 418 l 256
 244 418 l 256
 218 412 l 256
 75 412 l 257
35 172 m 257
 35 293 l 257
 176 293 l 256
 208 287 l 256
 438 287 l 256
 468 293 l 256
 592 293 l 257
 592 172 l 257
 35 172 l 257
474 700 m 257
 605 700 l 257
 435 0 l 257
 304 0 l 257
 358 224 l 256
 370 250 l 256
 420 456 l 256
 422 487 l 256
 474 700 l 257
232 700 m 257
 364 700 l 257
 312 488 l 256
 298 456 l 256
 248 252 l 256
 248 226 l 256
 194 0 l 257
 62 0 l 257
 232 700 l 257
EndSplineSet
EndChar

StartChar: hyphen
Encoding: 45 45 62
Width: 222
VWidth: 0
Flags: HMW
LayerCount: 2
Fore
SplineSet
5 172 m 257
 5 303 l 257
 218 303 l 257
 218 172 l 257
 5 172 l 257
EndSplineSet
EndChar

StartChar: dollar
Encoding: 36 36 63
Width: 621
VWidth: 0
Flags: HMW
LayerCount: 2
Fore
SplineSet
262 818 m 257
 386 818 l 257
 380 637 l 257
 268 637 l 257
 262 818 l 257
268 62 m 257
 380 62 l 257
 386 -112 l 257
 262 -112 l 257
 268 62 l 257
449 489 m 257
 419 547 378 586 326 586 c 256
 271 586 248 558 248 522 c 256
 248 463 323 446 408 414 c 256
 503 380 586 316 586 196 c 256
 586 64 482 -10 318 -10 c 256
 190 -10 77 72 33 168 c 257
 152 251 l 257
 200 167 248 125 322 125 c 256
 381 125 408 149 408 194 c 256
 408 250 345 270 263 302 c 256
 193 328 74 385 74 521 c 256
 74 623 176 710 321 710 c 256
 465 710 534 638 576 562 c 257
 449 489 l 257
EndSplineSet
EndChar

StartChar: bar
Encoding: 124 124 64
Width: 352
VWidth: 0
Flags: HMW
LayerCount: 2
Fore
SplineSet
100 785 m 257
 253 785 l 257
 253 -215 l 257
 100 -215 l 257
 100 785 l 257
EndSplineSet
EndChar

StartChar: zero
Encoding: 48 48 65
Width: 662
VWidth: 0
Flags: HMW
LayerCount: 2
Fore
SplineSet
203 350 m 256
 203 218 254 132 331 132 c 256
 408 132 460 218 460 350 c 256
 460 482 408 568 331 568 c 256
 254 568 203 482 203 350 c 256
40 350 m 256
 40 578 158 713 331 713 c 256
 510 713 622 578 622 350 c 256
 622 122 510 -13 331 -13 c 256
 158 -13 40 122 40 350 c 256
EndSplineSet
Substitution2: "Tabular Numbers lookup" uniFF10
EndChar

StartChar: one
Encoding: 49 49 66
Width: 509
VWidth: 0
Flags: HMW
LayerCount: 2
Fore
SplineSet
68 498 m 257
 68 645 l 257
 404 713 l 257
 404 0 l 257
 242 0 l 257
 242 540 l 257
 68 498 l 257
EndSplineSet
Substitution2: "Tabular Numbers lookup" uniFF11
EndChar

StartChar: two
Encoding: 50 50 67
Width: 656
VWidth: 0
Flags: HMW
LayerCount: 2
Fore
SplineSet
20 0 m 257
 332 323 l 258
 388 383 422 424 422 480 c 256
 422 524 394 568 330 568 c 256
 265 568 220 516 220 441 c 257
 54 441 l 257
 54 590 152 714 334 714 c 256
 508 714 598 598 598 488 c 256
 598 413 556 352 496 300 c 258
 334 155 l 257
 614 155 l 257
 614 0 l 257
 20 0 l 257
EndSplineSet
Substitution2: "Tabular Numbers lookup" uniFF12
EndChar

StartChar: four
Encoding: 52 52 68
Width: 698
VWidth: 0
Flags: HMW
LayerCount: 2
Fore
SplineSet
14 124 m 257
 420 700 l 257
 546 700 l 257
 546 0 l 257
 370 0 l 257
 370 180 l 257
 389 192 l 257
 389 454 l 257
 237.457 246 l 257
 462 246 l 257
 479 268 l 257
 656 268 l 257
 656 124 l 257
 14 124 l 257
EndSplineSet
Substitution2: "Tabular Numbers lookup" uniFF14
EndChar

StartChar: slash
Encoding: 47 47 69
Width: 608
VWidth: 0
Flags: HMW
LayerCount: 2
Fore
SplineSet
448 700 m 257
 594 700 l 257
 167 -150 l 257
 15 -150 l 257
 448 700 l 257
EndSplineSet
EndChar

StartChar: backslash
Encoding: 92 92 70
Width: 546
VWidth: 0
Flags: HMW
LayerCount: 2
Fore
SplineSet
15 700 m 257
 162 700 l 257
 531 0 l 257
 384 0 l 257
 15 700 l 257
EndSplineSet
EndChar

StartChar: eight
Encoding: 56 56 71
Width: 627
VWidth: 0
Flags: HMW
LayerCount: 2
Fore
SplineSet
77 531 m 256
 77 649 185 716 314 716 c 256
 443 716 550 649 550 531 c 256
 550 403 429 342 314 342 c 256
 199 342 77 403 77 531 c 256
236 514 m 256
 236 467 270 435 314 435 c 256
 358 435 392 467 392 514 c 256
 392 561 360 594 314 594 c 256
 268 594 236 561 236 514 c 256
52 190 m 256
 52 338 199 396 314 396 c 256
 429 396 576 338 576 190 c 256
 576 62 452 -16 314 -16 c 256
 176 -16 52 62 52 190 c 256
220 216 m 256
 220 155 263 122 314 122 c 256
 365 122 407 155 407 216 c 256
 407 267 365 307 314 307 c 256
 263 307 220 267 220 216 c 256
EndSplineSet
Substitution2: "Tabular Numbers lookup" uniFF18
EndChar

StartChar: nine
Encoding: 57 57 72
Width: 669
VWidth: 0
Flags: HMW
LayerCount: 2
Fore
SplineSet
452 454 m 256
 452 525 402 572 335 572 c 256
 268 572 218 525 218 454 c 256
 218 383 268 335 335 335 c 256
 402 335 452 383 452 454 c 256
336 3 m 257
 122 3 l 257
 348 256 l 257
 384 271 l 257
 346 235 316 226 266 226 c 256
 162 226 50 312 50 454 c 256
 50 626 178 716 335 716 c 256
 492 716 620 626 620 454 c 256
 620 378 584 316 538 260 c 258
 336 3 l 257
EndSplineSet
Substitution2: "Tabular Numbers lookup" uniFF19
EndChar

StartChar: three
Encoding: 51 51 73
Width: 621
VWidth: 0
Flags: HMW
LayerCount: 2
Fore
SplineSet
275 338 m 257
 275 415 l 257
 353 415 404 458 404 508 c 256
 404 549 378 578 325 578 c 256
 273 578 234 543 234 495 c 257
 78 495 l 257
 78 619 175 713 325 713 c 256
 483 713 572 627 572 519 c 256
 572 398 441 338 275 338 c 257
318 -16 m 256
 148 -16 48 98 48 222 c 257
 215 222 l 257
 215 153 266 120 324 120 c 256
 382 120 424 148 424 208 c 256
 424 266 377 306 275 306 c 257
 275 392 l 257
 460 392 592 334 592 192 c 256
 592 70 490 -16 318 -16 c 256
EndSplineSet
Substitution2: "Tabular Numbers lookup" uniFF13
EndChar

StartChar: five
Encoding: 53 53 74
Width: 645
VWidth: 0
Flags: HMW
LayerCount: 2
Fore
SplineSet
605 224 m 256
 605 58 457 -13 322 -13 c 256
 193 -13 107 29 42 78 c 257
 108 217 l 257
 164 169 234 142 286 142 c 256
 370 142 420 174 420 242 c 256
 420 310 354 340 286 340 c 256
 232 340 159 332 88 296 c 257
 186 700 l 257
 591 700 l 257
 591 553 l 257
 310 553 l 257
 267.847 427.267 l 257
 305.264 446.255 346.648 453 392 453 c 256
 502 453 605 370 605 224 c 256
EndSplineSet
Substitution2: "Tabular Numbers lookup" uniFF15
EndChar

StartChar: six
Encoding: 54 54 75
Width: 669
VWidth: 0
Flags: HMW
LayerCount: 2
Fore
SplineSet
218 246 m 256
 218 175 268 128 335 128 c 256
 402 128 452 175 452 246 c 256
 452 317 402 365 335 365 c 256
 268 365 218 317 218 246 c 256
333 697 m 257
 548 697 l 257
 321 444 l 257
 286 429 l 257
 324 465 354 474 404 474 c 256
 508 474 620 388 620 246 c 256
 620 74 492 -16 335 -16 c 256
 178 -16 50 74 50 246 c 256
 50 322 86 384 132 440 c 258
 333 697 l 257
EndSplineSet
Substitution2: "Tabular Numbers lookup" uniFF16
EndChar

StartChar: seven
Encoding: 55 55 76
Width: 603
VWidth: 0
Flags: HMW
LayerCount: 2
Fore
SplineSet
30 542 m 257
 30 700 l 257
 601 700 l 257
 263 0 l 257
 80 0 l 257
 353 542 l 257
 30 542 l 257
EndSplineSet
Substitution2: "Tabular Numbers lookup" uniFF17
EndChar

StartChar: plus
Encoding: 43 43 77
Width: 674
VWidth: 0
Flags: HMW
LayerCount: 2
Fore
SplineSet
65 196 m 257
 65 342 l 257
 610 342 l 257
 610 196 l 257
 65 196 l 257
258 540 m 257
 416 540 l 257
 416 -2 l 257
 258 -2 l 257
 258 540 l 257
EndSplineSet
EndChar

StartChar: equal
Encoding: 61 61 78
Width: 626
VWidth: 0
Flags: HMW
LayerCount: 2
Fore
SplineSet
56 84 m 257
 56 215 l 257
 570 215 l 257
 570 84 l 257
 56 84 l 257
56 290 m 257
 56 422 l 257
 570 422 l 257
 570 290 l 257
 56 290 l 257
EndSplineSet
EndChar

StartChar: percent
Encoding: 37 37 79
Width: 919
VWidth: 0
Flags: HMW
LayerCount: 2
Fore
SplineSet
22 534 m 256
 22 636 104 720 212 720 c 256
 320 720 401 636 401 534 c 256
 401 432 320 350 212 350 c 256
 104 350 22 432 22 534 c 256
147 534 m 256
 147 498 174 468 212 468 c 256
 250 468 276 498 276 534 c 256
 276 570 250 600 212 600 c 256
 174 600 147 570 147 534 c 256
519 166 m 256
 519 268 600 351 708 351 c 256
 816 351 897 268 897 166 c 256
 897 64 816 -19 708 -19 c 256
 600 -19 519 64 519 166 c 256
644 166 m 256
 644 130 670 100 708 100 c 256
 746 100 772 130 772 166 c 256
 772 202 746 232 708 232 c 256
 670 232 644 202 644 166 c 256
650 700 m 257
 807 700 l 257
 269 0 l 257
 113 0 l 257
 650 700 l 257
EndSplineSet
EndChar

StartChar: ampersand
Encoding: 38 38 80
Width: 752
VWidth: 0
Flags: HMW
LayerCount: 2
Fore
SplineSet
223 372 m 258
 179 426 126 474 126 544 c 256
 126 632 208 718 342 718 c 256
 472 718 544 632 544 548 c 256
 544 456 484 418 372 344 c 256
 301 298 198 282 198 201 c 256
 198 153 236 114 304 114 c 256
 418 114 528 217 608 341 c 257
 709 264 l 257
 622 136 482 -13 284 -13 c 256
 150 -13 40 62 40 188 c 256
 40 348 222 387 292 420 c 256
 367 456 406 498 406 534 c 256
 406 566 380 596 340 596 c 256
 294 596 273 566 273 534 c 256
 273 494 312 458 366 400 c 258
 736 0 l 257
 562 0 l 257
 223 372 l 258
EndSplineSet
EndChar

StartChar: question
Encoding: 63 63 81
Width: 627
VWidth: 0
Flags: HMW
LayerCount: 2
Fore
SplineSet
420 500 m 256
 420 558 379 592 308 592 c 256
 248 592 188 560 150 504 c 257
 48 590 l 257
 119 672 199 720 318 720 c 256
 450 720 574 638 574 500 c 256
 574 376.594 462.32 305.982 358.683 284.823 c 257
 354 201 l 257
 232 201 l 257
 212 380 l 257
 244 380 l 258
 364 380 420 449 420 500 c 256
200 59 m 256
 200 103 239 142 294 142 c 256
 349 142 388 103 388 59 c 256
 388 15 349 -24 294 -24 c 256
 239 -24 200 15 200 59 c 256
EndSplineSet
EndChar

StartChar: parenleft
Encoding: 40 40 82
Width: 341
VWidth: 0
Flags: HMW
LayerCount: 2
Fore
SplineSet
190 780 m 257
 327 780 l 257
 257 630 218 460 218 290 c 256
 218 120 257 -50 327 -200 c 257
 190 -200 l 257
 110 -50 68 120 68 290 c 256
 68 460 110 630 190 780 c 257
EndSplineSet
EndChar

StartChar: parenright
Encoding: 41 41 83
Width: 341
VWidth: 0
Flags: HMW
LayerCount: 2
Fore
SplineSet
152 -200 m 257
 14 -200 l 257
 84 -50 124 120 124 290 c 256
 124 460 84 630 14 780 c 257
 152 780 l 257
 232 630 273 460 273 290 c 256
 273 120 232 -50 152 -200 c 257
EndSplineSet
EndChar

StartChar: asterisk
Encoding: 42 42 84
Width: 592
VWidth: 0
Flags: HMW
LayerCount: 2
Fore
SplineSet
498 604 m 257
 542 472 l 257
 308 428 l 257
 284 500 l 257
 498 604 l 257
491 315 m 257
 378 234 l 257
 266 442 l 257
 326 486 l 257
 491 315 l 257
214 234 m 257
 101 315 l 257
 266 486 l 257
 326 442 l 257
 214 234 l 257
50 472 m 257
 94 604 l 257
 308 500 l 257
 284 428 l 257
 50 472 l 257
226 700 m 257
 366 700 l 257
 334 464 l 257
 258 464 l 257
 226 700 l 257
EndSplineSet
EndChar

StartChar: less
Encoding: 60 60 85
Width: 640
VWidth: 0
Flags: HMW
LayerCount: 2
Fore
SplineSet
280 268 m 257
 575 148 l 257
 575 -0 l 257
 65 213 l 257
 65 314 l 257
 575 528 l 257
 575 380 l 257
 280 268 l 257
EndSplineSet
EndChar

StartChar: greater
Encoding: 62 62 86
Width: 640
VWidth: 0
Flags: HMW
LayerCount: 2
Fore
SplineSet
360 260 m 257
 65 380 l 257
 65 528 l 257
 575 314 l 257
 575 213 l 257
 65 -0 l 257
 65 148 l 257
 360 260 l 257
EndSplineSet
EndChar

StartChar: bracketleft
Encoding: 91 91 87
Width: 362
VWidth: 0
Flags: HMW
LayerCount: 2
Fore
SplineSet
242 648 m 257
 242 -88 l 257
 342 -88 l 257
 342 -220 l 257
 90 -220 l 257
 90 780 l 257
 342 780 l 257
 342 648 l 257
 242 648 l 257
EndSplineSet
EndChar

StartChar: bracketright
Encoding: 93 93 88
Width: 362
VWidth: 0
Flags: HMW
LayerCount: 2
Fore
SplineSet
121 -88 m 257
 121 648 l 257
 20 648 l 257
 20 780 l 257
 272 780 l 257
 272 -220 l 257
 20 -220 l 257
 20 -88 l 257
 121 -88 l 257
EndSplineSet
EndChar

StartChar: asciicircum
Encoding: 94 94 89
Width: 510
VWidth: 0
Flags: HMW
LayerCount: 2
Fore
SplineSet
255 580 m 257
 176 448 l 257
 40 448 l 257
 210 710 l 257
 300 710 l 257
 470 448 l 257
 334 448 l 257
 255 580 l 257
EndSplineSet
EndChar

StartChar: underscore
Encoding: 95 95 90
Width: 531
VWidth: 0
Flags: HMW
LayerCount: 2
Fore
SplineSet
0 -154 m 257
 0 -58 l 257
 531 -58 l 257
 531 -154 l 257
 0 -154 l 257
EndSplineSet
EndChar

StartChar: grave
Encoding: 96 96 91
Width: 375
VWidth: 0
Flags: HMW
LayerCount: 2
Fore
SplineSet
53 654 m 257
 169 706 l 257
 319 546 l 257
 233 504 l 257
 53 654 l 257
EndSplineSet
EndChar

StartChar: braceleft
Encoding: 123 123 92
Width: 398
VWidth: 0
Flags: HMW
LayerCount: 2
Fore
SplineSet
266 610 m 258
 266 490 l 258
 266 401 262 280 122 280 c 257
 122 300 l 257
 262 300 266 179 266 90 c 258
 266 -30 l 258
 266 -56 284 -80 314 -80 c 258
 348 -80 l 257
 348 -200 l 257
 258 -200 l 258
 176 -200 98 -159 98 -60 c 258
 98 125 l 258
 98 201 80 225 38 235 c 257
 38 345 l 257
 80 355 98 379 98 455 c 258
 98 640 l 258
 98 739 176 780 258 780 c 258
 348 780 l 257
 348 660 l 257
 314 660 l 258
 284 660 266 636 266 610 c 258
EndSplineSet
EndChar

StartChar: braceright
Encoding: 125 125 93
Width: 398
VWidth: 0
Flags: HMW
LayerCount: 2
Fore
SplineSet
136 -30 m 258
 136 90 l 258
 136 179 140 300 280 300 c 257
 280 280 l 257
 140 280 136 401 136 490 c 258
 136 610 l 258
 136 636 118 660 88 660 c 258
 54 660 l 257
 54 780 l 257
 144 780 l 258
 226 780 304 739 304 640 c 258
 304 455 l 258
 304 379 322 355 364 345 c 257
 364 235 l 257
 322 225 304 201 304 125 c 258
 304 -60 l 258
 304 -159 226 -200 144 -200 c 258
 54 -200 l 257
 54 -80 l 257
 88 -80 l 258
 118 -80 136 -56 136 -30 c 258
EndSplineSet
EndChar

StartChar: asciitilde
Encoding: 126 126 94
Width: 575
VWidth: 0
Flags: HMW
LayerCount: 2
Fore
SplineSet
156 164 m 257
 37 168 l 257
 35 175 34 183 34 192 c 256
 34 226 42 258 66 288 c 256
 93 322 127 346 194 346 c 256
 240 346 271 329 319 297 c 256
 350 276 372 262 390 262 c 256
 412 262 422 280 422 302 c 256
 422 313 420 326 416 336 c 257
 537 330 l 257
 539 322 541 312 541 302 c 256
 541 270 536 236 512 206 c 256
 486 172 455 153 400 153 c 256
 360 153 326 171 276 203 c 256
 245 224 218 238 193 238 c 256
 161 238 150 214 150 192 c 256
 150 178 153 172 156 164 c 257
EndSplineSet
EndChar

StartChar: exclamdown
Encoding: 161 161 95
Width: 343
VWidth: 0
Flags: HMW
LayerCount: 2
Fore
SplineSet
265 -230 m 257
 78 -230 l 257
 111 240 l 257
 233 240 l 257
 265 -230 l 257
266 409 m 256
 266 359 227 323 172 323 c 256
 117 323 78 359 78 409 c 256
 78 459 117 495 172 495 c 256
 227 495 266 459 266 409 c 256
EndSplineSet
EndChar

StartChar: cent
Encoding: 162 162 96
Width: 580
VWidth: 0
Flags: HMW
LayerCount: 2
Fore
SplineSet
237 38 m 257
 347 38 l 257
 356 -112 l 257
 227 -112 l 257
 237 38 l 257
205 230 m 256
 205 153 263 110 328 110 c 256
 390 110 437 141 464 180 c 257
 464 30 l 257
 432 4 379 -10 316 -10 c 256
 162 -10 50 85 50 230 c 256
 50 375 162 470 316 470 c 256
 379 470 432 455 464 430 c 257
 464 280 l 257
 437 319 390 350 328 350 c 256
 263 350 205 301 205 230 c 256
227 578 m 257
 356 578 l 257
 347 428 l 257
 237 428 l 257
 227 578 l 257
EndSplineSet
EndChar

StartChar: sterling
Encoding: 163 163 97
Width: 611
VWidth: 0
Flags: HMW
LayerCount: 2
Fore
SplineSet
67 370 m 257
 446 370 l 257
 446 270 l 257
 67 270 l 257
 67 370 l 257
434 467 m 257
 430 521 407 576 333 576 c 256
 285 576 243 552 243 495 c 256
 243 410 335 382 335 270 c 256
 335 164 214 70 140 50 c 257
 191 139 l 257
 539 139 l 257
 539 0 l 257
 52 0 l 257
 150 102 189 186 189 286 c 256
 189 380 85 404 85 521 c 256
 85 640 196 710 327 710 c 256
 479 710 566 603 571 517 c 257
 434 467 l 257
EndSplineSet
EndChar

StartChar: currency
Encoding: 164 164 98
Width: 576
VWidth: 0
Flags: HMW
LayerCount: 2
Fore
SplineSet
23 503 m 257
 86 565 l 257
 185 465 l 257
 124 404 l 257
 23 503 l 257
86 35 m 257
 23 97 l 257
 124 196 l 257
 185 135 l 257
 86 35 l 257
454 404 m 257
 392 465 l 257
 492 565 l 257
 553 503 l 257
 454 404 l 257
392 135 m 257
 454 196 l 257
 553 97 l 257
 492 35 l 257
 392 135 l 257
51 300 m 256
 51 439 154 540 289 540 c 256
 424 540 527 439 527 300 c 256
 527 161 424 60 289 60 c 256
 154 60 51 161 51 300 c 256
188 300 m 256
 188 238 230 197 289 197 c 256
 348 197 390 238 390 300 c 256
 390 362 348 403 289 403 c 256
 230 403 188 362 188 300 c 256
EndSplineSet
EndChar

StartChar: yen
Encoding: 165 165 99
Width: 668
VWidth: 0
Flags: HMW
LayerCount: 2
Fore
SplineSet
45 265 m 257
 45 365 l 257
 620 365 l 257
 620 265 l 257
 45 265 l 257
45 115 m 257
 45 215 l 257
 620 215 l 257
 620 115 l 257
 45 115 l 257
471 700 m 257
 664 700 l 257
 421 287 l 257
 421 0 l 257
 248 0 l 257
 248 284 l 257
 3 700 l 257
 197 700 l 257
 333 437 l 257
 471 700 l 257
EndSplineSet
EndChar

StartChar: brokenbar
Encoding: 166 166 100
Width: 352
VWidth: 0
Flags: HMW
LayerCount: 2
Fore
SplineSet
100 695 m 257
 252 695 l 257
 252 430 l 257
 100 430 l 257
 100 695 l 257
252 270 m 257
 252 5 l 257
 100 5 l 257
 100 270 l 257
 252 270 l 257
EndSplineSet
EndChar

StartChar: section
Encoding: 167 167 101
Width: 576
VWidth: 0
Flags: HMW
LayerCount: 2
Fore
SplineSet
400 549 m 257
 373 580 325 599 294 599 c 256
 260 599 243 587 243 569 c 256
 243 543 289 534 343 519 c 256
 419 498 480 451 480 378 c 256
 480 275 376 229 268 229 c 257
 268 271 l 257
 306 277 343 303 343 344 c 256
 343 398 273 416 221 436 c 256
 163 459 99 495 99 578 c 256
 99 674 194 724 284 724 c 256
 364 724 443 689 471 648 c 257
 400 549 l 257
128 173 m 257
 177 123 240 102 278 102 c 256
 316 102 333 116 333 137 c 256
 333 168 290 180 235 195 c 256
 160 216 84 257 84 334 c 256
 84 429 189 480 303 480 c 257
 303 442 l 257
 262 428 226 410 226 369 c 256
 226 309 306 299 357 278 c 256
 422 251 484 209 484 130 c 256
 484 25 384 -22 285 -22 c 256
 175 -22 100 20 55 76 c 257
 128 173 l 257
EndSplineSet
EndChar

StartChar: dieresis
Encoding: 168 168 102
Width: 510
VWidth: 0
Flags: HMW
LayerCount: 2
Fore
SplineSet
289 632 m 256
 289 680 328 714 377 714 c 256
 426 714 465 680 465 632 c 256
 465 584 426 550 377 550 c 256
 328 550 289 584 289 632 c 256
46 632 m 256
 46 680 85 714 134 714 c 256
 183 714 222 680 222 632 c 256
 222 584 183 550 134 550 c 256
 85 550 46 584 46 632 c 256
EndSplineSet
EndChar

StartChar: copyright
Encoding: 169 169 103
Width: 800
VWidth: 0
Flags: HMW
LayerCount: 2
Fore
SplineSet
289 350 m 256
 289 272 345 227 415 227 c 256
 474 227 513 252 540 282 c 257
 540 173 l 257
 506 147 470 130 409 130 c 256
 274 130 178 219 178 350 c 256
 178 481 274 570 409 570 c 256
 470 570 506 553 540 527 c 257
 540 418 l 257
 513 448 474 473 415 473 c 256
 345 473 289 428 289 350 c 256
95 350 m 256
 95 172 227 40 400 40 c 256
 573 40 705 172 705 350 c 256
 705 528 573 660 400 660 c 256
 227 660 95 528 95 350 c 256
40 350 m 256
 40 559 196 710 400 710 c 256
 604 710 760 559 760 350 c 256
 760 141 604 -10 400 -10 c 256
 196 -10 40 141 40 350 c 256
EndSplineSet
EndChar

StartChar: registered
Encoding: 174 174 104
Width: 800
VWidth: 0
Flags: HMW
LayerCount: 2
Fore
SplineSet
377 328 m 257
 470 328 l 257
 589 150 l 257
 470 150 l 257
 377 328 l 257
254 570 m 257
 355 570 l 257
 355 150 l 257
 254 150 l 257
 254 570 l 257
317 484 m 257
 317 570 l 257
 407 570 l 258
 514 570 570 514 570 439 c 256
 570 358 514 302 407 302 c 258
 317 302 l 257
 317 380 l 257
 399 380 l 258
 440 380 465 398 465 433 c 256
 465 468 440 485 399 485 c 258
 317 484 l 257
95 350 m 256
 95 172 227 40 400 40 c 256
 573 40 705 172 705 350 c 256
 705 528 573 660 400 660 c 256
 227 660 95 528 95 350 c 256
40 350 m 256
 40 559 196 710 400 710 c 256
 604 710 760 559 760 350 c 256
 760 141 604 -10 400 -10 c 256
 196 -10 40 141 40 350 c 256
EndSplineSet
EndChar

StartChar: ordfeminine
Encoding: 170 170 105
Width: 270
VWidth: 0
Flags: HMW
LayerCount: 2
Fore
SplineSet
94 530 m 256
 94 514 106 505 127 505 c 256
 153 505 178 516 178 553 c 257
 186 525 l 257
 186 481 149 455 101 455 c 256
 53 455 18 482 18 528 c 256
 18 574 61 603 117 603 c 256
 152 603 184 589 194 579 c 257
 194 543 l 257
 177 556 160 563 134 563 c 256
 110 563 94 548 94 530 c 256
64 625 m 257
 38 679 l 257
 64 691 102 705 144 705 c 256
 206 705 250 679 250 631 c 258
 250 460 l 257
 178 460 l 257
 178 611 l 258
 178 631 162 645 137 645 c 256
 104 645 75 632 64 625 c 257
EndSplineSet
EndChar

StartChar: ordmasculine
Encoding: 186 186 106
Width: 278
VWidth: 0
Flags: HMW
LayerCount: 2
Fore
SplineSet
19 580 m 256
 19 652 75 700 150 700 c 256
 225 700 282 652 282 580 c 256
 282 508 225 460 150 460 c 256
 75 460 19 508 19 580 c 256
96 580 m 256
 96 544 120 523 150 523 c 256
 180 523 204 544 204 580 c 256
 204 616 180 638 150 638 c 256
 120 638 96 616 96 580 c 256
EndSplineSet
EndChar

StartChar: guillemotleft
Encoding: 171 171 107
Width: 541
VWidth: 0
Flags: HMW
LayerCount: 2
Fore
SplineSet
352 259 m 257
 502 65 l 257
 409 1 l 257
 231 255 l 257
 409 509 l 257
 502 445 l 257
 352 259 l 257
148 259 m 257
 299 65 l 257
 205 1 l 257
 28 255 l 257
 205 509 l 257
 299 445 l 257
 148 259 l 257
EndSplineSet
EndChar

StartChar: guillemotright
Encoding: 187 187 108
Width: 541
VWidth: 0
Flags: HMW
LayerCount: 2
Fore
SplineSet
189 251 m 257
 39 445 l 257
 132 509 l 257
 310 255 l 257
 132 1 l 257
 39 65 l 257
 189 251 l 257
393 251 m 257
 242 445 l 257
 336 509 l 257
 513 255 l 257
 336 1 l 257
 242 65 l 257
 393 251 l 257
EndSplineSet
EndChar

StartChar: uni00AD
Encoding: 173 173 109
Width: 210
VWidth: 0
Flags: HMW
LayerCount: 2
Fore
SplineSet
5 200 m 257
 5 275 l 257
 205 275 l 257
 205 200 l 257
 5 200 l 257
EndSplineSet
EndChar

StartChar: logicalnot
Encoding: 172 172 110
Width: 650
VWidth: 0
Flags: HMW
LayerCount: 2
Fore
SplineSet
65 272 m 257
 65 403 l 257
 585 403 l 257
 585 175 l 257
 479 175 l 257
 479 272 l 257
 65 272 l 257
EndSplineSet
EndChar

StartChar: macron
Encoding: 175 175 111
Width: 531
VWidth: 0
Flags: HMW
LayerCount: 2
Fore
SplineSet
80 572 m 257
 80 703 l 257
 452 703 l 257
 452 572 l 257
 80 572 l 257
EndSplineSet
EndChar

StartChar: degree
Encoding: 176 176 112
Width: 296
VWidth: 0
Flags: HMW
LayerCount: 2
Fore
SplineSet
17 597 m 256
 17 669 73 720 148 720 c 256
 223 720 280 669 280 597 c 256
 280 525 223 474 148 474 c 256
 73 474 17 525 17 597 c 256
91 597 m 256
 91 561 115 538 148 538 c 256
 181 538 205 561 205 597 c 256
 205 633 181 656 148 656 c 256
 115 656 91 633 91 597 c 256
EndSplineSet
EndChar

StartChar: plusminus
Encoding: 177 177 113
Width: 633
VWidth: 0
Flags: HMW
LayerCount: 2
Fore
SplineSet
65 6 m 257
 65 136 l 257
 569 136 l 257
 569 6 l 257
 65 6 l 257
65 333 m 257
 65 468 l 257
 569 468 l 257
 569 333 l 257
 65 333 l 257
240 620 m 257
 393 620 l 257
 393 181 l 257
 240 181 l 257
 240 620 l 257
EndSplineSet
EndChar

StartChar: uni00B2
Encoding: 178 178 114
Width: 408
VWidth: 0
Flags: HMW
LayerCount: 2
Fore
SplineSet
25 282 m 257
 212 476 l 258
 246 512 266 537 266 570 c 256
 266 597 249 624 210 624 c 256
 171 624 145 592 145 547 c 257
 45 547 l 257
 45 636 104 711 213 711 c 256
 317 711 370 640 370 575 c 256
 370 530 346 493 310 462 c 258
 212 375 l 257
 381 375 l 257
 381 282 l 257
 25 282 l 257
EndSplineSet
EndChar

StartChar: uni00B3
Encoding: 179 179 115
Width: 364
VWidth: 0
Flags: HMW
LayerCount: 2
Fore
SplineSet
154 483 m 257
 154 529 l 257
 201 529 232 555 232 586 c 256
 232 611 216 627 184 627 c 256
 152 627 129 607 129 577 c 257
 36 577 l 257
 36 651 95 708 184 708 c 256
 278 708 332 657 332 592 c 256
 332 520 254 483 154 483 c 257
179 270 m 256
 78 270 18 339 18 413 c 257
 118 413 l 257
 118 371 148 352 183 352 c 256
 218 352 244 367 244 404 c 256
 244 439 215 464 154 464 c 257
 154 515 l 257
 265 515 344 480 344 395 c 256
 344 322 282 270 179 270 c 256
EndSplineSet
EndChar

StartChar: acute
Encoding: 180 180 116
Width: 375
VWidth: 0
Flags: HMW
LayerCount: 2
Fore
SplineSet
319 654 m 257
 139 504 l 257
 53 546 l 257
 203 706 l 257
 319 654 l 257
EndSplineSet
EndChar

StartChar: mu
Encoding: 181 181 117
Width: 574
VWidth: 0
Flags: HMW
LayerCount: 2
Fore
SplineSet
364 0 m 257
 364 460 l 257
 515 460 l 257
 515 0 l 257
 364 0 l 257
217 180 m 258
 217 126 234 95 284 95 c 256
 332 95 364 126 364 180 c 257
 394 186 l 257
 394 77 338 -11 224 -11 c 256
 110 -11 60 51 60 164 c 258
 60 460 l 257
 217 460 l 257
 217 180 l 258
60 460 m 257
 205 460 l 257
 205 -320 l 257
 60 -320 l 257
 60 460 l 257
EndSplineSet
EndChar

StartChar: paragraph
Encoding: 182 182 118
Width: 671
VWidth: 0
Flags: HMW
LayerCount: 2
Fore
SplineSet
288 607 m 257
 288 700 l 257
 519 700 l 257
 519 607 l 257
 288 607 l 257
479 700 m 257
 611 700 l 257
 611 -220 l 257
 479 -220 l 257
 479 700 l 257
288 700 m 257
 420 700 l 257
 420 -220 l 257
 288 -220 l 257
 288 700 l 257
288 270 m 257
 163 270 60 346 60 485 c 256
 60 624 163 700 288 700 c 257
 288 270 l 257
EndSplineSet
EndChar

StartChar: periodcentered
Encoding: 183 183 119
Width: 322
VWidth: 0
Flags: HMW
LayerCount: 2
Fore
SplineSet
67 268 m 256
 67 318 106 360 161 360 c 256
 216 360 255 318 255 268 c 256
 255 218 216 176 161 176 c 256
 106 176 67 218 67 268 c 256
EndSplineSet
EndChar

StartChar: uni00B9
Encoding: 185 185 120
Width: 482
VWidth: 0
Flags: HMW
LayerCount: 2
Fore
SplineSet
133 573 m 257
 133 661 l 257
 335 702 l 257
 335 274 l 257
 238 274 l 257
 238 599 l 257
 133 573 l 257
EndSplineSet
EndChar

StartChar: cedilla
Encoding: 184 184 121
Width: 393
VWidth: 0
Flags: HMW
LayerCount: 2
Fore
SplineSet
184 71 m 257
 294 67 l 257
 207 -54 l 257
 218 -51 231 -51 244 -51 c 256
 284 -51 335 -82 335 -148 c 256
 335 -220 267 -257 204 -257 c 256
 148 -257 107 -248 60 -218 c 257
 106 -149 l 257
 131 -167 164 -175 184 -175 c 256
 218 -175 238 -164 238 -140 c 256
 238 -114 209 -107 178 -107 c 256
 168 -107 131 -110 96 -124 c 257
 184 71 l 257
EndSplineSet
EndChar

StartChar: questiondown
Encoding: 191 191 122
Width: 626
VWidth: 0
Flags: HMW
LayerCount: 2
Fore
SplineSet
206 200 m 256
 206 142 248 108 319 108 c 256
 380 108 440 139 477 195 c 257
 579 111 l 257
 508 29 428 -19 309 -19 c 256
 178 -19 54 62 54 200 c 256
 54 322 161 397 268 415 c 257
 273 499 l 257
 395 499 l 257
 415 321 l 257
 383 321 l 258
 263 321 206 251 206 200 c 256
427 641 m 256
 427 597 388 558 333 558 c 256
 278 558 239 597 239 641 c 256
 239 685 278 724 333 724 c 256
 388 724 427 685 427 641 c 256
EndSplineSet
EndChar

StartChar: multiply
Encoding: 215 215 123
Width: 596
VWidth: 0
Flags: HMW
LayerCount: 2
Fore
SplineSet
140 3 m 257
 46 97 l 257
 209 255 l 257
 46 413 l 257
 140 507 l 257
 298 344 l 257
 456 507 l 257
 550 413 l 257
 387 255 l 257
 550 97 l 257
 456 3 l 257
 298 166 l 257
 140 3 l 257
EndSplineSet
EndChar

StartChar: Oslash
Encoding: 216 216 124
Width: 790
VWidth: 0
Flags: HMW
LayerCount: 2
Fore
SplineSet
212 350 m 256
 212 223 291 139 410 139 c 256
 529 139 609 223 609 350 c 256
 609 477 529 561 410 561 c 256
 291 561 212 477 212 350 c 256
34 350 m 256
 34 566 194 716 410 716 c 256
 626 716 787 566 787 350 c 256
 787 134 626 -22 410 -22 c 256
 194 -22 34 134 34 350 c 256
697 756 m 257
 769 704 l 257
 120 -56 l 257
 49 -4 l 257
 697 756 l 257
EndSplineSet
EndChar

StartChar: Thorn
Encoding: 222 222 125
Width: 612
VWidth: 0
Flags: HMW
LayerCount: 2
Fore
SplineSet
80 700 m 257
 227 700 l 257
 227 0 l 257
 80 0 l 257
 80 700 l 257
174 446 m 257
 174 579 l 257
 310 579 l 258
 488 579 582 494 582 353 c 256
 582 212 488 128 310 128 c 258
 174 128 l 257
 174 260 l 257
 310 260 l 258
 387 260 432 286 432 353 c 256
 432 420 387 446 310 446 c 258
 174 446 l 257
EndSplineSet
EndChar

StartChar: divide
Encoding: 247 247 126
Width: 639
VWidth: 0
Flags: HMW
LayerCount: 2
Fore
SplineSet
225 552 m 256
 225 602 264 644 319 644 c 256
 374 644 413 602 413 552 c 256
 413 502 374 460 319 460 c 256
 264 460 225 502 225 552 c 256
225 98 m 256
 225 148 264 190 319 190 c 256
 374 190 413 148 413 98 c 256
 413 48 374 6 319 6 c 256
 264 6 225 48 225 98 c 256
26 259 m 257
 26 395 l 257
 613 395 l 257
 613 259 l 257
 26 259 l 257
EndSplineSet
EndChar

StartChar: oslash
Encoding: 248 248 127
Width: 546
VWidth: 0
Flags: HMW
LayerCount: 2
Fore
SplineSet
32 230 m 256
 32 381 148 470 295 470 c 256
 442 470 558 381 558 230 c 256
 558 79 442 -10 295 -10 c 256
 148 -10 32 79 32 230 c 256
175 230 m 256
 175 153 230 108 295 108 c 256
 360 108 414 153 414 230 c 256
 414 301 360 352 295 352 c 256
 230 352 175 301 175 230 c 256
456 506 m 257
 513 474 l 257
 123 -50 l 257
 66 -18 l 257
 456 506 l 257
EndSplineSet
EndChar

StartChar: circumflex
Encoding: 710 710 128
Width: 480
VWidth: 0
Flags: HMW
LayerCount: 2
Fore
SplineSet
240 630 m 257
 149 544 l 257
 43 615 l 257
 240 755 l 257
 437 615 l 257
 331 544 l 257
 240 630 l 257
EndSplineSet
EndChar

StartChar: ogonek
Encoding: 731 731 129
Width: 260
VWidth: 0
Flags: HMW
LayerCount: 2
Fore
SplineSet
194 -111 m 257
 227 -180 l 257
 212 -200 182 -220 127 -220 c 256
 62 -220 10 -185 10 -120 c 256
 10 -55 78 -11 148 25 c 257
 189 0 l 257
 137 -28 108 -63 108 -94 c 256
 108 -119 120 -131 144 -131 c 256
 164 -131 180 -124 194 -111 c 257
EndSplineSet
EndChar

StartChar: tilde
Encoding: 732 732 130
Width: 530
VWidth: 0
Flags: HMW
LayerCount: 2
Fore
SplineSet
75 637 m 257
 85 686 131 732 195 732 c 256
 261 732 275 680 331 680 c 256
 356 680 376 701 396 733 c 257
 467 659 l 257
 451 622 395 573 333 573 c 256
 278 573 243 627 194 627 c 256
 156 627 147 591 147 576 c 257
 75 637 l 257
EndSplineSet
EndChar

StartChar: ring
Encoding: 730 730 131
Width: 327
VWidth: 0
Flags: HMW
LayerCount: 2
Fore
SplineSet
39 770 m 256
 39 839 94 885 163 885 c 256
 232 885 289 839 289 770 c 256
 289 701 232 654 163 654 c 256
 94 654 39 701 39 770 c 256
117 770 m 256
 117 740 138 722 163 722 c 256
 188 722 210 740 210 770 c 256
 210 800 188 818 163 818 c 256
 138 818 117 800 117 770 c 256
EndSplineSet
EndChar

StartChar: dotaccent
Encoding: 729 729 132
Width: 300
VWidth: 0
Flags: HMW
LayerCount: 2
Fore
SplineSet
62 813 m 256
 62 861 101 895 150 895 c 256
 199 895 238 861 238 813 c 256
 238 765 199 731 150 731 c 256
 101 731 62 765 62 813 c 256
EndSplineSet
EndChar

StartChar: uni2010
Encoding: 8208 8208 133
Width: 222
VWidth: 0
Flags: HMW
LayerCount: 2
Fore
SplineSet
5 172 m 257
 5 303 l 257
 217 303 l 257
 217 172 l 257
 5 172 l 257
EndSplineSet
EndChar

StartChar: endash
Encoding: 8211 8211 134
Width: 783
VWidth: 0
Flags: HMW
LayerCount: 2
Fore
SplineSet
70 172 m 257
 70 303 l 257
 707 303 l 257
 707 172 l 257
 70 172 l 257
EndSplineSet
EndChar

StartChar: figuredash
Encoding: 8210 8210 135
Width: 627
VWidth: 0
Flags: HMW
LayerCount: 2
Fore
SplineSet
70 172 m 257
 70 303 l 257
 548 303 l 257
 548 172 l 257
 70 172 l 257
EndSplineSet
EndChar

StartChar: emdash
Encoding: 8212 8212 136
Width: 939
VWidth: 0
Flags: HMW
LayerCount: 2
Fore
SplineSet
70 172 m 257
 70 303 l 257
 866 303 l 257
 866 172 l 257
 70 172 l 257
EndSplineSet
EndChar

StartChar: minus
Encoding: 8722 8722 137
Width: 593
VWidth: 0
Flags: HMW
LayerCount: 2
Fore
SplineSet
58 172 m 257
 58 303 l 257
 536 303 l 257
 536 172 l 257
 58 172 l 257
EndSplineSet
EndChar

StartChar: quoteright
Encoding: 8217 8217 138
Width: 330
VWidth: 0
Flags: HMW
LayerCount: 2
Fore
SplineSet
104 700 m 257
 261 700 l 257
 158 445 l 257
 50 445 l 257
 104 700 l 257
EndSplineSet
EndChar

StartChar: quoteleft
Encoding: 8216 8216 139
Width: 330
VWidth: 0
Flags: HMW
LayerCount: 2
Fore
SplineSet
227 445 m 257
 70 445 l 257
 173 700 l 257
 281 700 l 257
 227 445 l 257
EndSplineSet
EndChar

StartChar: quotesinglbase
Encoding: 8218 8218 140
Width: 330
VWidth: 0
Flags: HMW
LayerCount: 2
Fore
SplineSet
114 80 m 257
 271 80 l 257
 168 -175 l 257
 60 -175 l 257
 114 80 l 257
EndSplineSet
EndChar

StartChar: quotedblleft
Encoding: 8220 8220 141
Width: 561
VWidth: 0
Flags: HMW
LayerCount: 2
Fore
SplineSet
227 445 m 257
 70 445 l 257
 173 700 l 257
 281 700 l 257
 227 445 l 257
458 445 m 257
 301 445 l 257
 404 700 l 257
 512 700 l 257
 458 445 l 257
EndSplineSet
EndChar

StartChar: quotedblright
Encoding: 8221 8221 142
Width: 561
VWidth: 0
Flags: HMW
LayerCount: 2
Fore
SplineSet
104 700 m 257
 261 700 l 257
 158 445 l 257
 50 445 l 257
 104 700 l 257
335 700 m 257
 492 700 l 257
 389 445 l 257
 281 445 l 257
 335 700 l 257
EndSplineSet
EndChar

StartChar: perthousand
Encoding: 8240 8240 143
Width: 1372
VWidth: 0
Flags: HMW
LayerCount: 2
Fore
SplineSet
972 166 m 256
 972 268 1054 351 1161 351 c 256
 1268 351 1350 268 1350 166 c 256
 1350 64 1268 -19 1161 -19 c 256
 1054 -19 972 64 972 166 c 256
1097 166 m 256
 1097 130 1123 100 1161 100 c 256
 1199 100 1226 130 1226 166 c 256
 1226 202 1199 233 1161 233 c 256
 1123 233 1097 202 1097 166 c 256
23 534 m 256
 23 636 105 719 212 719 c 256
 319 719 401 636 401 534 c 256
 401 432 319 350 212 350 c 256
 105 350 23 432 23 534 c 256
147 534 m 256
 147 498 174 468 212 468 c 256
 250 468 276 498 276 534 c 256
 276 570 250 601 212 601 c 256
 174 601 147 570 147 534 c 256
518 166 m 256
 518 268 600 351 707 351 c 256
 814 351 896 268 896 166 c 256
 896 64 814 -19 707 -19 c 256
 600 -19 518 64 518 166 c 256
642 166 m 256
 642 130 669 100 707 100 c 256
 745 100 771 130 771 166 c 256
 771 202 745 233 707 233 c 256
 669 233 642 202 642 166 c 256
650 700 m 257
 805 700 l 257
 269 0 l 257
 113 0 l 257
 650 700 l 257
EndSplineSet
EndChar

StartChar: guilsinglleft
Encoding: 8249 8249 144
Width: 350
VWidth: 0
Flags: HMW
LayerCount: 2
Fore
SplineSet
148 259 m 257
 299 65 l 257
 205 1 l 257
 28 255 l 257
 205 509 l 257
 299 445 l 257
 148 259 l 257
EndSplineSet
EndChar

StartChar: guilsinglright
Encoding: 8250 8250 145
Width: 350
VWidth: 0
Flags: HMW
LayerCount: 2
Fore
SplineSet
202 251 m 257
 51 445 l 257
 145 509 l 257
 322 255 l 257
 145 1 l 257
 51 65 l 257
 202 251 l 257
EndSplineSet
EndChar

StartChar: uni2031
Encoding: 8241 8241 146
Width: 1827
VWidth: 0
Flags: HMW
LayerCount: 2
Fore
SplineSet
1427 166 m 256
 1427 268 1509 351 1616 351 c 256
 1723 351 1805 268 1805 166 c 256
 1805 64 1723 -19 1616 -19 c 256
 1509 -19 1427 64 1427 166 c 256
1551 166 m 256
 1551 130 1578 100 1616 100 c 256
 1654 100 1680 130 1680 166 c 256
 1680 202 1654 233 1616 233 c 256
 1578 233 1551 202 1551 166 c 256
972 166 m 256
 972 268 1054 351 1161 351 c 256
 1268 351 1350 268 1350 166 c 256
 1350 64 1268 -19 1161 -19 c 256
 1054 -19 972 64 972 166 c 256
1097 166 m 256
 1097 130 1123 100 1161 100 c 256
 1199 100 1226 130 1226 166 c 256
 1226 202 1199 233 1161 233 c 256
 1123 233 1097 202 1097 166 c 256
23 534 m 256
 23 636 105 719 212 719 c 256
 319 719 401 636 401 534 c 256
 401 432 319 350 212 350 c 256
 105 350 23 432 23 534 c 256
147 534 m 256
 147 498 174 468 212 468 c 256
 250 468 276 498 276 534 c 256
 276 570 250 601 212 601 c 256
 174 601 147 570 147 534 c 256
518 166 m 256
 518 268 600 351 707 351 c 256
 814 351 896 268 896 166 c 256
 896 64 814 -19 707 -19 c 256
 600 -19 518 64 518 166 c 256
642 166 m 256
 642 130 669 100 707 100 c 256
 745 100 771 130 771 166 c 256
 771 202 745 233 707 233 c 256
 669 233 642 202 642 166 c 256
650 700 m 257
 805 700 l 257
 269 0 l 257
 113 0 l 257
 650 700 l 257
EndSplineSet
EndChar

StartChar: uni203D
Encoding: 8253 8253 147
Width: 626
VWidth: 0
Flags: HMW
LayerCount: 2
Fore
SplineSet
434 481 m 256
 434 555 381 592 300 592 c 256
 239 592 181 567 150 505 c 257
 48 589 l 257
 94 659 191 718 316 718 c 256
 447 718 573 638 573 500 c 256
 573 350 409 278 294 278 c 257
 275 348 l 257
 358 348 434 405 434 481 c 256
216 504 m 257
 360 504 l 257
 333 201 l 257
 243 201 l 257
 216 504 l 257
198 62 m 256
 198 111 238 148 293 148 c 256
 348 148 389 111 389 62 c 256
 389 13 348 -24 293 -24 c 256
 238 -24 198 13 198 62 c 256
EndSplineSet
EndChar

StartChar: Euro
Encoding: 8364 8364 148
Width: 654
VWidth: 0
Flags: HMW
LayerCount: 2
Fore
SplineSet
53 382 m 257
 53 466 l 257
 545 466 l 257
 545 382 l 257
 53 382 l 257
40 250 m 257
 40 334 l 257
 525 334 l 257
 525 250 l 257
 40 250 l 257
248 350 m 256
 248 199 316 120 413 120 c 256
 470 120 522 142 563 182 c 257
 563 22 l 257
 518 -4 467 -19 413 -19 c 256
 220 -19 101 141 101 350 c 256
 101 559 220 720 413 720 c 256
 467 720 518 705 563 679 c 257
 563 518 l 257
 522 558 470 580 413 580 c 256
 316 580 248 501 248 350 c 256
EndSplineSet
EndChar

StartChar: fraction
Encoding: 8260 8260 149
Width: 729
VWidth: 0
Flags: HMW
LayerCount: 2
Fore
SplineSet
580 700 m 257
 701 700 l 257
 181 0 l 257
 60 0 l 257
 580 700 l 257
EndSplineSet
EndChar

StartChar: onequarter
Encoding: 188 188 150
Width: 822
VWidth: 0
Flags: HMW
LayerCount: 2
Fore
SplineSet
630 700 m 257
 726 700 l 257
 206 0 l 257
 110 0 l 257
 630 700 l 257
24 573 m 257
 24 661 l 257
 225 702 l 257
 225 274 l 257
 128 274 l 257
 128 599 l 257
 24 573 l 257
407 75 m 257
 490 148 l 257
 675 148 l 256
 685 161 l 256
 792 161 l 257
 792 75 l 257
 407 75 l 257
509 104 m 257
 407 75 l 257
 651 420 l 257
 726 420 l 257
 726 0 l 257
 621 0 l 257
 621 97 l 256
 632 103 l 256
 632 274 l 257
 509 104 l 257
EndSplineSet
EndChar

StartChar: onehalf
Encoding: 189 189 151
Width: 893
VWidth: 0
Flags: HMW
LayerCount: 2
Fore
SplineSet
630 700 m 257
 726 700 l 257
 206 0 l 257
 110 0 l 257
 630 700 l 257
24 573 m 257
 24 661 l 257
 225 702 l 257
 225 274 l 257
 128 274 l 257
 128 599 l 257
 24 573 l 257
505 2 m 257
 693 196 l 258
 727 232 747 257 747 290 c 256
 747 317 730 344 691 344 c 256
 652 344 625 312 625 267 c 257
 526 267 l 257
 526 356 585 431 694 431 c 256
 798 431 851 360 851 295 c 256
 851 250 827 213 791 182 c 258
 693 95 l 257
 861 95 l 257
 861 2 l 257
 505 2 l 257
EndSplineSet
EndChar

StartChar: threequarters
Encoding: 190 190 152
Width: 878
VWidth: 0
Flags: HMW
LayerCount: 2
Fore
SplineSet
694 700 m 257
 790 700 l 257
 270 0 l 257
 174 0 l 257
 694 700 l 257
162 483 m 257
 162 529 l 257
 209 529 240 555 240 586 c 256
 240 611 224 627 192 627 c 256
 160 627 137 607 137 577 c 257
 44 577 l 257
 44 651 103 708 192 708 c 256
 286 708 340 657 340 592 c 256
 340 520 262 483 162 483 c 257
188 270 m 256
 87 270 26 339 26 413 c 257
 126 413 l 257
 126 371 156 352 191 352 c 256
 226 352 252 367 252 404 c 256
 252 439 223 464 162 464 c 257
 162 515 l 257
 273 515 352 480 352 395 c 256
 352 322 291 270 188 270 c 256
464 75 m 257
 547 148 l 257
 733 148 l 256
 743 161 l 256
 849 161 l 257
 849 75 l 257
 464 75 l 257
567 104 m 257
 464 75 l 257
 709 420 l 257
 783 420 l 257
 783 0 l 257
 679 0 l 257
 679 97 l 256
 690 103 l 256
 690 274 l 257
 567 104 l 257
EndSplineSet
EndChar

StartChar: uni2150
Encoding: 8528 8528 153
Width: 941
VWidth: 0
Flags: HMW
LayerCount: 2
Fore
SplineSet
605 700 m 257
 726 700 l 257
 206 0 l 257
 85 0 l 257
 605 700 l 257
24 573 m 257
 24 661 l 257
 225 702 l 257
 225 274 l 257
 128 274 l 257
 128 599 l 257
 24 573 l 257
577 326 m 257
 577 420 l 257
 919 420 l 257
 716 0 l 257
 608 0 l 257
 771 326 l 257
 577 326 l 257
EndSplineSet
EndChar

StartChar: uni2151
Encoding: 8529 8529 154
Width: 883
VWidth: 0
Flags: HMW
LayerCount: 2
Fore
SplineSet
599 700 m 257
 720 700 l 257
 200 0 l 257
 79 0 l 257
 599 700 l 257
24 573 m 257
 24 661 l 257
 225 702 l 257
 225 274 l 257
 128 274 l 257
 128 599 l 257
 24 573 l 257
760 275 m 256
 760 318 730 345 690 345 c 256
 650 345 619 318 619 275 c 256
 619 232 650 203 690 203 c 256
 730 203 760 232 760 275 c 256
691 4 m 257
 562 4 l 257
 698 156 l 257
 719 165 l 257
 697 143 679 138 649 138 c 256
 587 138 519 191 519 275 c 256
 519 378 596 432 690 432 c 256
 784 432 861 378 861 275 c 256
 861 230 839 192 812 158 c 258
 691 4 l 257
EndSplineSet
EndChar

StartChar: uni2152
Encoding: 8530 8530 155
Width: 1210
VWidth: 0
Flags: HMW
LayerCount: 2
Fore
SplineSet
599 700 m 257
 720 700 l 257
 200 0 l 257
 79 0 l 257
 599 700 l 257
24 573 m 257
 24 661 l 257
 225 702 l 257
 225 274 l 257
 128 274 l 257
 128 599 l 257
 24 573 l 257
550 300 m 257
 550 388 l 257
 752 429 l 257
 752 1 l 257
 654 1 l 257
 654 326 l 257
 550 300 l 257
925 210 m 256
 925 131 956 79 1002 79 c 256
 1048 79 1080 131 1080 210 c 256
 1080 289 1048 341 1002 341 c 256
 956 341 925 289 925 210 c 256
828 210 m 256
 828 346 899 428 1002 428 c 256
 1109 428 1177 346 1177 210 c 256
 1177 74 1109 -8 1002 -8 c 256
 899 -8 828 74 828 210 c 256
EndSplineSet
EndChar

StartChar: onethird
Encoding: 8531 8531 156
Width: 872
VWidth: 0
Flags: HMW
LayerCount: 2
Fore
SplineSet
598 700 m 257
 719 700 l 257
 199 0 l 257
 78 0 l 257
 598 700 l 257
24 573 m 257
 24 661 l 257
 225 702 l 257
 225 274 l 257
 128 274 l 257
 128 599 l 257
 24 573 l 257
658 203 m 257
 658 249 l 257
 705 249 736 275 736 306 c 256
 736 331 720 347 688 347 c 256
 656 347 634 327 634 297 c 257
 540 297 l 257
 540 371 600 428 689 428 c 256
 783 428 836 377 836 312 c 256
 836 240 758 203 658 203 c 257
684 -10 m 256
 583 -10 522 59 522 133 c 257
 622 133 l 257
 622 91 653 72 688 72 c 256
 723 72 748 87 748 124 c 256
 748 159 719 184 658 184 c 257
 658 235 l 257
 769 235 848 200 848 115 c 256
 848 42 787 -10 684 -10 c 256
EndSplineSet
EndChar

StartChar: twothirds
Encoding: 8532 8532 157
Width: 1006
VWidth: 0
Flags: HMW
LayerCount: 2
Fore
SplineSet
745 700 m 257
 865 700 l 257
 345 0 l 257
 225 0 l 257
 745 700 l 257
30 282 m 257
 217 476 l 258
 251 512 271 537 271 570 c 256
 271 597 254 624 215 624 c 256
 176 624 150 592 150 547 c 257
 50 547 l 257
 50 636 109 711 218 711 c 256
 322 711 375 640 375 575 c 256
 375 530 351 493 315 462 c 258
 217 375 l 257
 386 375 l 257
 386 282 l 257
 30 282 l 257
792 203 m 257
 792 249 l 257
 839 249 869 275 869 306 c 256
 869 331 853 347 821 347 c 256
 789 347 767 327 767 297 c 257
 673 297 l 257
 673 371 733 428 822 428 c 256
 916 428 969 377 969 312 c 256
 969 240 892 203 792 203 c 257
817 -10 m 256
 716 -10 655 59 655 133 c 257
 755 133 l 257
 755 91 786 72 821 72 c 256
 856 72 881 87 881 124 c 256
 881 159 853 184 792 184 c 257
 792 235 l 257
 903 235 981 200 981 115 c 256
 981 42 920 -10 817 -10 c 256
EndSplineSet
EndChar

StartChar: uni2155
Encoding: 8533 8533 158
Width: 861
VWidth: 0
Flags: HMW
LayerCount: 2
Fore
SplineSet
599 700 m 257
 720 700 l 257
 200 0 l 257
 79 0 l 257
 599 700 l 257
24 573 m 257
 24 661 l 257
 225 702 l 257
 225 274 l 257
 128 274 l 257
 128 599 l 257
 24 573 l 257
839 132 m 256
 839 33 750 -10 669 -10 c 256
 592 -10 541 16 502 45 c 257
 541 129 l 257
 575 100 616 83 647 83 c 256
 698 83 729 102 729 143 c 256
 729 184 688 202 647 202 c 256
 614 202 572 196 529 175 c 257
 600 227 l 257
 632 261 669 270 711 270 c 256
 777 270 839 219 839 132 c 256
662 330 m 257
 627 226 l 257
 529 175 l 257
 588 418 l 257
 830 418 l 257
 830 330 l 257
 662 330 l 257
EndSplineSet
EndChar

StartChar: uni2156
Encoding: 8534 8534 159
Width: 1004
VWidth: 0
Flags: HMW
LayerCount: 2
Fore
SplineSet
745 700 m 257
 865 700 l 257
 345 0 l 257
 225 0 l 257
 745 700 l 257
30 282 m 257
 217 476 l 258
 251 512 271 537 271 570 c 256
 271 597 254 624 215 624 c 256
 176 624 150 592 150 547 c 257
 50 547 l 257
 50 636 109 711 218 711 c 256
 322 711 375 640 375 575 c 256
 375 530 351 493 315 462 c 258
 217 375 l 257
 386 375 l 257
 386 282 l 257
 30 282 l 257
972 132 m 256
 972 33 883 -10 802 -10 c 256
 725 -10 674 16 635 45 c 257
 674 129 l 257
 708 100 749 83 780 83 c 256
 831 83 862 102 862 143 c 256
 862 184 821 202 780 202 c 256
 747 202 706 196 663 175 c 257
 733 227 l 257
 765 261 802 270 844 270 c 256
 910 270 972 219 972 132 c 256
795 330 m 257
 760 226 l 257
 663 175 l 257
 721 418 l 257
 963 418 l 257
 963 330 l 257
 795 330 l 257
EndSplineSet
EndChar

StartChar: uni2157
Encoding: 8535 8535 160
Width: 930
VWidth: 0
Flags: HMW
LayerCount: 2
Fore
SplineSet
674 700 m 257
 794 700 l 257
 274 0 l 257
 154 0 l 257
 674 700 l 257
159 483 m 257
 159 529 l 257
 206 529 237 555 237 586 c 256
 237 611 221 627 189 627 c 256
 157 627 134 607 134 577 c 257
 41 577 l 257
 41 651 100 708 189 708 c 256
 283 708 337 657 337 592 c 256
 337 520 259 483 159 483 c 257
184 270 m 256
 83 270 23 339 23 413 c 257
 123 413 l 257
 123 371 153 352 188 352 c 256
 223 352 249 367 249 404 c 256
 249 439 220 464 159 464 c 257
 159 515 l 257
 270 515 349 480 349 395 c 256
 349 322 287 270 184 270 c 256
895 132 m 256
 895 33 806 -10 725 -10 c 256
 648 -10 597 16 558 45 c 257
 597 129 l 257
 631 100 672 83 703 83 c 256
 754 83 785 102 785 143 c 256
 785 184 744 202 703 202 c 256
 670 202 628 196 585 175 c 257
 656 227 l 257
 688 261 725 270 767 270 c 256
 833 270 895 219 895 132 c 256
718 330 m 257
 683 226 l 257
 585 175 l 257
 644 418 l 257
 886 418 l 257
 886 330 l 257
 718 330 l 257
EndSplineSet
EndChar

StartChar: uni2158
Encoding: 8536 8536 161
Width: 1014
VWidth: 0
Flags: HMW
LayerCount: 2
Fore
SplineSet
733 699 m 257
 854 699 l 257
 334 -1 l 257
 213 -1 l 257
 733 699 l 257
22 355 m 257
 105 428 l 257
 291 428 l 256
 301 441 l 256
 407 441 l 257
 407 355 l 257
 22 355 l 257
124 384 m 257
 22 355 l 257
 266 700 l 257
 341 700 l 257
 341 280 l 257
 236 280 l 257
 236 377 l 256
 247 383 l 256
 247 554 l 257
 124 384 l 257
985 132 m 256
 985 33 897 -10 816 -10 c 256
 739 -10 687 15 648 44 c 257
 688 128 l 257
 722 99 763 82 794 82 c 256
 845 82 875 102 875 143 c 256
 875 184 835 202 794 202 c 256
 761 202 719 196 676 175 c 257
 747 226 l 257
 779 260 816 269 858 269 c 256
 924 269 985 219 985 132 c 256
809 330 m 257
 774 225 l 257
 676 175 l 257
 734 417 l 257
 977 417 l 257
 977 330 l 257
 809 330 l 257
EndSplineSet
EndChar

StartChar: uni2159
Encoding: 8537 8537 162
Width: 870
VWidth: 0
Flags: HMW
LayerCount: 2
Fore
SplineSet
618 700 m 257
 738 700 l 257
 218 0 l 257
 98 0 l 257
 618 700 l 257
24 573 m 257
 24 661 l 257
 225 702 l 257
 225 274 l 257
 128 274 l 257
 128 599 l 257
 24 573 l 257
601 145 m 256
 601 102 632 75 672 75 c 256
 712 75 742 102 742 145 c 256
 742 188 712 217 672 217 c 256
 632 217 601 188 601 145 c 256
671 416 m 257
 799 416 l 257
 663 264 l 257
 643 255 l 257
 665 277 682 282 712 282 c 256
 774 282 843 229 843 145 c 256
 843 42 766 -12 672 -12 c 256
 578 -12 501 42 501 145 c 256
 501 190 523 228 550 262 c 258
 671 416 l 257
EndSplineSet
EndChar

StartChar: uni215A
Encoding: 8538 8538 163
Width: 930
VWidth: 0
Flags: HMW
LayerCount: 2
Fore
SplineSet
696 700 m 257
 817 700 l 257
 297 0 l 257
 176 0 l 257
 696 700 l 257
367 412 m 256
 367 313 279 270 198 270 c 256
 121 270 69 296 30 325 c 257
 69 409 l 257
 103 380 144 363 175 363 c 256
 226 363 257 382 257 423 c 256
 257 464 216 482 175 482 c 256
 142 482 101 476 58 455 c 257
 128 507 l 257
 160 541 197 550 239 550 c 256
 305 550 367 499 367 412 c 256
190 610 m 257
 155 506 l 257
 58 455 l 257
 116 698 l 257
 358 698 l 257
 358 610 l 257
 190 610 l 257
661 145 m 256
 661 102 692 75 732 75 c 256
 772 75 802 102 802 145 c 256
 802 188 772 217 732 217 c 256
 692 217 661 188 661 145 c 256
731 416 m 257
 859 416 l 257
 723 264 l 257
 703 255 l 257
 725 277 742 282 772 282 c 256
 834 282 903 229 903 145 c 256
 903 42 826 -12 732 -12 c 256
 638 -12 561 42 561 145 c 256
 561 190 583 228 610 262 c 258
 731 416 l 257
EndSplineSet
EndChar

StartChar: oneeighth
Encoding: 8539 8539 164
Width: 890
VWidth: 0
Flags: HMW
LayerCount: 2
Fore
SplineSet
618 700 m 257
 738 700 l 257
 218 0 l 257
 98 0 l 257
 618 700 l 257
24 573 m 257
 24 661 l 257
 225 702 l 257
 225 274 l 257
 128 274 l 257
 128 599 l 257
 24 573 l 257
560 319 m 256
 560 389 626 430 703 430 c 256
 780 430 845 389 845 319 c 256
 845 243 772 206 703 206 c 256
 634 206 560 243 560 319 c 256
656 309 m 256
 656 280 676 261 703 261 c 256
 730 261 749 280 749 309 c 256
 749 338 731 357 703 357 c 256
 675 357 656 338 656 309 c 256
546 114 m 256
 546 202 634 238 703 238 c 256
 772 238 860 202 860 114 c 256
 860 38 785 -10 703 -10 c 256
 621 -10 546 38 546 114 c 256
647 129 m 256
 647 92 672 72 703 72 c 256
 734 72 758 92 758 129 c 256
 758 160 734 184 703 184 c 256
 672 184 647 160 647 129 c 256
EndSplineSet
EndChar

StartChar: threeeighths
Encoding: 8540 8540 165
Width: 952
VWidth: 0
Flags: HMW
LayerCount: 2
Fore
SplineSet
680 700 m 257
 801 700 l 257
 281 0 l 257
 160 0 l 257
 680 700 l 257
159 483 m 257
 159 529 l 257
 206 529 237 555 237 586 c 256
 237 611 221 627 189 627 c 256
 157 627 134 607 134 577 c 257
 41 577 l 257
 41 651 100 708 189 708 c 256
 283 708 337 657 337 592 c 256
 337 520 259 483 159 483 c 257
184 270 m 256
 83 270 23 339 23 413 c 257
 123 413 l 257
 123 371 153 352 188 352 c 256
 223 352 249 367 249 404 c 256
 249 439 220 464 159 464 c 257
 159 515 l 257
 270 515 349 480 349 395 c 256
 349 322 287 270 184 270 c 256
623 319 m 256
 623 389 688 430 765 430 c 256
 842 430 907 389 907 319 c 256
 907 243 834 206 765 206 c 256
 696 206 623 243 623 319 c 256
718 309 m 256
 718 280 738 261 765 261 c 256
 792 261 811 280 811 309 c 256
 811 338 793 357 765 357 c 256
 737 357 718 338 718 309 c 256
608 114 m 256
 608 202 696 238 765 238 c 256
 834 238 922 202 922 114 c 256
 922 38 847 -10 765 -10 c 256
 683 -10 608 38 608 114 c 256
709 129 m 256
 709 92 734 72 765 72 c 256
 796 72 821 92 821 129 c 256
 821 160 796 184 765 184 c 256
 734 184 709 160 709 129 c 256
EndSplineSet
EndChar

StartChar: fiveeighths
Encoding: 8541 8541 166
Width: 968
VWidth: 0
Flags: HMW
LayerCount: 2
Fore
SplineSet
696 700 m 257
 817 700 l 257
 297 0 l 257
 176 0 l 257
 696 700 l 257
361 412 m 256
 361 313 272 270 191 270 c 256
 114 270 63 296 24 325 c 257
 63 409 l 257
 97 380 138 363 169 363 c 256
 220 363 251 382 251 423 c 256
 251 464 210 482 169 482 c 256
 136 482 95 476 52 455 c 257
 122 507 l 257
 154 541 191 550 233 550 c 256
 299 550 361 499 361 412 c 256
184 610 m 257
 149 506 l 257
 52 455 l 257
 110 698 l 257
 352 698 l 257
 352 610 l 257
 184 610 l 257
639 319 m 256
 639 389 704 430 781 430 c 256
 858 430 923 389 923 319 c 256
 923 243 850 206 781 206 c 256
 712 206 639 243 639 319 c 256
735 309 m 256
 735 280 754 261 781 261 c 256
 808 261 828 280 828 309 c 256
 828 338 809 357 781 357 c 256
 753 357 735 338 735 309 c 256
624 114 m 256
 624 202 712 238 781 238 c 256
 850 238 938 202 938 114 c 256
 938 38 863 -10 781 -10 c 256
 699 -10 624 38 624 114 c 256
725 129 m 256
 725 92 750 72 781 72 c 256
 812 72 837 92 837 129 c 256
 837 160 812 184 781 184 c 256
 750 184 725 160 725 129 c 256
EndSplineSet
EndChar

StartChar: seveneighths
Encoding: 8542 8542 167
Width: 858
VWidth: 0
Flags: HMW
LayerCount: 2
Fore
SplineSet
580 700 m 257
 701 700 l 257
 181 0 l 257
 60 0 l 257
 580 700 l 257
23 606 m 257
 23 700 l 257
 366 700 l 257
 163 280 l 257
 54 280 l 257
 217 606 l 257
 23 606 l 257
529 319 m 256
 529 389 594 430 671 430 c 256
 748 430 813 389 813 319 c 256
 813 243 740 206 671 206 c 256
 602 206 529 243 529 319 c 256
625 309 m 256
 625 280 644 261 671 261 c 256
 698 261 718 280 718 309 c 256
 718 338 699 357 671 357 c 256
 643 357 625 338 625 309 c 256
514 114 m 256
 514 202 602 238 671 238 c 256
 740 238 828 202 828 114 c 256
 828 38 753 -10 671 -10 c 256
 589 -10 514 38 514 114 c 256
615 129 m 256
 615 92 640 72 671 72 c 256
 702 72 727 92 727 129 c 256
 727 160 702 184 671 184 c 256
 640 184 615 160 615 129 c 256
EndSplineSet
EndChar

StartChar: uni2074
Encoding: 8308 8308 168
Width: 426
VWidth: 0
Flags: HMW
LayerCount: 2
Fore
SplineSet
16 355 m 257
 99 428 l 257
 284 428 l 256
 294 441 l 256
 401 441 l 257
 401 355 l 257
 16 355 l 257
118 384 m 257
 16 355 l 257
 260 700 l 257
 335 700 l 257
 335 280 l 257
 230 280 l 257
 230 377 l 256
 241 383 l 256
 241 554 l 257
 118 384 l 257
EndSplineSet
EndChar

StartChar: uni2075
Encoding: 8309 8309 169
Width: 387
VWidth: 0
Flags: HMW
LayerCount: 2
Fore
SplineSet
361 412 m 256
 361 313 272 270 191 270 c 256
 114 270 63 296 24 325 c 257
 63 409 l 257
 97 380 138 363 169 363 c 256
 220 363 251 382 251 423 c 256
 251 464 210 482 169 482 c 256
 136 482 95 476 52 455 c 257
 122 507 l 257
 154 541 191 550 233 550 c 256
 299 550 361 499 361 412 c 256
184 610 m 257
 149 506 l 257
 52 455 l 257
 110 698 l 257
 352 698 l 257
 352 610 l 257
 184 610 l 257
EndSplineSet
EndChar

StartChar: uni2076
Encoding: 8310 8310 170
Width: 383
VWidth: 0
Flags: HMW
LayerCount: 2
Fore
SplineSet
122 425 m 256
 122 382 153 355 193 355 c 256
 233 355 264 382 264 425 c 256
 264 468 233 497 193 497 c 256
 153 497 122 468 122 425 c 256
192 696 m 257
 320 696 l 257
 185 544 l 257
 164 535 l 257
 186 557 204 562 234 562 c 256
 296 562 364 509 364 425 c 256
 364 322 287 268 193 268 c 256
 99 268 22 322 22 425 c 256
 22 470 44 508 71 542 c 258
 192 696 l 257
EndSplineSet
EndChar

StartChar: uni2077
Encoding: 8311 8311 171
Width: 378
VWidth: 0
Flags: HMW
LayerCount: 2
Fore
SplineSet
23 606 m 257
 23 700 l 257
 366 700 l 257
 163 280 l 257
 54 280 l 257
 217 606 l 257
 23 606 l 257
EndSplineSet
EndChar

StartChar: uni2078
Encoding: 8312 8312 172
Width: 361
VWidth: 0
Flags: HMW
LayerCount: 2
Fore
SplineSet
38 599 m 256
 38 669 103 710 180 710 c 256
 257 710 322 669 322 599 c 256
 322 523 249 486 180 486 c 256
 111 486 38 523 38 599 c 256
133 589 m 256
 133 560 153 541 180 541 c 256
 207 541 226 560 226 589 c 256
 226 618 208 637 180 637 c 256
 152 637 133 618 133 589 c 256
23 394 m 256
 23 482 111 518 180 518 c 256
 249 518 337 482 337 394 c 256
 337 318 262 270 180 270 c 256
 98 270 23 318 23 394 c 256
124 409 m 256
 124 372 149 352 180 352 c 256
 211 352 236 372 236 409 c 256
 236 440 211 464 180 464 c 256
 149 464 124 440 124 409 c 256
EndSplineSet
EndChar

StartChar: uni2079
Encoding: 8313 8313 173
Width: 380
VWidth: 0
Flags: HMW
LayerCount: 2
Fore
SplineSet
265 555 m 256
 265 598 234 625 194 625 c 256
 154 625 123 598 123 555 c 256
 123 512 154 483 194 483 c 256
 234 483 265 512 265 555 c 256
195 284 m 257
 66 284 l 257
 203 436 l 257
 223 445 l 257
 201 423 183 418 153 418 c 256
 91 418 23 471 23 555 c 256
 23 658 100 712 194 712 c 256
 288 712 365 658 365 555 c 256
 365 510 343 472 316 438 c 258
 195 284 l 257
EndSplineSet
EndChar

StartChar: uni2070
Encoding: 8304 8304 174
Width: 390
VWidth: 0
Flags: HMW
LayerCount: 2
Fore
SplineSet
118 490 m 256
 118 411 149 359 195 359 c 256
 241 359 272 411 272 490 c 256
 272 569 241 621 195 621 c 256
 149 621 118 569 118 490 c 256
21 490 m 256
 21 626 92 708 195 708 c 256
 302 708 370 626 370 490 c 256
 370 354 302 272 195 272 c 256
 92 272 21 354 21 490 c 256
EndSplineSet
EndChar

StartChar: uni2080
Encoding: 8320 8320 175
Width: 390
VWidth: 0
Flags: HMW
LayerCount: 2
Fore
SplineSet
118 210 m 256
 118 131 149 79 195 79 c 256
 241 79 272 131 272 210 c 256
 272 289 241 341 195 341 c 256
 149 341 118 289 118 210 c 256
21 210 m 256
 21 346 92 428 195 428 c 256
 302 428 370 346 370 210 c 256
 370 74 302 -8 195 -8 c 256
 92 -8 21 74 21 210 c 256
EndSplineSet
EndChar

StartChar: uni2084
Encoding: 8324 8324 176
Width: 431
VWidth: 0
Flags: HMW
LayerCount: 2
Fore
SplineSet
14 75 m 257
 97 148 l 257
 283 148 l 256
 293 161 l 256
 400 161 l 257
 400 75 l 257
 14 75 l 257
117 104 m 257
 14 75 l 257
 259 420 l 257
 334 420 l 257
 334 0 l 257
 229 0 l 257
 229 97 l 256
 240 103 l 256
 240 274 l 257
 117 104 l 257
EndSplineSet
EndChar

StartChar: uni2085
Encoding: 8325 8325 177
Width: 395
VWidth: 0
Flags: HMW
LayerCount: 2
Fore
SplineSet
364 132 m 256
 364 33 275 -10 194 -10 c 256
 117 -10 66 16 27 45 c 257
 66 129 l 257
 100 100 141 83 172 83 c 256
 223 83 254 102 254 143 c 256
 254 184 213 202 172 202 c 256
 139 202 98 196 55 175 c 257
 125 227 l 257
 157 261 194 270 236 270 c 256
 302 270 364 219 364 132 c 256
187 330 m 257
 152 226 l 257
 55 175 l 257
 113 418 l 257
 355 418 l 257
 355 330 l 257
 187 330 l 257
EndSplineSet
EndChar

StartChar: uni2086
Encoding: 8326 8326 178
Width: 394
VWidth: 0
Flags: HMW
LayerCount: 2
Fore
SplineSet
126 145 m 256
 126 102 157 75 197 75 c 256
 237 75 267 102 267 145 c 256
 267 188 237 217 197 217 c 256
 157 217 126 188 126 145 c 256
196 416 m 257
 324 416 l 257
 188 264 l 257
 168 255 l 257
 190 277 207 282 237 282 c 256
 299 282 368 229 368 145 c 256
 368 42 291 -12 197 -12 c 256
 103 -12 26 42 26 145 c 256
 26 190 47 228 74 262 c 258
 196 416 l 257
EndSplineSet
EndChar

StartChar: uni2087
Encoding: 8327 8327 179
Width: 383
VWidth: 0
Flags: HMW
LayerCount: 2
Fore
SplineSet
27 326 m 257
 27 420 l 257
 369 420 l 257
 166 0 l 257
 58 0 l 257
 221 326 l 257
 27 326 l 257
EndSplineSet
EndChar

StartChar: uni2088
Encoding: 8328 8328 180
Width: 367
VWidth: 0
Flags: HMW
LayerCount: 2
Fore
SplineSet
42 319 m 256
 42 389 107 430 184 430 c 256
 261 430 326 389 326 319 c 256
 326 243 253 206 184 206 c 256
 115 206 42 243 42 319 c 256
137 309 m 256
 137 280 157 261 184 261 c 256
 211 261 230 280 230 309 c 256
 230 338 212 357 184 357 c 256
 156 357 137 338 137 309 c 256
27 114 m 256
 27 202 115 238 184 238 c 256
 253 238 341 202 341 114 c 256
 341 38 266 -10 184 -10 c 256
 102 -10 27 38 27 114 c 256
128 129 m 256
 128 92 153 72 184 72 c 256
 215 72 240 92 240 129 c 256
 240 160 215 184 184 184 c 256
 153 184 128 160 128 129 c 256
EndSplineSet
EndChar

StartChar: uni2089
Encoding: 8329 8329 181
Width: 398
VWidth: 0
Flags: HMW
LayerCount: 2
Fore
SplineSet
266 275 m 256
 266 318 236 345 196 345 c 256
 156 345 125 318 125 275 c 256
 125 232 156 203 196 203 c 256
 236 203 266 232 266 275 c 256
197 4 m 257
 68 4 l 257
 204 156 l 257
 225 165 l 257
 203 143 185 138 155 138 c 256
 93 138 25 191 25 275 c 256
 25 378 102 432 196 432 c 256
 290 432 367 378 367 275 c 256
 367 230 344 192 317 158 c 258
 197 4 l 257
EndSplineSet
EndChar

StartChar: uni2081
Encoding: 8321 8321 182
Width: 360
VWidth: 0
Flags: HMW
LayerCount: 2
Fore
SplineSet
90 300 m 257
 90 388 l 257
 292 429 l 257
 292 1 l 257
 194 1 l 257
 194 326 l 257
 90 300 l 257
EndSplineSet
EndChar

StartChar: uni2082
Encoding: 8322 8322 183
Width: 410
VWidth: 0
Flags: HMW
LayerCount: 2
Fore
SplineSet
28 2 m 257
 216 196 l 258
 250 232 269 257 269 290 c 256
 269 317 252 344 213 344 c 256
 174 344 148 312 148 267 c 257
 48 267 l 257
 48 356 107 431 216 431 c 256
 320 431 374 360 374 295 c 256
 374 250 349 213 313 182 c 258
 216 95 l 257
 384 95 l 257
 384 2 l 257
 28 2 l 257
EndSplineSet
EndChar

StartChar: uni2083
Encoding: 8323 8323 184
Width: 371
VWidth: 0
Flags: HMW
LayerCount: 2
Fore
SplineSet
158 203 m 257
 158 249 l 257
 205 249 236 275 236 306 c 256
 236 331 220 347 188 347 c 256
 156 347 134 327 134 297 c 257
 40 297 l 257
 40 371 100 428 189 428 c 256
 283 428 336 377 336 312 c 256
 336 240 258 203 158 203 c 257
184 -10 m 256
 83 -10 22 59 22 133 c 257
 122 133 l 257
 122 91 153 72 188 72 c 256
 223 72 248 87 248 124 c 256
 248 159 219 184 158 184 c 257
 158 235 l 257
 269 235 348 200 348 115 c 256
 348 42 287 -10 184 -10 c 256
EndSplineSet
EndChar

StartChar: Agrave
Encoding: 192 192 185
Width: 734
VWidth: 0
Flags: HMW
LayerCount: 2
Fore
SplineSet
184 136 m 257
 196 264 l 257
 543 264 l 257
 554 136 l 257
 184 136 l 257
367 443 m 257
 269 218 l 257
 277 180 l 257
 190 0 l 257
 -1 0 l 257
 367 744 l 257
 736 0 l 257
 544 0 l 257
 460 173 l 257
 466 216 l 257
 367 443 l 257
206 954 m 257
 322 1007 l 257
 472 847 l 257
 386 804 l 257
 206 954 l 257
EndSplineSet
EndChar

StartChar: Aacute
Encoding: 193 193 186
Width: 734
VWidth: 0
Flags: HMW
LayerCount: 2
Fore
SplineSet
184 136 m 257
 196 264 l 257
 543 264 l 257
 554 136 l 257
 184 136 l 257
367 443 m 257
 269 218 l 257
 277 180 l 257
 190 0 l 257
 -1 0 l 257
 367 744 l 257
 736 0 l 257
 544 0 l 257
 460 173 l 257
 466 216 l 257
 367 443 l 257
525 954 m 257
 345 804 l 257
 260 847 l 257
 410 1007 l 257
 525 954 l 257
EndSplineSet
EndChar

StartChar: Acircumflex
Encoding: 194 194 187
Width: 734
VWidth: 0
Flags: HMW
LayerCount: 2
Fore
SplineSet
184 136 m 257
 196 264 l 257
 543 264 l 257
 554 136 l 257
 184 136 l 257
367 443 m 257
 269 218 l 257
 277 180 l 257
 190 0 l 257
 -1 0 l 257
 367 744 l 257
 736 0 l 257
 544 0 l 257
 460 173 l 257
 466 216 l 257
 367 443 l 257
367 875 m 257
 276 789 l 257
 170 860 l 257
 367 1000 l 257
 564 860 l 257
 459 789 l 257
 367 875 l 257
EndSplineSet
EndChar

StartChar: Atilde
Encoding: 195 195 188
Width: 734
VWidth: 0
Flags: HMW
LayerCount: 2
Fore
SplineSet
184 136 m 257
 196 264 l 257
 543 264 l 257
 554 136 l 257
 184 136 l 257
367 443 m 257
 269 218 l 257
 277 180 l 257
 190 0 l 257
 -1 0 l 257
 367 744 l 257
 736 0 l 257
 544 0 l 257
 460 173 l 257
 466 216 l 257
 367 443 l 257
171 862 m 257
 181 911 227 957 291 957 c 256
 357 957 371 905 427 905 c 256
 452 905 472 926 492 958 c 257
 563 884 l 257
 547 847 491 798 429 798 c 256
 374 798 339 851 290 851 c 256
 252 851 243 815 243 800 c 257
 171 862 l 257
EndSplineSet
EndChar

StartChar: Adieresis
Encoding: 196 196 189
Width: 734
VWidth: 0
Flags: HMW
LayerCount: 2
Fore
SplineSet
184 136 m 257
 196 264 l 257
 543 264 l 257
 554 136 l 257
 184 136 l 257
367 443 m 257
 269 218 l 257
 277 180 l 257
 190 0 l 257
 -1 0 l 257
 367 744 l 257
 736 0 l 257
 544 0 l 257
 460 173 l 257
 466 216 l 257
 367 443 l 257
420 830 m 256
 420 878 459 912 508 912 c 256
 557 912 595 878 595 830 c 256
 595 782 557 748 508 748 c 256
 459 748 420 782 420 830 c 256
133 836 m 256
 133 884 172 918 221 918 c 256
 270 918 309 884 309 836 c 256
 309 788 270 755 221 755 c 256
 172 755 133 788 133 836 c 256
EndSplineSet
EndChar

StartChar: Aring
Encoding: 197 197 190
Width: 734
VWidth: 0
Flags: HMW
LayerCount: 2
Fore
SplineSet
184 136 m 257
 196 264 l 257
 543 264 l 257
 554 136 l 257
 184 136 l 257
367 443 m 257
 269 218 l 257
 277 180 l 257
 190 0 l 257
 -1 0 l 257
 367 744 l 257
 736 0 l 257
 544 0 l 257
 460 173 l 257
 466 216 l 257
 367 443 l 257
242 800 m 256
 242 869 298 916 367 916 c 256
 436 916 492 869 492 800 c 256
 492 731 436 685 367 685 c 256
 298 685 242 731 242 800 c 256
321 800 m 256
 321 770 342 753 367 753 c 256
 392 753 413 770 413 800 c 256
 413 830 392 849 367 849 c 256
 342 849 321 830 321 800 c 256
EndSplineSet
EndChar

StartChar: AE
Encoding: 198 198 191
Width: 1084
VWidth: 0
Flags: HMW
LayerCount: 2
Fore
SplineSet
270 151 m 257
 276 306 l 257
 576 306 l 257
 576 151 l 257
 270 151 l 257
438 700 m 257
 600 660 l 257
 227 0 l 257
 14 0 l 257
 438 700 l 257
630 0 m 257
 630 139 l 257
 1014 139 l 257
 1014 0 l 257
 630 0 l 257
638 561 m 257
 438 700 l 257
 1014 700 l 257
 1014 561 l 257
 638 561 l 257
630 300 m 257
 630 436 l 257
 994 436 l 257
 994 300 l 257
 630 300 l 257
549 700 m 257
 730 700 l 257
 730 0 l 257
 549 0 l 257
 549 700 l 257
EndSplineSet
EndChar

StartChar: Ccedilla
Encoding: 199 199 192
Width: 700
VWidth: 0
Flags: HMW
LayerCount: 2
Fore
SplineSet
218 350 m 256
 218 221 315 144 428 144 c 256
 527 144 591 187 637 237 c 257
 637 55 l 257
 580 12 520 -16 418 -16 c 256
 193 -16 34 132 34 350 c 256
 34 568 193 716 418 716 c 256
 520 716 580 688 637 645 c 257
 637 463 l 257
 591 513 527 556 428 556 c 256
 315 556 218 479 218 350 c 256
358 48 m 257
 468 45 l 257
 382 -77 l 257
 393 -74 405 -74 418 -74 c 256
 458 -74 509 -105 509 -171 c 256
 509 -243 442 -280 379 -280 c 256
 323 -280 282 -271 235 -241 c 257
 280 -172 l 257
 305 -190 339 -197 359 -197 c 256
 393 -197 413 -186 413 -162 c 256
 413 -136 384 -130 353 -130 c 256
 343 -130 305 -132 270 -146 c 257
 358 48 l 257
EndSplineSet
EndChar

StartChar: Egrave
Encoding: 200 200 193
Width: 602
VWidth: 0
Flags: HMW
LayerCount: 2
Fore
SplineSet
186 0 m 257
 186 139 l 257
 539 139 l 257
 539 0 l 257
 186 0 l 257
186 561 m 257
 186 700 l 257
 539 700 l 257
 539 561 l 257
 186 561 l 257
186 300 m 257
 186 436 l 257
 519 436 l 257
 519 300 l 257
 186 300 l 257
74 700 m 257
 236 700 l 257
 236 0 l 257
 74 0 l 257
 74 700 l 257
145 932 m 257
 260 985 l 257
 410 825 l 257
 325 782 l 257
 145 932 l 257
EndSplineSet
EndChar

StartChar: Eacute
Encoding: 201 201 194
Width: 602
VWidth: 0
Flags: HMW
LayerCount: 2
Fore
SplineSet
186 0 m 257
 186 139 l 257
 539 139 l 257
 539 0 l 257
 186 0 l 257
186 561 m 257
 186 700 l 257
 539 700 l 257
 539 561 l 257
 186 561 l 257
186 300 m 257
 186 436 l 257
 519 436 l 257
 519 300 l 257
 186 300 l 257
74 700 m 257
 236 700 l 257
 236 0 l 257
 74 0 l 257
 74 700 l 257
465 932 m 257
 285 782 l 257
 199 825 l 257
 349 985 l 257
 465 932 l 257
EndSplineSet
EndChar

StartChar: Ecircumflex
Encoding: 202 202 195
Width: 602
VWidth: 0
Flags: HMW
LayerCount: 2
Fore
SplineSet
186 0 m 257
 186 139 l 257
 539 139 l 257
 539 0 l 257
 186 0 l 257
186 561 m 257
 186 700 l 257
 539 700 l 257
 539 561 l 257
 186 561 l 257
186 300 m 257
 186 436 l 257
 519 436 l 257
 519 300 l 257
 186 300 l 257
74 700 m 257
 236 700 l 257
 236 0 l 257
 74 0 l 257
 74 700 l 257
310 884 m 257
 200 789 l 257
 150 829 l 257
 310 969 l 257
 470 829 l 257
 420 789 l 257
 310 884 l 257
EndSplineSet
EndChar

StartChar: Edieresis
Encoding: 203 203 196
Width: 602
VWidth: 0
Flags: HMW
LayerCount: 2
Fore
SplineSet
186 0 m 257
 186 139 l 257
 539 139 l 257
 539 0 l 257
 186 0 l 257
186 561 m 257
 186 700 l 257
 539 700 l 257
 539 561 l 257
 186 561 l 257
186 300 m 257
 186 436 l 257
 519 436 l 257
 519 300 l 257
 186 300 l 257
74 700 m 257
 236 700 l 257
 236 0 l 257
 74 0 l 257
 74 700 l 257
344 865 m 256
 344 913 383 947 432 947 c 256
 481 947 520 913 520 865 c 256
 520 817 481 784 432 784 c 256
 383 784 344 817 344 865 c 256
101 865 m 256
 101 913 140 947 189 947 c 256
 238 947 277 913 277 865 c 256
 277 817 238 784 189 784 c 256
 140 784 101 817 101 865 c 256
EndSplineSet
EndChar

StartChar: Igrave
Encoding: 204 204 197
Width: 319
VWidth: 0
Flags: HMW
LayerCount: 2
Fore
SplineSet
74 700 m 257
 246 700 l 257
 246 0 l 257
 74 0 l 257
 74 700 l 257
-8 932 m 257
 108 985 l 257
 258 825 l 257
 172 782 l 257
 -8 932 l 257
EndSplineSet
EndChar

StartChar: Iacute
Encoding: 205 205 198
Width: 319
VWidth: 0
Flags: HMW
LayerCount: 2
Fore
SplineSet
74 700 m 257
 246 700 l 257
 246 0 l 257
 74 0 l 257
 74 700 l 257
312 932 m 257
 132 782 l 257
 47 825 l 257
 197 985 l 257
 312 932 l 257
EndSplineSet
EndChar

StartChar: Icircumflex
Encoding: 206 206 199
Width: 319
VWidth: 0
Flags: HMW
LayerCount: 2
Fore
SplineSet
74 700 m 257
 246 700 l 257
 246 0 l 257
 74 0 l 257
 74 700 l 257
153 884 m 257
 43 789 l 257
 -7 829 l 257
 153 969 l 257
 313 829 l 257
 263 789 l 257
 153 884 l 257
EndSplineSet
EndChar

StartChar: Idieresis
Encoding: 207 207 200
Width: 319
VWidth: 0
Flags: HMW
LayerCount: 2
Fore
SplineSet
74 700 m 257
 246 700 l 257
 246 0 l 257
 74 0 l 257
 74 700 l 257
194 858 m 256
 194 906 233 940 282 940 c 256
 331 940 370 906 370 858 c 256
 370 810 331 776 282 776 c 256
 233 776 194 810 194 858 c 256
-49 858 m 256
 -49 906 -11 940 38 940 c 256
 87 940 126 906 126 858 c 256
 126 810 87 776 38 776 c 256
 -11 776 -49 810 -49 858 c 256
EndSplineSet
EndChar

StartChar: Ntilde
Encoding: 209 209 201
Width: 793
VWidth: 0
Flags: HMW
LayerCount: 2
Fore
SplineSet
557 700 m 257
 720 700 l 257
 720 -35 l 257
 237 385.556 l 257
 237 0 l 257
 74 0 l 257
 74 735 l 257
 557 313.788 l 257
 557 700 l 257
168 839 m 257
 178 888 224 934 288 934 c 256
 354 934 368 882 424 882 c 256
 449 882 469 903 489 935 c 257
 560 861 l 257
 544 824 488 775 426 775 c 256
 371 775 336 829 287 829 c 256
 249 829 240 793 240 778 c 257
 168 839 l 257
EndSplineSet
EndChar

StartChar: Eth
Encoding: 208 208 202
Width: 732
VWidth: 0
Flags: HMW
LayerCount: 2
Fore
SplineSet
6 303 m 257
 6 402 l 257
 355 402 l 257
 355 303 l 257
 6 303 l 257
74 700 m 257
 248 700 l 257
 248 0 l 257
 74 0 l 257
 74 700 l 257
324 0 m 258
 186 0 l 257
 186 150 l 257
 318 150 l 258
 426 150 524 199 524 350 c 256
 524 501 426 550 318 550 c 258
 186 550 l 257
 186 700 l 257
 324 700 l 258
 553 700 699 565 699 350 c 256
 699 135 553 0 324 0 c 258
EndSplineSet
EndChar

StartChar: Ograve
Encoding: 210 210 203
Width: 821
VWidth: 0
Flags: HMW
LayerCount: 2
Fore
SplineSet
212 350 m 256
 212 226 291 139 410 139 c 256
 529 139 609 226 609 350 c 256
 609 474 532 561 410 561 c 256
 291 561 212 474 212 350 c 256
34 350 m 256
 34 566 197 716 410 716 c 256
 626 716 787 566 787 350 c 256
 787 134 630 -22 410 -22 c 256
 190 -22 34 134 34 350 c 256
263 932 m 257
 378 985 l 257
 528 825 l 257
 443 782 l 257
 263 932 l 257
EndSplineSet
EndChar

StartChar: Oacute
Encoding: 211 211 204
Width: 821
VWidth: 0
Flags: HMW
LayerCount: 2
Fore
SplineSet
212 350 m 256
 212 226 291 139 410 139 c 256
 529 139 609 226 609 350 c 256
 609 474 532 561 410 561 c 256
 291 561 212 474 212 350 c 256
34 350 m 256
 34 566 197 716 410 716 c 256
 626 716 787 566 787 350 c 256
 787 134 630 -22 410 -22 c 256
 190 -22 34 134 34 350 c 256
574 932 m 257
 394 782 l 257
 309 825 l 257
 459 985 l 257
 574 932 l 257
EndSplineSet
EndChar

StartChar: Ocircumflex
Encoding: 212 212 205
Width: 821
VWidth: 0
Flags: HMW
LayerCount: 2
Fore
SplineSet
212 350 m 256
 212 226 291 139 410 139 c 256
 529 139 609 226 609 350 c 256
 609 474 532 561 410 561 c 256
 291 561 212 474 212 350 c 256
34 350 m 256
 34 566 197 716 410 716 c 256
 626 716 787 566 787 350 c 256
 787 134 630 -22 410 -22 c 256
 190 -22 34 134 34 350 c 256
420 884 m 257
 310 789 l 257
 260 829 l 257
 420 969 l 257
 580 829 l 257
 530 789 l 257
 420 884 l 257
EndSplineSet
EndChar

StartChar: Otilde
Encoding: 213 213 206
Width: 821
VWidth: 0
Flags: HMW
LayerCount: 2
Fore
SplineSet
212 350 m 256
 212 226 291 139 410 139 c 256
 529 139 609 226 609 350 c 256
 609 474 532 561 410 561 c 256
 291 561 212 474 212 350 c 256
34 350 m 256
 34 566 197 716 410 716 c 256
 626 716 787 566 787 350 c 256
 787 134 630 -22 410 -22 c 256
 190 -22 34 134 34 350 c 256
249 842 m 257
 259 891 308 924 353 924 c 256
 418 924 423 877 477 877 c 256
 496 877 513 893 533 925 c 257
 579 882 l 257
 563 845 523 809 473 809 c 256
 418 809 397 856 352 856 c 256
 311 856 302 820 302 805 c 257
 249 842 l 257
EndSplineSet
EndChar

StartChar: Odieresis
Encoding: 214 214 207
Width: 821
VWidth: 0
Flags: HMW
LayerCount: 2
Fore
SplineSet
212 350 m 256
 212 226 291 139 410 139 c 256
 529 139 609 226 609 350 c 256
 609 474 532 561 410 561 c 256
 291 561 212 474 212 350 c 256
34 350 m 256
 34 566 197 716 410 716 c 256
 626 716 787 566 787 350 c 256
 787 134 630 -22 410 -22 c 256
 190 -22 34 134 34 350 c 256
444 858 m 256
 444 906 483 940 532 940 c 256
 581 940 620 906 620 858 c 256
 620 810 581 776 532 776 c 256
 483 776 444 810 444 858 c 256
201 858 m 256
 201 906 240 940 289 940 c 256
 338 940 377 906 377 858 c 256
 377 810 338 776 289 776 c 256
 240 776 201 810 201 858 c 256
EndSplineSet
EndChar

StartChar: Ugrave
Encoding: 217 217 208
Width: 700
VWidth: 0
Flags: HMW
LayerCount: 2
Fore
SplineSet
69 700 m 257
 238 700 l 257
 238 242 l 258
 238 171 275 123 350 123 c 256
 425 123 463 171 463 242 c 258
 463 700 l 257
 632 700 l 257
 632 230 l 258
 632 54 507 -29 350 -29 c 256
 193 -29 69 54 69 230 c 258
 69 700 l 257
189 926 m 257
 304 979 l 257
 454 819 l 257
 369 776 l 257
 189 926 l 257
EndSplineSet
EndChar

StartChar: Uacute
Encoding: 218 218 209
Width: 700
VWidth: 0
Flags: HMW
LayerCount: 2
Fore
SplineSet
69 700 m 257
 238 700 l 257
 238 242 l 258
 238 171 275 123 350 123 c 256
 425 123 463 171 463 242 c 258
 463 700 l 257
 632 700 l 257
 632 230 l 258
 632 54 507 -29 350 -29 c 256
 193 -29 69 54 69 230 c 258
 69 700 l 257
511 926 m 257
 331 776 l 257
 246 819 l 257
 396 979 l 257
 511 926 l 257
EndSplineSet
EndChar

StartChar: Ucircumflex
Encoding: 219 219 210
Width: 700
VWidth: 0
Flags: HMW
LayerCount: 2
Fore
SplineSet
69 700 m 257
 238 700 l 257
 238 242 l 258
 238 171 275 123 350 123 c 256
 425 123 463 171 463 242 c 258
 463 700 l 257
 632 700 l 257
 632 230 l 258
 632 54 507 -29 350 -29 c 256
 193 -29 69 54 69 230 c 258
 69 700 l 257
350 862 m 257
 259 776 l 257
 153 847 l 257
 350 987 l 257
 547 847 l 257
 442 776 l 257
 350 862 l 257
EndSplineSet
EndChar

StartChar: Udieresis
Encoding: 220 220 211
Width: 700
VWidth: 0
Flags: HMW
LayerCount: 2
Fore
SplineSet
69 700 m 257
 238 700 l 257
 238 242 l 258
 238 171 275 123 350 123 c 256
 425 123 463 171 463 242 c 258
 463 700 l 257
 632 700 l 257
 632 230 l 258
 632 54 507 -29 350 -29 c 256
 193 -29 69 54 69 230 c 258
 69 700 l 257
403 858 m 256
 403 906 441 940 490 940 c 256
 539 940 578 906 578 858 c 256
 578 810 539 776 490 776 c 256
 441 776 403 810 403 858 c 256
122 858 m 256
 122 906 161 940 210 940 c 256
 259 940 298 906 298 858 c 256
 298 810 259 776 210 776 c 256
 161 776 122 810 122 858 c 256
EndSplineSet
EndChar

StartChar: Yacute
Encoding: 221 221 212
Width: 659
VWidth: 0
Flags: HMW
LayerCount: 2
Fore
SplineSet
491 926 m 257
 311 776 l 257
 226 819 l 257
 376 979 l 257
 491 926 l 257
467 700 m 257
 661 700 l 257
 416 285 l 257
 416 0 l 257
 244 0 l 257
 244 284 l 257
 -1 700 l 257
 193 700 l 257
 330 437 l 257
 467 700 l 257
EndSplineSet
EndChar

StartChar: agrave
Encoding: 224 224 213
Width: 543
VWidth: 0
Flags: HMW
LayerCount: 2
Fore
SplineSet
176 137 m 256
 176 104 202 89 242 89 c 256
 297 89 345 112 345 186 c 257
 361 130 l 257
 361 41 286 -10 191 -10 c 256
 90 -10 24 41 24 128 c 256
 24 223 106 279 223 279 c 256
 292 279 358 251 378 230 c 257
 378 159 l 257
 344 185 310 197 258 197 c 256
 206 197 176 173 176 137 c 256
117 319 m 257
 66 420 l 257
 119 445 193 473 276 473 c 256
 400 473 490 419 490 324 c 258
 490 0 l 257
 345 0 l 257
 345 294 l 258
 345 333 314 358 264 358 c 256
 198 358 139 332 117 319 c 257
104 683 m 257
 219 736 l 257
 369 576 l 257
 284 533 l 257
 104 683 l 257
EndSplineSet
Substitution2: "alt a" agrave.alt
EndChar

StartChar: aacute
Encoding: 225 225 214
Width: 543
VWidth: 0
Flags: HMW
LayerCount: 2
Fore
SplineSet
176 137 m 256
 176 104 202 89 242 89 c 256
 297 89 345 112 345 186 c 257
 361 130 l 257
 361 41 286 -10 191 -10 c 256
 90 -10 24 41 24 128 c 256
 24 223 106 279 223 279 c 256
 292 279 358 251 378 230 c 257
 378 159 l 257
 344 185 310 197 258 197 c 256
 206 197 176 173 176 137 c 256
117 319 m 257
 66 420 l 257
 119 445 193 473 276 473 c 256
 400 473 490 419 490 324 c 258
 490 0 l 257
 345 0 l 257
 345 294 l 258
 345 333 314 358 264 358 c 256
 198 358 139 332 117 319 c 257
448 683 m 257
 268 533 l 257
 183 576 l 257
 333 736 l 257
 448 683 l 257
EndSplineSet
Substitution2: "alt a" aacute.alt
EndChar

StartChar: acircumflex
Encoding: 226 226 215
Width: 543
VWidth: 0
Flags: HMW
LayerCount: 2
Fore
SplineSet
176 137 m 256
 176 104 202 89 242 89 c 256
 297 89 345 112 345 186 c 257
 361 130 l 257
 361 41 286 -10 191 -10 c 256
 90 -10 24 41 24 128 c 256
 24 223 106 279 223 279 c 256
 292 279 358 251 378 230 c 257
 378 159 l 257
 344 185 310 197 258 197 c 256
 206 197 176 173 176 137 c 256
117 319 m 257
 66 420 l 257
 119 445 193 473 276 473 c 256
 400 473 490 419 490 324 c 258
 490 0 l 257
 345 0 l 257
 345 294 l 258
 345 333 314 358 264 358 c 256
 198 358 139 332 117 319 c 257
276 619 m 257
 184 533 l 257
 79 604 l 257
 276 744 l 257
 473 604 l 257
 367 533 l 257
 276 619 l 257
EndSplineSet
Substitution2: "alt a" acircumflex.alt
EndChar

StartChar: atilde
Encoding: 227 227 216
Width: 543
VWidth: 0
Flags: HMW
LayerCount: 2
Fore
SplineSet
176 137 m 256
 176 104 202 89 242 89 c 256
 297 89 345 112 345 186 c 257
 361 130 l 257
 361 41 286 -10 191 -10 c 256
 90 -10 24 41 24 128 c 256
 24 223 106 279 223 279 c 256
 292 279 358 251 378 230 c 257
 378 159 l 257
 344 185 310 197 258 197 c 256
 206 197 176 173 176 137 c 256
117 319 m 257
 66 420 l 257
 119 445 193 473 276 473 c 256
 400 473 490 419 490 324 c 258
 490 0 l 257
 345 0 l 257
 345 294 l 258
 345 333 314 358 264 358 c 256
 198 358 139 332 117 319 c 257
80 599 m 257
 90 648 135 693 199 693 c 256
 265 693 280 641 336 641 c 256
 361 641 381 662 401 694 c 257
 472 620 l 257
 456 583 400 535 338 535 c 256
 283 535 247 588 198 588 c 256
 160 588 152 552 152 537 c 257
 80 599 l 257
EndSplineSet
Substitution2: "alt a" atilde.alt
EndChar

StartChar: adieresis
Encoding: 228 228 217
Width: 543
VWidth: 0
Flags: HMW
LayerCount: 2
Fore
SplineSet
176 137 m 256
 176 104 202 89 242 89 c 256
 297 89 345 112 345 186 c 257
 361 130 l 257
 361 41 286 -10 191 -10 c 256
 90 -10 24 41 24 128 c 256
 24 223 106 279 223 279 c 256
 292 279 358 251 378 230 c 257
 378 159 l 257
 344 185 310 197 258 197 c 256
 206 197 176 173 176 137 c 256
117 319 m 257
 66 420 l 257
 119 445 193 473 276 473 c 256
 400 473 490 419 490 324 c 258
 490 0 l 257
 345 0 l 257
 345 294 l 258
 345 333 314 358 264 358 c 256
 198 358 139 332 117 319 c 257
310 615 m 256
 310 663 349 696 398 696 c 256
 447 696 485 663 485 615 c 256
 485 567 447 533 398 533 c 256
 349 533 310 567 310 615 c 256
66 615 m 256
 66 663 105 696 154 696 c 256
 203 696 242 663 242 615 c 256
 242 567 203 533 154 533 c 256
 105 533 66 567 66 615 c 256
EndSplineSet
Substitution2: "alt a" adieresis.alt
EndChar

StartChar: aring
Encoding: 229 229 218
Width: 543
VWidth: 0
Flags: HMW
LayerCount: 2
Fore
SplineSet
176 137 m 256
 176 104 202 89 242 89 c 256
 297 89 345 112 345 186 c 257
 361 130 l 257
 361 41 286 -10 191 -10 c 256
 90 -10 24 41 24 128 c 256
 24 223 106 279 223 279 c 256
 292 279 358 251 378 230 c 257
 378 159 l 257
 344 185 310 197 258 197 c 256
 206 197 176 173 176 137 c 256
117 319 m 257
 66 420 l 257
 119 445 193 473 276 473 c 256
 400 473 490 419 490 324 c 258
 490 0 l 257
 345 0 l 257
 345 294 l 258
 345 333 314 358 264 358 c 256
 198 358 139 332 117 319 c 257
151 649 m 256
 151 718 206 764 275 764 c 256
 344 764 401 718 401 649 c 256
 401 580 344 533 275 533 c 256
 206 533 151 580 151 649 c 256
229 649 m 256
 229 619 250 601 275 601 c 256
 300 601 322 619 322 649 c 256
 322 679 300 697 275 697 c 256
 250 697 229 679 229 649 c 256
EndSplineSet
Substitution2: "alt a" aring.alt
EndChar

StartChar: germandbls
Encoding: 223 223 219
Width: 591
VWidth: 0
Flags: HMW
LayerCount: 2
Fore
SplineSet
281 127 m 257
 361 127 416 179 416 254 c 256
 416 315 378 368 268 368 c 257
 268 472 l 257
 435 472 568 376 568 225 c 256
 568 74 453 -10 281 -10 c 257
 281 127 l 257
268 413 m 257
 268 505 l 257
 353 505 376 540 376 584 c 256
 376 631 345 659 286 659 c 256
 232 659 200 632 200 587 c 258
 200 0 l 257
 55 0 l 257
 55 606 l 258
 55 727 162 796 286 796 c 256
 440 796 522 715 522 606 c 256
 522 487 435 413 268 413 c 257
EndSplineSet
EndChar

StartChar: ae
Encoding: 230 230 220
Width: 895
VWidth: 0
Flags: HMW
LayerCount: 2
Fore
SplineSet
176 137 m 256
 176 104 202 89 242 89 c 256
 297 89 345 112 345 186 c 257
 416 130 l 257
 416 41 343 -10 217 -10 c 256
 96 -10 24 41 24 128 c 256
 24 223 106 279 223 279 c 256
 292 279 358 251 378 230 c 257
 378 159 l 257
 344 185 310 197 258 197 c 256
 206 197 176 173 176 137 c 256
117 319 m 257
 66 420 l 257
 119 445 193 473 276 473 c 256
 400 473 439 419 439 324 c 258
 439 130 l 257
 345 130 l 257
 345 290 l 258
 345 329 314 358 264 358 c 256
 198 358 139 332 117 319 c 257
418 198 m 257
 418 282 l 257
 843 282 l 257
 860 198 l 257
 418 198 l 257
702 244 m 258
 702 324 675 369 610 369 c 256
 549 369 509 328 509 254 c 257
 507 230 l 257
 507 136 554 99 613 99 c 256
 668 99 706 121 728 159 c 257
 863 126 l 257
 817 44 747 -10 616 -10 c 256
 448 -10 389 91 389 230 c 256
 389 247 394 263 397 279 c 256
 416 392 498 470 636 470 c 256
 771 470 861 382 861 237 c 256
 861 229 862 214 860 198 c 257
 702 218 l 257
 702 244 l 258
EndSplineSet
EndChar

StartChar: ccedilla
Encoding: 231 231 221
Width: 493
VWidth: 0
Flags: HMW
LayerCount: 2
Fore
SplineSet
185 230 m 256
 185 156 240 110 308 110 c 256
 363 110 417 135 444 179 c 257
 444 32 l 257
 412 6 365 -10 296 -10 c 256
 142 -10 30 85 30 230 c 256
 30 375 142 470 296 470 c 256
 365 470 412 453 444 430 c 257
 444 282 l 257
 417 326 357 350 308 350 c 256
 240 350 185 298 185 230 c 256
238 61 m 257
 347 57 l 257
 261 -65 l 257
 272 -62 284 -61 297 -61 c 256
 337 -61 389 -93 389 -159 c 256
 389 -231 321 -268 258 -268 c 256
 202 -268 161 -258 114 -228 c 257
 160 -160 l 257
 185 -178 218 -185 238 -185 c 256
 272 -185 292 -174 292 -150 c 256
 292 -124 263 -118 232 -118 c 256
 222 -118 185 -120 150 -134 c 257
 238 61 l 257
EndSplineSet
EndChar

StartChar: egrave
Encoding: 232 232 222
Width: 573
VWidth: 0
Flags: HMW
LayerCount: 2
Fore
SplineSet
117 198 m 257
 117 282 l 257
 377 282 l 257
 370 337 343 369 288 369 c 256
 227 369 186 328 186 254 c 257
 184 230 l 257
 184 136 232 99 291 99 c 256
 346 99 383 121 405 159 c 257
 540 126 l 257
 494 44 424 -10 293 -10 c 256
 125 -10 32 91 32 230 c 256
 32 247 33 263 36 279 c 256
 55 392 141 470 291 470 c 256
 452 470 539 382 539 237 c 256
 539 229 539 214 537 198 c 257
 117 198 l 257
126 684 m 257
 241 737 l 257
 391 577 l 257
 306 534 l 257
 126 684 l 257
EndSplineSet
EndChar

StartChar: eacute
Encoding: 233 233 223
Width: 573
VWidth: 0
Flags: HMW
LayerCount: 2
Fore
SplineSet
117 198 m 257
 117 282 l 257
 377 282 l 257
 370 337 343 369 288 369 c 256
 227 369 186 328 186 254 c 257
 184 230 l 257
 184 136 232 99 291 99 c 256
 346 99 383 121 405 159 c 257
 540 126 l 257
 494 44 424 -10 293 -10 c 256
 125 -10 32 91 32 230 c 256
 32 247 33 263 36 279 c 256
 55 392 141 470 291 470 c 256
 452 470 539 382 539 237 c 256
 539 229 539 214 537 198 c 257
 117 198 l 257
463 684 m 257
 283 534 l 257
 198 577 l 257
 348 737 l 257
 463 684 l 257
EndSplineSet
EndChar

StartChar: ecircumflex
Encoding: 234 234 224
Width: 573
VWidth: 0
Flags: HMW
LayerCount: 2
Fore
SplineSet
117 198 m 257
 117 282 l 257
 377 282 l 257
 370 337 343 369 288 369 c 256
 227 369 186 328 186 254 c 257
 184 230 l 257
 184 136 232 99 291 99 c 256
 346 99 383 121 405 159 c 257
 540 126 l 257
 494 44 424 -10 293 -10 c 256
 125 -10 32 91 32 230 c 256
 32 247 33 263 36 279 c 256
 55 392 141 470 291 470 c 256
 452 470 539 382 539 237 c 256
 539 229 539 214 537 198 c 257
 117 198 l 257
291 616 m 257
 200 531 l 257
 94 602 l 257
 291 742 l 257
 488 602 l 257
 382 531 l 257
 291 616 l 257
EndSplineSet
EndChar

StartChar: edieresis
Encoding: 235 235 225
Width: 573
VWidth: 0
Flags: HMW
LayerCount: 2
Fore
SplineSet
117 198 m 257
 117 282 l 257
 377 282 l 257
 370 337 343 369 288 369 c 256
 227 369 186 328 186 254 c 257
 184 230 l 257
 184 136 232 99 291 99 c 256
 346 99 383 121 405 159 c 257
 540 126 l 257
 494 44 424 -10 293 -10 c 256
 125 -10 32 91 32 230 c 256
 32 247 33 263 36 279 c 256
 55 392 141 470 291 470 c 256
 452 470 539 382 539 237 c 256
 539 229 539 214 537 198 c 257
 117 198 l 257
325 612 m 256
 325 660 364 694 413 694 c 256
 462 694 500 660 500 612 c 256
 500 564 462 531 413 531 c 256
 364 531 325 564 325 612 c 256
81 612 m 256
 81 660 120 694 169 694 c 256
 218 694 257 660 257 612 c 256
 257 564 218 531 169 531 c 256
 120 531 81 564 81 612 c 256
EndSplineSet
EndChar

StartChar: igrave
Encoding: 236 236 226
Width: 276
VWidth: 0
Flags: HMW
LayerCount: 2
Fore
SplineSet
65 460 m 257
 211 460 l 257
 211 0 l 257
 65 0 l 257
 65 460 l 257
-42 688 m 257
 73 741 l 257
 223 581 l 257
 138 538 l 257
 -42 688 l 257
EndSplineSet
EndChar

StartChar: dotlessi
Encoding: 305 305 227
Width: 276
VWidth: 0
Flags: HMW
LayerCount: 2
Fore
SplineSet
65 460 m 257
 211 460 l 257
 211 0 l 257
 65 0 l 257
 65 460 l 257
EndSplineSet
EndChar

StartChar: kgreenlandic
Encoding: 312 312 228
Width: 576
VWidth: 0
Flags: HMW
LayerCount: 2
Fore
SplineSet
58 460 m 257
 203 460 l 257
 203 0 l 257
 58 0 l 257
 58 460 l 257
370 460 m 257
 550 460 l 257
 353 270 l 257
 570 0 l 257
 393 0 l 257
 173 270 l 257
 370 460 l 257
EndSplineSet
EndChar

StartChar: iacute
Encoding: 237 237 229
Width: 276
VWidth: 0
Flags: HMW
LayerCount: 2
Fore
SplineSet
65 460 m 257
 211 460 l 257
 211 0 l 257
 65 0 l 257
 65 460 l 257
310 688 m 257
 130 538 l 257
 45 581 l 257
 195 741 l 257
 310 688 l 257
EndSplineSet
EndChar

StartChar: icircumflex
Encoding: 238 238 230
Width: 276
VWidth: 0
Flags: HMW
LayerCount: 2
Fore
SplineSet
65 460 m 257
 211 460 l 257
 211 0 l 257
 65 0 l 257
 65 460 l 257
137 620 m 257
 46 534 l 257
 -60 605 l 257
 137 745 l 257
 335 605 l 257
 229 534 l 257
 137 620 l 257
EndSplineSet
EndChar

StartChar: idieresis
Encoding: 239 239 231
Width: 276
VWidth: 0
Flags: HMW
LayerCount: 2
Fore
SplineSet
65 460 m 257
 211 460 l 257
 211 0 l 257
 65 0 l 257
 65 460 l 257
172 624 m 256
 172 672 211 705 260 705 c 256
 309 705 348 672 348 624 c 256
 348 576 309 542 260 542 c 256
 211 542 172 576 172 624 c 256
-72 624 m 256
 -72 672 -33 705 16 705 c 256
 65 705 104 672 104 624 c 256
 104 576 65 542 16 542 c 256
 -33 542 -72 576 -72 624 c 256
EndSplineSet
EndChar

StartChar: ntilde
Encoding: 241 241 232
Width: 574
VWidth: 0
Flags: HMW
LayerCount: 2
Fore
SplineSet
211 460 m 257
 211 0 l 257
 60 0 l 257
 60 460 l 257
 211 460 l 257
358 280 m 258
 358 334 341 365 291 365 c 256
 243 365 211 334 211 280 c 257
 181 274 l 257
 181 383 237 471 351 471 c 256
 465 471 515 409 515 296 c 258
 515 0 l 257
 358 0 l 257
 358 280 l 258
92 596 m 257
 102 645 147 691 211 691 c 256
 277 691 291 639 347 639 c 256
 372 639 393 660 413 692 c 257
 484 618 l 257
 468 581 411 532 349 532 c 256
 294 532 259 585 210 585 c 256
 172 585 163 549 163 534 c 257
 92 596 l 257
EndSplineSet
EndChar

StartChar: ograve
Encoding: 242 242 233
Width: 589
VWidth: 0
Flags: HMW
LayerCount: 2
Fore
SplineSet
32 230 m 256
 32 375 145 471 295 471 c 256
 445 471 558 375 558 230 c 256
 558 85 445 -10 295 -10 c 256
 145 -10 32 85 32 230 c 256
187 230 m 256
 187 159 236 115 295 115 c 256
 354 115 402 159 402 230 c 256
 402 301 354 346 295 346 c 256
 236 346 187 301 187 230 c 256
135 688 m 257
 250 741 l 257
 400 581 l 257
 315 538 l 257
 135 688 l 257
EndSplineSet
EndChar

StartChar: oacute
Encoding: 243 243 234
Width: 589
VWidth: 0
Flags: HMW
LayerCount: 2
Fore
SplineSet
32 230 m 256
 32 375 145 471 295 471 c 256
 445 471 558 375 558 230 c 256
 558 85 445 -10 295 -10 c 256
 145 -10 32 85 32 230 c 256
187 230 m 256
 187 159 236 115 295 115 c 256
 354 115 402 159 402 230 c 256
 402 301 354 346 295 346 c 256
 236 346 187 301 187 230 c 256
455 688 m 257
 275 538 l 257
 189 581 l 257
 339 741 l 257
 455 688 l 257
EndSplineSet
EndChar

StartChar: ocircumflex
Encoding: 244 244 235
Width: 589
VWidth: 0
Flags: HMW
LayerCount: 2
Fore
SplineSet
32 230 m 256
 32 375 145 471 295 471 c 256
 445 471 558 375 558 230 c 256
 558 85 445 -10 295 -10 c 256
 145 -10 32 85 32 230 c 256
187 230 m 256
 187 159 236 115 295 115 c 256
 354 115 402 159 402 230 c 256
 402 301 354 346 295 346 c 256
 236 346 187 301 187 230 c 256
295 624 m 257
 203 538 l 257
 98 609 l 257
 295 749 l 257
 492 609 l 257
 386 538 l 257
 295 624 l 257
EndSplineSet
EndChar

StartChar: otilde
Encoding: 245 245 236
Width: 589
VWidth: 0
Flags: HMW
LayerCount: 2
Fore
SplineSet
32 230 m 256
 32 375 145 471 295 471 c 256
 445 471 558 375 558 230 c 256
 558 85 445 -10 295 -10 c 256
 145 -10 32 85 32 230 c 256
187 230 m 256
 187 159 236 115 295 115 c 256
 354 115 402 159 402 230 c 256
 402 301 354 346 295 346 c 256
 236 346 187 301 187 230 c 256
99 596 m 257
 109 645 154 691 218 691 c 256
 284 691 299 639 355 639 c 256
 380 639 400 660 420 692 c 257
 491 618 l 257
 475 581 419 532 357 532 c 256
 302 532 266 585 217 585 c 256
 179 585 170 549 170 534 c 257
 99 596 l 257
EndSplineSet
EndChar

StartChar: odieresis
Encoding: 246 246 237
Width: 589
VWidth: 0
Flags: HMW
LayerCount: 2
Fore
SplineSet
32 230 m 256
 32 375 145 471 295 471 c 256
 445 471 558 375 558 230 c 256
 558 85 445 -10 295 -10 c 256
 145 -10 32 85 32 230 c 256
187 230 m 256
 187 159 236 115 295 115 c 256
 354 115 402 159 402 230 c 256
 402 301 354 346 295 346 c 256
 236 346 187 301 187 230 c 256
329 624 m 256
 329 672 367 705 416 705 c 256
 465 705 504 672 504 624 c 256
 504 576 465 542 416 542 c 256
 367 542 329 576 329 624 c 256
85 624 m 256
 85 672 124 705 173 705 c 256
 222 705 261 672 261 624 c 256
 261 576 222 542 173 542 c 256
 124 542 85 576 85 624 c 256
EndSplineSet
EndChar

StartChar: ugrave
Encoding: 249 249 238
Width: 574
VWidth: 0
Flags: HMW
LayerCount: 2
Fore
SplineSet
364 0 m 257
 364 460 l 257
 515 460 l 257
 515 0 l 257
 364 0 l 257
217 180 m 258
 217 126 234 95 284 95 c 256
 332 95 364 126 364 180 c 257
 394 186 l 257
 394 77 338 -11 224 -11 c 256
 110 -11 60 51 60 164 c 258
 60 460 l 257
 217 460 l 257
 217 180 l 258
142 688 m 257
 258 741 l 257
 408 581 l 257
 322 538 l 257
 142 688 l 257
EndSplineSet
EndChar

StartChar: uacute
Encoding: 250 250 239
Width: 574
VWidth: 0
Flags: HMW
LayerCount: 2
Fore
SplineSet
364 0 m 257
 364 460 l 257
 515 460 l 257
 515 0 l 257
 364 0 l 257
217 180 m 258
 217 126 234 95 284 95 c 256
 332 95 364 126 364 180 c 257
 394 186 l 257
 394 77 338 -11 224 -11 c 256
 110 -11 60 51 60 164 c 258
 60 460 l 257
 217 460 l 257
 217 180 l 258
432 688 m 257
 252 538 l 257
 167 581 l 257
 317 741 l 257
 432 688 l 257
EndSplineSet
EndChar

StartChar: ucircumflex
Encoding: 251 251 240
Width: 574
VWidth: 0
Flags: HMW
LayerCount: 2
Fore
SplineSet
364 0 m 257
 364 460 l 257
 515 460 l 257
 515 0 l 257
 364 0 l 257
217 180 m 258
 217 126 234 95 284 95 c 256
 332 95 364 126 364 180 c 257
 394 186 l 257
 394 77 338 -11 224 -11 c 256
 110 -11 60 51 60 164 c 258
 60 460 l 257
 217 460 l 257
 217 180 l 258
287 624 m 257
 195 538 l 257
 90 609 l 257
 287 749 l 257
 484 609 l 257
 378 538 l 257
 287 624 l 257
EndSplineSet
EndChar

StartChar: udieresis
Encoding: 252 252 241
Width: 574
VWidth: 0
Flags: HMW
LayerCount: 2
Fore
SplineSet
364 0 m 257
 364 460 l 257
 515 460 l 257
 515 0 l 257
 364 0 l 257
217 180 m 258
 217 126 234 95 284 95 c 256
 332 95 364 126 364 180 c 257
 394 186 l 257
 394 77 338 -11 224 -11 c 256
 110 -11 60 51 60 164 c 258
 60 460 l 257
 217 460 l 257
 217 180 l 258
322 620 m 256
 322 668 360 702 409 702 c 256
 458 702 497 668 497 620 c 256
 497 572 458 538 409 538 c 256
 360 538 322 572 322 620 c 256
78 620 m 256
 78 668 117 702 166 702 c 256
 215 702 254 668 254 620 c 256
 254 572 215 538 166 538 c 256
 117 538 78 572 78 620 c 256
EndSplineSet
EndChar

StartChar: yacute
Encoding: 253 253 242
Width: 520
VWidth: 0
Flags: HMW
LayerCount: 2
Fore
SplineSet
530 460 m 257
 230 -220 l 257
 78 -220 l 257
 190 37 l 257
 -9 460 l 257
 157 460 l 257
 305 91 l 257
 228 92 l 257
 375 460 l 257
 530 460 l 257
421 688 m 257
 241 538 l 257
 156 581 l 257
 306 741 l 257
 421 688 l 257
EndSplineSet
EndChar

StartChar: thorn
Encoding: 254 254 243
Width: 616
VWidth: 0
Flags: HMW
LayerCount: 2
Fore
SplineSet
209 -220 m 257
 58 -220 l 257
 58 780 l 257
 209 780 l 257
 209 -220 l 257
585 230 m 256
 585 75 479 -10 366 -10 c 256
 251 -10 167 81 167 230 c 256
 167 379 251 470 366 470 c 256
 479 470 585 385 585 230 c 256
426 230 m 256
 426 302 376 348 316 348 c 256
 265 348 209 305 209 230 c 256
 209 155 265 112 316 112 c 256
 376 112 426 158 426 230 c 256
EndSplineSet
EndChar

StartChar: ydieresis
Encoding: 255 255 244
Width: 520
VWidth: 0
Flags: HMW
LayerCount: 2
Fore
SplineSet
530 460 m 257
 230 -220 l 257
 78 -220 l 257
 190 37 l 257
 -9 460 l 257
 157 460 l 257
 305 91 l 257
 228 92 l 257
 375 460 l 257
 530 460 l 257
294 612 m 256
 294 660 333 694 382 694 c 256
 431 694 470 660 470 612 c 256
 470 564 431 531 382 531 c 256
 333 531 294 564 294 612 c 256
51 612 m 256
 51 660 90 694 139 694 c 256
 188 694 226 660 226 612 c 256
 226 564 188 531 139 531 c 256
 90 531 51 564 51 612 c 256
EndSplineSet
EndChar

StartChar: Amacron
Encoding: 256 256 245
Width: 734
VWidth: 0
Flags: HMW
LayerCount: 2
Fore
SplineSet
184 136 m 257
 196 264 l 257
 543 264 l 257
 554 136 l 257
 184 136 l 257
367 443 m 257
 269 218 l 257
 277 180 l 257
 190 0 l 257
 -1 0 l 257
 367 744 l 257
 736 0 l 257
 544 0 l 257
 460 173 l 257
 466 216 l 257
 367 443 l 257
182 804 m 257
 182 935 l 257
 553 935 l 257
 553 804 l 257
 182 804 l 257
EndSplineSet
EndChar

StartChar: amacron
Encoding: 257 257 246
Width: 543
VWidth: 0
Flags: HMW
LayerCount: 2
Fore
SplineSet
176 137 m 256
 176 104 202 89 242 89 c 256
 297 89 345 112 345 186 c 257
 361 130 l 257
 361 41 286 -10 191 -10 c 256
 90 -10 24 41 24 128 c 256
 24 223 106 279 223 279 c 256
 292 279 358 251 378 230 c 257
 378 159 l 257
 344 185 310 197 258 197 c 256
 206 197 176 173 176 137 c 256
117 319 m 257
 66 420 l 257
 119 445 193 473 276 473 c 256
 400 473 490 419 490 324 c 258
 490 0 l 257
 345 0 l 257
 345 294 l 258
 345 333 314 358 264 358 c 256
 198 358 139 332 117 319 c 257
90 541 m 257
 90 672 l 257
 462 672 l 257
 462 541 l 257
 90 541 l 257
EndSplineSet
Substitution2: "alt a" amacron.alt
EndChar

StartChar: breve
Encoding: 728 728 247
Width: 546
VWidth: 0
Flags: HMW
LayerCount: 2
Fore
SplineSet
109 850 m 257
 208 850 l 257
 208 815 234 790 273 790 c 256
 312 790 338 815 338 850 c 257
 437 850 l 257
 437 769 378 704 273 704 c 256
 168 704 109 769 109 850 c 257
EndSplineSet
EndChar

StartChar: Abreve
Encoding: 258 258 248
Width: 734
VWidth: 0
Flags: HMW
LayerCount: 2
Fore
SplineSet
184 136 m 257
 196 264 l 257
 543 264 l 257
 554 136 l 257
 184 136 l 257
367 443 m 257
 269 218 l 257
 277 180 l 257
 190 0 l 257
 -1 0 l 257
 367 744 l 257
 736 0 l 257
 544 0 l 257
 460 173 l 257
 466 216 l 257
 367 443 l 257
203 950 m 257
 302 950 l 257
 302 915 328 891 367 891 c 256
 406 891 432 915 432 950 c 257
 531 950 l 257
 531 869 472 804 367 804 c 256
 262 804 203 869 203 950 c 257
EndSplineSet
EndChar

StartChar: abreve
Encoding: 259 259 249
Width: 543
VWidth: 0
Flags: HMW
LayerCount: 2
Fore
SplineSet
176 137 m 256
 176 104 202 89 242 89 c 256
 297 89 345 112 345 186 c 257
 361 130 l 257
 361 41 286 -10 191 -10 c 256
 90 -10 24 41 24 128 c 256
 24 223 106 279 223 279 c 256
 292 279 358 251 378 230 c 257
 378 159 l 257
 344 185 310 197 258 197 c 256
 206 197 176 173 176 137 c 256
117 319 m 257
 66 420 l 257
 119 445 193 473 276 473 c 256
 400 473 490 419 490 324 c 258
 490 0 l 257
 345 0 l 257
 345 294 l 258
 345 333 314 358 264 358 c 256
 198 358 139 332 117 319 c 257
112 679 m 257
 211 679 l 257
 211 644 237 620 276 620 c 256
 315 620 341 644 341 679 c 257
 440 679 l 257
 440 598 381 533 276 533 c 256
 171 533 112 598 112 679 c 257
EndSplineSet
Substitution2: "alt a" abreve.alt
EndChar

StartChar: Aogonek
Encoding: 260 260 250
Width: 734
VWidth: 0
Flags: HMW
LayerCount: 2
Fore
SplineSet
184 136 m 257
 196 264 l 257
 543 264 l 257
 554 136 l 257
 184 136 l 257
367 443 m 257
 269 218 l 257
 277 180 l 257
 190 0 l 257
 -1 0 l 257
 367 744 l 257
 736 0 l 257
 544 0 l 257
 460 173 l 257
 466 216 l 257
 367 443 l 257
691 -111 m 257
 724 -180 l 257
 709 -200 679 -220 624 -220 c 256
 559 -220 507 -185 507 -120 c 256
 507 -55 575 -11 645 25 c 257
 686 0 l 257
 634 -28 605 -63 605 -94 c 256
 605 -119 617 -131 641 -131 c 256
 661 -131 677 -124 691 -111 c 257
EndSplineSet
EndChar

StartChar: aogonek
Encoding: 261 261 251
Width: 543
VWidth: 0
Flags: HMW
LayerCount: 2
Fore
SplineSet
176 137 m 256
 176 104 206 89 242 89 c 256
 297 89 345 112 345 186 c 257
 361 130 l 257
 361 41 286 -10 191 -10 c 256
 93 -10 24 40 24 131 c 256
 24 222 102 279 223 279 c 256
 292 279 358 251 378 230 c 257
 378 159 l 257
 344 185 310 197 258 197 c 256
 206 197 176 173 176 137 c 256
117 319 m 257
 66 420 l 257
 119 445 193 473 276 473 c 256
 400 473 490 419 490 324 c 258
 490 0 l 257
 345 0 l 257
 345 294 l 258
 345 333 314 358 264 358 c 256
 198 358 139 332 117 319 c 257
464 -111 m 257
 497 -180 l 257
 482 -200 452 -220 397 -220 c 256
 332 -220 280 -185 280 -120 c 256
 280 -55 348 -11 418 25 c 257
 459 0 l 257
 407 -28 378 -63 378 -94 c 256
 378 -119 390 -131 414 -131 c 256
 434 -131 450 -124 464 -111 c 257
EndSplineSet
Substitution2: "alt a" aogonek.alt
EndChar

StartChar: Cacute
Encoding: 262 262 252
Width: 700
VWidth: 0
Flags: HMW
LayerCount: 2
Fore
SplineSet
218 350 m 256
 218 221 315 144 428 144 c 256
 527 144 591 187 637 237 c 257
 637 55 l 257
 580 12 520 -16 418 -16 c 256
 193 -16 34 132 34 350 c 256
 34 568 193 716 418 716 c 256
 520 716 580 688 637 645 c 257
 637 463 l 257
 591 513 527 556 428 556 c 256
 315 556 218 479 218 350 c 256
548 926 m 257
 368 776 l 257
 283 819 l 257
 433 979 l 257
 548 926 l 257
EndSplineSet
EndChar

StartChar: cacute
Encoding: 263 263 253
Width: 493
VWidth: 0
Flags: HMW
LayerCount: 2
Fore
SplineSet
185 230 m 256
 185 156 240 110 308 110 c 256
 363 110 417 135 444 179 c 257
 444 32 l 257
 412 6 365 -10 296 -10 c 256
 142 -10 30 85 30 230 c 256
 30 375 142 470 296 470 c 256
 365 470 412 453 444 430 c 257
 444 282 l 257
 417 326 357 350 308 350 c 256
 240 350 185 298 185 230 c 256
426 681 m 257
 246 531 l 257
 161 573 l 257
 311 733 l 257
 426 681 l 257
EndSplineSet
EndChar

StartChar: Ccircumflex
Encoding: 264 264 254
Width: 700
VWidth: 0
Flags: HMW
LayerCount: 2
Fore
SplineSet
218 350 m 256
 218 221 315 144 428 144 c 256
 527 144 591 187 637 237 c 257
 637 55 l 257
 580 12 520 -16 418 -16 c 256
 193 -16 34 132 34 350 c 256
 34 568 193 716 418 716 c 256
 520 716 580 688 637 645 c 257
 637 463 l 257
 591 513 527 556 428 556 c 256
 315 556 218 479 218 350 c 256
418 862 m 257
 326 776 l 257
 221 847 l 257
 418 987 l 257
 615 847 l 257
 509 776 l 257
 418 862 l 257
EndSplineSet
EndChar

StartChar: ccircumflex
Encoding: 265 265 255
Width: 493
VWidth: 0
Flags: HMW
LayerCount: 2
Fore
SplineSet
185 230 m 256
 185 156 240 110 308 110 c 256
 363 110 417 135 444 179 c 257
 444 32 l 257
 412 6 365 -10 296 -10 c 256
 142 -10 30 85 30 230 c 256
 30 375 142 470 296 470 c 256
 365 470 412 453 444 430 c 257
 444 282 l 257
 417 326 357 350 308 350 c 256
 240 350 185 298 185 230 c 256
265 616 m 257
 174 531 l 257
 68 602 l 257
 265 742 l 257
 462 602 l 257
 356 531 l 257
 265 616 l 257
EndSplineSet
EndChar

StartChar: Cdotaccent
Encoding: 266 266 256
Width: 700
VWidth: 0
Flags: HMW
LayerCount: 2
Fore
SplineSet
218 350 m 256
 218 221 315 144 428 144 c 256
 527 144 591 187 637 237 c 257
 637 55 l 257
 580 12 520 -16 418 -16 c 256
 193 -16 34 132 34 350 c 256
 34 568 193 716 418 716 c 256
 520 716 580 688 637 645 c 257
 637 463 l 257
 591 513 527 556 428 556 c 256
 315 556 218 479 218 350 c 256
305 858 m 256
 305 906 344 940 393 940 c 256
 442 940 481 906 481 858 c 256
 481 810 442 776 393 776 c 256
 344 776 305 810 305 858 c 256
EndSplineSet
EndChar

StartChar: cdotaccent
Encoding: 267 267 257
Width: 493
VWidth: 0
Flags: HMW
LayerCount: 2
Fore
SplineSet
185 230 m 256
 185 156 240 110 308 110 c 256
 363 110 417 135 444 179 c 257
 444 32 l 257
 412 6 365 -10 296 -10 c 256
 142 -10 30 85 30 230 c 256
 30 375 142 470 296 470 c 256
 365 470 412 453 444 430 c 257
 444 282 l 257
 417 326 357 350 308 350 c 256
 240 350 185 298 185 230 c 256
183 618 m 256
 183 666 222 700 271 700 c 256
 320 700 359 666 359 618 c 256
 359 570 320 537 271 537 c 256
 222 537 183 570 183 618 c 256
EndSplineSet
EndChar

StartChar: Ccaron
Encoding: 268 268 258
Width: 700
VWidth: 0
Flags: HMW
LayerCount: 2
Fore
SplineSet
218 350 m 256
 218 221 315 144 428 144 c 256
 527 144 591 187 637 237 c 257
 637 55 l 257
 580 12 520 -16 418 -16 c 256
 193 -16 34 132 34 350 c 256
 34 568 193 716 418 716 c 256
 520 716 580 688 637 645 c 257
 637 463 l 257
 591 513 527 556 428 556 c 256
 315 556 218 479 218 350 c 256
418 902 m 257
 509 987 l 257
 615 916 l 257
 418 776 l 257
 221 916 l 257
 326 987 l 257
 418 902 l 257
EndSplineSet
EndChar

StartChar: ccaron
Encoding: 269 269 259
Width: 493
VWidth: 0
Flags: HMW
LayerCount: 2
Fore
SplineSet
185 230 m 256
 185 156 240 110 308 110 c 256
 363 110 417 135 444 179 c 257
 444 32 l 257
 412 6 365 -10 296 -10 c 256
 142 -10 30 85 30 230 c 256
 30 375 142 470 296 470 c 256
 365 470 412 453 444 430 c 257
 444 282 l 257
 417 326 357 350 308 350 c 256
 240 350 185 298 185 230 c 256
265 656 m 257
 356 742 l 257
 462 671 l 257
 265 531 l 257
 68 671 l 257
 174 742 l 257
 265 656 l 257
EndSplineSet
EndChar

StartChar: Dcaron
Encoding: 270 270 260
Width: 732
VWidth: 0
Flags: HMW
LayerCount: 2
Fore
SplineSet
74 700 m 257
 248 700 l 257
 248 0 l 257
 74 0 l 257
 74 700 l 257
324 0 m 258
 186 0 l 257
 186 150 l 257
 318 150 l 258
 426 150 524 199 524 350 c 256
 524 501 426 550 318 550 c 258
 186 550 l 257
 186 700 l 257
 324 700 l 258
 553 700 699 565 699 350 c 256
 699 135 553 0 324 0 c 258
375 902 m 257
 466 987 l 257
 572 916 l 257
 375 776 l 257
 178 916 l 257
 284 987 l 257
 375 902 l 257
EndSplineSet
EndChar

StartChar: dcaron
Encoding: 271 271 261
Width: 616
VWidth: 0
Flags: HMW
LayerCount: 2
Fore
SplineSet
408 780 m 257
 559 780 l 257
 559 0 l 257
 408 0 l 257
 408 780 l 257
32 230 m 256
 32 385 138 470 251 470 c 256
 366 470 450 379 450 230 c 256
 450 81 366 -10 251 -10 c 256
 138 -10 32 75 32 230 c 256
190 230 m 256
 190 158 241 112 301 112 c 256
 352 112 408 155 408 230 c 256
 408 305 352 348 301 348 c 256
 241 348 190 302 190 230 c 256
677 780 m 257
 828 748 l 257
 703 498 l 257
 589 521 l 257
 677 780 l 257
EndSplineSet
EndChar

StartChar: Dcroat
Encoding: 272 272 262
Width: 732
VWidth: 0
Flags: HMW
LayerCount: 2
Fore
SplineSet
5 298 m 257
 5 397 l 257
 348 397 l 257
 348 298 l 257
 5 298 l 257
74 700 m 257
 248 700 l 257
 248 0 l 257
 74 0 l 257
 74 700 l 257
324 0 m 258
 186 0 l 257
 186 150 l 257
 318 150 l 258
 426 150 524 199 524 350 c 256
 524 501 426 550 318 550 c 258
 186 550 l 257
 186 700 l 257
 324 700 l 258
 553 700 699 565 699 350 c 256
 699 135 553 0 324 0 c 258
EndSplineSet
EndChar

StartChar: dcroat
Encoding: 273 273 263
Width: 616
VWidth: 0
Flags: HMW
LayerCount: 2
Fore
SplineSet
295 565 m 257
 295 665 l 257
 651 665 l 257
 651 565 l 257
 295 565 l 257
408 780 m 257
 559 780 l 257
 559 0 l 257
 408 0 l 257
 408 780 l 257
32 230 m 256
 32 385 138 470 251 470 c 256
 366 470 450 379 450 230 c 256
 450 81 366 -10 251 -10 c 256
 138 -10 32 75 32 230 c 256
190 230 m 256
 190 158 241 112 301 112 c 256
 352 112 408 155 408 230 c 256
 408 305 352 348 301 348 c 256
 241 348 190 302 190 230 c 256
EndSplineSet
EndChar

StartChar: Emacron
Encoding: 274 274 264
Width: 602
VWidth: 0
Flags: HMW
LayerCount: 2
Fore
SplineSet
186 0 m 257
 186 139 l 257
 539 139 l 257
 539 0 l 257
 186 0 l 257
186 561 m 257
 186 700 l 257
 539 700 l 257
 539 561 l 257
 186 561 l 257
186 300 m 257
 186 436 l 257
 519 436 l 257
 519 300 l 257
 186 300 l 257
74 700 m 257
 236 700 l 257
 236 0 l 257
 74 0 l 257
 74 700 l 257
120 776 m 257
 120 907 l 257
 492 907 l 257
 492 776 l 257
 120 776 l 257
EndSplineSet
EndChar

StartChar: emacron
Encoding: 275 275 265
Width: 573
VWidth: 0
Flags: HMW
LayerCount: 2
Fore
SplineSet
117 198 m 257
 117 282 l 257
 377 282 l 257
 370 337 343 369 288 369 c 256
 227 369 186 328 186 254 c 257
 184 230 l 257
 184 136 232 99 291 99 c 256
 346 99 383 121 405 159 c 257
 540 126 l 257
 494 44 424 -10 293 -10 c 256
 125 -10 32 91 32 230 c 256
 32 247 33 263 36 279 c 256
 55 392 141 470 291 470 c 256
 452 470 539 382 539 237 c 256
 539 229 539 214 537 198 c 257
 117 198 l 257
105 531 m 257
 105 661 l 257
 477 661 l 257
 477 531 l 257
 105 531 l 257
EndSplineSet
EndChar

StartChar: Ebreve
Encoding: 276 276 266
Width: 602
VWidth: 0
Flags: HMW
LayerCount: 2
Fore
SplineSet
186 0 m 257
 186 139 l 257
 539 139 l 257
 539 0 l 257
 186 0 l 257
186 561 m 257
 186 700 l 257
 539 700 l 257
 539 561 l 257
 186 561 l 257
186 300 m 257
 186 436 l 257
 519 436 l 257
 519 300 l 257
 186 300 l 257
74 700 m 257
 236 700 l 257
 236 0 l 257
 74 0 l 257
 74 700 l 257
142 922 m 257
 241 922 l 257
 241 887 267 863 306 863 c 256
 345 863 371 887 371 922 c 257
 470 922 l 257
 470 841 411 776 306 776 c 256
 201 776 142 841 142 922 c 257
EndSplineSet
EndChar

StartChar: ebreve
Encoding: 277 277 267
Width: 573
VWidth: 0
Flags: HMW
LayerCount: 2
Fore
SplineSet
117 198 m 257
 117 282 l 257
 377 282 l 257
 370 337 343 369 288 369 c 256
 227 369 186 328 186 254 c 257
 184 230 l 257
 184 136 232 99 291 99 c 256
 346 99 383 121 405 159 c 257
 540 126 l 257
 494 44 424 -10 293 -10 c 256
 125 -10 32 91 32 230 c 256
 32 247 33 263 36 279 c 256
 55 392 141 470 291 470 c 256
 452 470 539 382 539 237 c 256
 539 229 539 214 537 198 c 257
 117 198 l 257
127 677 m 257
 226 677 l 257
 226 642 252 617 291 617 c 256
 330 617 356 642 356 677 c 257
 455 677 l 257
 455 596 396 531 291 531 c 256
 186 531 127 596 127 677 c 257
EndSplineSet
EndChar

StartChar: Edotaccent
Encoding: 278 278 268
Width: 602
VWidth: 0
Flags: HMW
LayerCount: 2
Fore
SplineSet
186 0 m 257
 186 139 l 257
 539 139 l 257
 539 0 l 257
 186 0 l 257
186 561 m 257
 186 700 l 257
 539 700 l 257
 539 561 l 257
 186 561 l 257
186 300 m 257
 186 436 l 257
 519 436 l 257
 519 300 l 257
 186 300 l 257
74 700 m 257
 236 700 l 257
 236 0 l 257
 74 0 l 257
 74 700 l 257
218 858 m 256
 218 906 257 940 306 940 c 256
 355 940 394 906 394 858 c 256
 394 810 355 776 306 776 c 256
 257 776 218 810 218 858 c 256
EndSplineSet
EndChar

StartChar: edotaccent
Encoding: 279 279 269
Width: 573
VWidth: 0
Flags: HMW
LayerCount: 2
Fore
SplineSet
117 198 m 257
 117 282 l 257
 377 282 l 257
 370 337 343 369 288 369 c 256
 227 369 186 328 186 254 c 257
 184 230 l 257
 184 136 232 99 291 99 c 256
 346 99 383 121 405 159 c 257
 540 126 l 257
 494 44 424 -10 293 -10 c 256
 125 -10 32 91 32 230 c 256
 32 247 33 263 36 279 c 256
 55 392 141 470 291 470 c 256
 452 470 539 382 539 237 c 256
 539 229 539 214 537 198 c 257
 117 198 l 257
203 612 m 256
 203 660 242 694 291 694 c 256
 340 694 379 660 379 612 c 256
 379 564 340 531 291 531 c 256
 242 531 203 564 203 612 c 256
EndSplineSet
EndChar

StartChar: Eogonek
Encoding: 280 280 270
Width: 602
VWidth: 0
Flags: HMW
LayerCount: 2
Fore
SplineSet
186 0 m 257
 186 139 l 257
 539 139 l 257
 539 0 l 257
 186 0 l 257
186 561 m 257
 186 700 l 257
 539 700 l 257
 539 561 l 257
 186 561 l 257
186 300 m 257
 186 436 l 257
 519 436 l 257
 519 300 l 257
 186 300 l 257
74 700 m 257
 236 700 l 257
 236 0 l 257
 74 0 l 257
 74 700 l 257
399 -111 m 257
 432 -180 l 257
 417 -200 387 -220 332 -220 c 256
 267 -220 215 -185 215 -120 c 256
 215 -55 283 -11 353 25 c 257
 394 0 l 257
 342 -28 314 -63 314 -94 c 256
 314 -119 325 -131 349 -131 c 256
 369 -131 385 -124 399 -111 c 257
EndSplineSet
EndChar

StartChar: eogonek
Encoding: 281 281 271
Width: 573
VWidth: 0
Flags: HMW
LayerCount: 2
Fore
SplineSet
117 198 m 257
 117 282 l 257
 377 282 l 257
 370 337 343 369 288 369 c 256
 227 369 186 328 186 254 c 257
 184 230 l 257
 184 136 232 99 291 99 c 256
 346 99 383 121 405 159 c 257
 540 126 l 257
 494 44 424 -10 293 -10 c 256
 125 -10 32 91 32 230 c 256
 32 247 33 263 36 279 c 256
 55 392 141 470 291 470 c 256
 452 470 539 382 539 237 c 256
 539 229 539 214 537 198 c 257
 117 198 l 257
327 -104 m 257
 360 -172 l 257
 345 -192 315 -212 260 -212 c 256
 195 -212 143 -177 143 -112 c 256
 143 -47 211 -3 281 33 c 257
 322 8 l 257
 270 -20 241 -55 241 -86 c 256
 241 -111 253 -124 277 -124 c 256
 297 -124 313 -117 327 -104 c 257
EndSplineSet
EndChar

StartChar: Ecaron
Encoding: 282 282 272
Width: 602
VWidth: 0
Flags: HMW
LayerCount: 2
Fore
SplineSet
186 0 m 257
 186 139 l 257
 539 139 l 257
 539 0 l 257
 186 0 l 257
186 561 m 257
 186 700 l 257
 539 700 l 257
 539 561 l 257
 186 561 l 257
186 300 m 257
 186 436 l 257
 519 436 l 257
 519 300 l 257
 186 300 l 257
74 700 m 257
 236 700 l 257
 236 0 l 257
 74 0 l 257
 74 700 l 257
306 902 m 257
 397 987 l 257
 503 916 l 257
 306 776 l 257
 109 916 l 257
 215 987 l 257
 306 902 l 257
EndSplineSet
EndChar

StartChar: ecaron
Encoding: 283 283 273
Width: 573
VWidth: 0
Flags: HMW
LayerCount: 2
Fore
SplineSet
117 198 m 257
 117 282 l 257
 377 282 l 257
 370 337 343 369 288 369 c 256
 227 369 186 328 186 254 c 257
 184 230 l 257
 184 136 232 99 291 99 c 256
 346 99 383 121 405 159 c 257
 540 126 l 257
 494 44 424 -10 293 -10 c 256
 125 -10 32 91 32 230 c 256
 32 247 33 263 36 279 c 256
 55 392 141 470 291 470 c 256
 452 470 539 382 539 237 c 256
 539 229 539 214 537 198 c 257
 117 198 l 257
291 656 m 257
 382 742 l 257
 488 671 l 257
 291 531 l 257
 94 671 l 257
 200 742 l 257
 291 656 l 257
EndSplineSet
EndChar

StartChar: Gcircumflex
Encoding: 284 284 274
Width: 814
VWidth: 0
Flags: HMW
LayerCount: 2
Fore
SplineSet
420 253 m 257
 420 383 l 257
 775 383 l 257
 787 161 656 -22 417 -22 c 256
 194 -22 34 129 34 350 c 256
 34 571 200 716 423 716 c 256
 571 716 673 647 739 550 c 257
 589 473 l 257
 557 528 505 569 423 569 c 256
 306 569 211 488 211 350 c 256
 211 212 300 125 423 125 c 256
 526 125 584 179 607 253 c 257
 420 253 l 257
423 862 m 257
 332 776 l 257
 226 847 l 257
 423 987 l 257
 620 847 l 257
 514 776 l 257
 423 862 l 257
EndSplineSet
EndChar

StartChar: gcircumflex
Encoding: 285 285 275
Width: 610
VWidth: 0
Flags: HMW
LayerCount: 2
Fore
SplineSet
42 -33 m 257
 188 -33 l 257
 193 -90 234 -118 293 -118 c 256
 357 -118 408 -75 408 10 c 258
 408 460 l 257
 553 460 l 257
 553 10 l 258
 553 -168 439 -239 299 -239 c 256
 127 -239 53 -155 42 -33 c 257
32 236 m 256
 32 391 138 470 251 470 c 256
 366 470 450 385 450 236 c 256
 450 87 366 2 251 2 c 256
 138 2 32 81 32 236 c 256
190 236 m 256
 190 164 241 124 301 124 c 256
 352 124 408 161 408 236 c 256
 408 311 352 348 301 348 c 256
 241 348 190 308 190 236 c 256
319 616 m 257
 227 531 l 257
 122 602 l 257
 319 742 l 257
 516 602 l 257
 410 531 l 257
 319 616 l 257
EndSplineSet
EndChar

StartChar: Gbreve
Encoding: 286 286 276
Width: 814
VWidth: 0
Flags: HMW
LayerCount: 2
Fore
SplineSet
420 253 m 257
 420 383 l 257
 775 383 l 257
 787 161 656 -22 417 -22 c 256
 194 -22 34 129 34 350 c 256
 34 571 200 716 423 716 c 256
 571 716 673 647 739 550 c 257
 589 473 l 257
 557 528 505 569 423 569 c 256
 306 569 211 488 211 350 c 256
 211 212 300 125 423 125 c 256
 526 125 584 179 607 253 c 257
 420 253 l 257
259 922 m 257
 358 922 l 257
 358 887 384 863 423 863 c 256
 462 863 488 887 488 922 c 257
 587 922 l 257
 587 841 528 776 423 776 c 256
 318 776 259 841 259 922 c 257
EndSplineSet
EndChar

StartChar: gbreve
Encoding: 287 287 277
Width: 610
VWidth: 0
Flags: HMW
LayerCount: 2
Fore
SplineSet
42 -33 m 257
 188 -33 l 257
 193 -90 234 -118 293 -118 c 256
 357 -118 408 -75 408 10 c 258
 408 460 l 257
 553 460 l 257
 553 10 l 258
 553 -168 439 -239 299 -239 c 256
 127 -239 53 -155 42 -33 c 257
32 236 m 256
 32 391 138 470 251 470 c 256
 366 470 450 385 450 236 c 256
 450 87 366 2 251 2 c 256
 138 2 32 81 32 236 c 256
190 236 m 256
 190 164 241 124 301 124 c 256
 352 124 408 161 408 236 c 256
 408 311 352 348 301 348 c 256
 241 348 190 308 190 236 c 256
155 677 m 257
 254 677 l 257
 254 642 280 617 319 617 c 256
 358 617 384 642 384 677 c 257
 483 677 l 257
 483 596 424 531 319 531 c 256
 214 531 155 596 155 677 c 257
EndSplineSet
EndChar

StartChar: Gdotaccent
Encoding: 288 288 278
Width: 814
VWidth: 0
Flags: HMW
LayerCount: 2
Fore
SplineSet
420 253 m 257
 420 383 l 257
 775 383 l 257
 787 161 656 -22 417 -22 c 256
 194 -22 34 129 34 350 c 256
 34 571 200 716 423 716 c 256
 571 716 673 647 739 550 c 257
 589 473 l 257
 557 528 505 569 423 569 c 256
 306 569 211 488 211 350 c 256
 211 212 300 125 423 125 c 256
 526 125 584 179 607 253 c 257
 420 253 l 257
335 858 m 256
 335 906 374 940 423 940 c 256
 472 940 511 906 511 858 c 256
 511 810 472 776 423 776 c 256
 374 776 335 810 335 858 c 256
EndSplineSet
EndChar

StartChar: gdotaccent
Encoding: 289 289 279
Width: 610
VWidth: 0
Flags: HMW
LayerCount: 2
Fore
SplineSet
42 -33 m 257
 188 -33 l 257
 193 -90 234 -118 293 -118 c 256
 357 -118 408 -75 408 10 c 258
 408 460 l 257
 553 460 l 257
 553 10 l 258
 553 -168 439 -239 299 -239 c 256
 127 -239 53 -155 42 -33 c 257
32 236 m 256
 32 391 138 470 251 470 c 256
 366 470 450 385 450 236 c 256
 450 87 366 2 251 2 c 256
 138 2 32 81 32 236 c 256
190 236 m 256
 190 164 241 124 301 124 c 256
 352 124 408 161 408 236 c 256
 408 311 352 348 301 348 c 256
 241 348 190 308 190 236 c 256
220 627 m 256
 220 675 259 709 308 709 c 256
 357 709 396 675 396 627 c 256
 396 579 357 546 308 546 c 256
 259 546 220 579 220 627 c 256
EndSplineSet
EndChar

StartChar: uni0122
Encoding: 290 290 280
Width: 814
VWidth: 0
Flags: HMW
LayerCount: 2
Fore
SplineSet
420 253 m 257
 420 383 l 257
 775 383 l 257
 787 161 656 -22 417 -22 c 256
 194 -22 34 129 34 350 c 256
 34 571 200 716 423 716 c 256
 571 716 673 647 739 550 c 257
 589 473 l 257
 557 528 505 569 423 569 c 256
 306 569 211 488 211 350 c 256
 211 212 300 125 423 125 c 256
 526 125 584 179 607 253 c 257
 420 253 l 257
354 -82 m 257
 505 -115 l 257
 380 -365 l 257
 266 -341 l 257
 354 -82 l 257
EndSplineSet
EndChar

StartChar: Hcircumflex
Encoding: 292 292 281
Width: 786
VWidth: 0
Flags: HMW
LayerCount: 2
Fore
SplineSet
121 294 m 257
 121 445 l 257
 650 445 l 257
 650 294 l 257
 121 294 l 257
544 700 m 257
 712 700 l 257
 712 0 l 257
 544 0 l 257
 544 700 l 257
74 700 m 257
 242 700 l 257
 242 0 l 257
 74 0 l 257
 74 700 l 257
393 862 m 257
 302 776 l 257
 196 847 l 257
 393 987 l 257
 591 847 l 257
 485 776 l 257
 393 862 l 257
EndSplineSet
EndChar

StartChar: hcircumflex
Encoding: 293 293 282
Width: 568
VWidth: 0
Flags: HMW
LayerCount: 2
Fore
SplineSet
211 780 m 257
 211 0 l 257
 60 0 l 257
 60 780 l 257
 211 780 l 257
358 280 m 258
 358 334 341 365 291 365 c 256
 243 365 211 334 211 280 c 257
 181 280 l 257
 181 389 237 477 351 477 c 256
 465 477 509 415 509 302 c 258
 509 0 l 257
 358 0 l 257
 358 280 l 258
231 926 m 257
 140 840 l 257
 34 911 l 257
 231 1051 l 257
 428 911 l 257
 323 840 l 257
 231 926 l 257
EndSplineSet
EndChar

StartChar: Itilde
Encoding: 296 296 283
Width: 319
VWidth: 0
Flags: HMW
LayerCount: 2
Fore
SplineSet
74 700 m 257
 246 700 l 257
 246 0 l 257
 74 0 l 257
 74 700 l 257
-36 842 m 257
 -26 891 19 936 83 936 c 256
 149 936 163 884 219 884 c 256
 244 884 265 905 285 937 c 257
 356 863 l 257
 340 826 284 778 222 778 c 256
 167 778 132 831 83 831 c 256
 45 831 35 795 35 780 c 257
 -36 842 l 257
EndSplineSet
EndChar

StartChar: itilde
Encoding: 297 297 284
Width: 276
VWidth: 0
Flags: HMW
LayerCount: 2
Fore
SplineSet
65 460 m 257
 211 460 l 257
 211 0 l 257
 65 0 l 257
 65 460 l 257
-58 596 m 257
 -48 645 -3 691 61 691 c 256
 127 691 141 639 197 639 c 256
 222 639 243 660 263 692 c 257
 334 618 l 257
 318 581 262 532 200 532 c 256
 145 532 110 585 61 585 c 256
 23 585 13 549 13 534 c 257
 -58 596 l 257
EndSplineSet
EndChar

StartChar: Imacron
Encoding: 298 298 285
Width: 319
VWidth: 0
Flags: HMW
LayerCount: 2
Fore
SplineSet
74 700 m 257
 246 700 l 257
 246 0 l 257
 74 0 l 257
 74 700 l 257
-26 776 m 257
 -26 907 l 257
 346 907 l 257
 346 776 l 257
 -26 776 l 257
EndSplineSet
EndChar

StartChar: imacron
Encoding: 299 299 286
Width: 276
VWidth: 0
Flags: HMW
LayerCount: 2
Fore
SplineSet
65 460 m 257
 211 460 l 257
 211 0 l 257
 65 0 l 257
 65 460 l 257
-48 531 m 257
 -48 661 l 257
 324 661 l 257
 324 531 l 257
 -48 531 l 257
EndSplineSet
EndChar

StartChar: Ibreve
Encoding: 300 300 287
Width: 319
VWidth: 0
Flags: HMW
LayerCount: 2
Fore
SplineSet
74 700 m 257
 246 700 l 257
 246 0 l 257
 74 0 l 257
 74 700 l 257
-5 922 m 257
 94 922 l 257
 94 887 121 863 160 863 c 256
 199 863 225 887 225 922 c 257
 324 922 l 257
 324 841 265 776 160 776 c 256
 55 776 -5 841 -5 922 c 257
EndSplineSet
EndChar

StartChar: ibreve
Encoding: 301 301 288
Width: 276
VWidth: 0
Flags: HMW
LayerCount: 2
Fore
SplineSet
65 460 m 257
 211 460 l 257
 211 0 l 257
 65 0 l 257
 65 460 l 257
-27 677 m 257
 72 677 l 257
 72 642 98 617 137 617 c 256
 176 617 203 642 203 677 c 257
 302 677 l 257
 302 596 242 531 137 531 c 256
 32 531 -27 596 -27 677 c 257
EndSplineSet
EndChar

StartChar: Iogonek
Encoding: 302 302 289
Width: 319
VWidth: 0
Flags: HMW
LayerCount: 2
Fore
SplineSet
74 700 m 257
 246 700 l 257
 246 0 l 257
 74 0 l 257
 74 700 l 257
225 -110 m 257
 258 -178 l 257
 243 -198 213 -218 158 -218 c 256
 93 -218 40 -183 40 -118 c 256
 40 -53 109 -9 179 27 c 257
 220 2 l 257
 168 -26 139 -61 139 -92 c 256
 139 -117 151 -130 175 -130 c 256
 195 -130 211 -123 225 -110 c 257
EndSplineSet
EndChar

StartChar: iogonek
Encoding: 303 303 290
Width: 276
VWidth: 0
Flags: HMW
LayerCount: 2
Fore
SplineSet
50 632 m 256
 50 680 89 714 138 714 c 256
 187 714 226 680 226 632 c 256
 226 584 187 550 138 550 c 256
 89 550 50 584 50 632 c 256
64 460 m 257
 211 460 l 257
 211 0 l 257
 64 0 l 257
 64 460 l 257
196 -111 m 257
 229 -180 l 257
 214 -200 184 -220 129 -220 c 256
 64 -220 12 -185 12 -120 c 256
 12 -55 80 -11 150 25 c 257
 191 0 l 257
 139 -28 110 -63 110 -94 c 256
 110 -119 122 -131 146 -131 c 256
 166 -131 182 -124 196 -111 c 257
EndSplineSet
EndChar

StartChar: Idotaccent
Encoding: 304 304 291
Width: 319
VWidth: 0
Flags: HMW
LayerCount: 2
Fore
SplineSet
74 700 m 257
 246 700 l 257
 246 0 l 257
 74 0 l 257
 74 700 l 257
71 858 m 256
 71 906 110 940 159 940 c 256
 208 940 247 906 247 858 c 256
 247 810 208 776 159 776 c 256
 110 776 71 810 71 858 c 256
EndSplineSet
EndChar

StartChar: uni0136
Encoding: 310 310 292
Width: 698
VWidth: 0
Flags: HMW
LayerCount: 2
Fore
SplineSet
74 700 m 257
 249 700 l 257
 249 0 l 257
 74 0 l 257
 74 700 l 257
486 700 m 257
 685 700 l 257
 401 372 l 257
 700 0 l 257
 495 0 l 257
 200 367 l 257
 486 700 l 257
330 -60 m 257
 482 -92 l 257
 356 -342 l 257
 242 -319 l 257
 330 -60 l 257
EndSplineSet
EndChar

StartChar: uni0137
Encoding: 311 311 293
Width: 576
VWidth: 0
Flags: HMW
LayerCount: 2
Fore
SplineSet
58 780 m 257
 203 780 l 257
 203 0 l 257
 58 0 l 257
 58 780 l 257
370 460 m 257
 550 460 l 257
 353 270 l 257
 570 0 l 257
 393 0 l 257
 173 270 l 257
 370 460 l 257
257 -60 m 257
 409 -92 l 257
 283 -342 l 257
 169 -319 l 257
 257 -60 l 257
EndSplineSet
EndChar

StartChar: Lacute
Encoding: 313 313 294
Width: 527
VWidth: 0
Flags: HMW
LayerCount: 2
Fore
SplineSet
74 700 m 257
 242 700 l 257
 242 145 l 257
 524 145 l 257
 524 0 l 257
 74 0 l 257
 74 700 l 257
460 926 m 257
 280 776 l 257
 194 819 l 257
 344 979 l 257
 460 926 l 257
EndSplineSet
EndChar

StartChar: lacute
Encoding: 314 314 295
Width: 270
VWidth: 0
Flags: HMW
LayerCount: 2
Fore
SplineSet
60 780 m 257
 211 780 l 257
 211 0 l 257
 60 0 l 257
 60 780 l 257
296 990 m 257
 116 840 l 257
 31 882 l 257
 181 1042 l 257
 296 990 l 257
EndSplineSet
EndChar

StartChar: uni013B
Encoding: 315 315 296
Width: 527
VWidth: 0
Flags: HMW
LayerCount: 2
Fore
SplineSet
74 700 m 257
 242 700 l 257
 242 145 l 257
 524 145 l 257
 524 0 l 257
 74 0 l 257
 74 700 l 257
267 -60 m 257
 418 -92 l 257
 293 -342 l 257
 179 -319 l 257
 267 -60 l 257
EndSplineSet
EndChar

StartChar: uni013C
Encoding: 316 316 297
Width: 270
VWidth: 0
Flags: HMW
LayerCount: 2
Fore
SplineSet
60 780 m 257
 211 780 l 257
 211 0 l 257
 60 0 l 257
 60 780 l 257
104 -60 m 257
 255 -92 l 257
 129 -342 l 257
 16 -319 l 257
 104 -60 l 257
EndSplineSet
EndChar

StartChar: Lcaron
Encoding: 317 317 298
Width: 527
VWidth: 0
Flags: HMW
LayerCount: 2
Fore
SplineSet
74 700 m 257
 242 700 l 257
 242 145 l 257
 524 145 l 257
 524 0 l 257
 74 0 l 257
 74 700 l 257
412 716 m 257
 563 684 l 257
 438 434 l 257
 324 457 l 257
 412 716 l 257
EndSplineSet
EndChar

StartChar: lcaron
Encoding: 318 318 299
Width: 270
VWidth: 0
Flags: HMW
LayerCount: 2
Fore
SplineSet
60 780 m 257
 211 780 l 257
 211 0 l 257
 60 0 l 257
 60 780 l 257
349 780 m 257
 500 748 l 257
 375 498 l 257
 261 521 l 257
 349 780 l 257
EndSplineSet
EndChar

StartChar: Ldot
Encoding: 319 319 300
Width: 527
VWidth: 0
Flags: HMW
LayerCount: 2
Fore
SplineSet
74 700 m 257
 242 700 l 257
 242 145 l 257
 524 145 l 257
 524 0 l 257
 74 0 l 257
 74 700 l 257
323 430 m 256
 323 480 362 523 417 523 c 256
 472 523 511 480 511 430 c 256
 511 380 472 338 417 338 c 256
 362 338 323 380 323 430 c 256
EndSplineSet
EndChar

StartChar: ldot
Encoding: 320 320 301
Width: 476
VWidth: 0
Flags: HMW
LayerCount: 2
Fore
SplineSet
60 780 m 257
 211 780 l 257
 211 0 l 257
 60 0 l 257
 60 780 l 257
252 409 m 256
 252 459 291 501 346 501 c 256
 401 501 440 459 440 409 c 256
 440 359 401 317 346 317 c 256
 291 317 252 359 252 409 c 256
EndSplineSet
EndChar

StartChar: eth
Encoding: 240 240 302
Width: 669
VWidth: 0
Flags: HMW
LayerCount: 2
Fore
SplineSet
452 246 m 256
 452 317 401 365 334 365 c 256
 267 365 217 317 217 246 c 256
 217 175 267 128 334 128 c 256
 401 128 452 175 452 246 c 256
336 697 m 257
 538 440 l 258
 584 384 619 322 619 246 c 256
 619 74 491 -16 334 -16 c 256
 177 -16 50 74 50 246 c 256
 50 387 161 473 266 473 c 256
 316 473 345 465 383 429 c 257
 349 444 l 257
 122 697 l 257
 336 697 l 257
136 520 m 257
 136 597 l 257
 573 597 l 257
 573 520 l 257
 136 520 l 257
EndSplineSet
EndChar

StartChar: racute
Encoding: 341 341 303
Width: 411
VWidth: 0
Flags: HMW
LayerCount: 2
Fore
SplineSet
208 460 m 257
 208 0 l 257
 60 0 l 257
 60 460 l 257
 208 460 l 257
340 304 m 257
 324 320 308 330 282 330 c 256
 237 330 208 293 208 227 c 257
 172 280 l 257
 172 389 246 471 323 471 c 256
 356 471 389 456 406 433 c 257
 340 304 l 257
394 681 m 257
 214 531 l 257
 129 574 l 257
 279 734 l 257
 394 681 l 257
EndSplineSet
EndChar

StartChar: rcaron
Encoding: 345 345 304
Width: 411
VWidth: 0
Flags: HMW
LayerCount: 2
Fore
SplineSet
208 460 m 257
 208 0 l 257
 60 0 l 257
 60 460 l 257
 208 460 l 257
340 304 m 257
 324 320 308 330 282 330 c 256
 237 330 208 293 208 227 c 257
 172 280 l 257
 172 389 246 471 323 471 c 256
 356 471 389 456 406 433 c 257
 340 304 l 257
233 657 m 257
 324 742 l 257
 430 671 l 257
 233 531 l 257
 35 671 l 257
 141 742 l 257
 233 657 l 257
EndSplineSet
EndChar

StartChar: Rcaron
Encoding: 344 344 305
Width: 646
VWidth: 0
Flags: HMW
LayerCount: 2
Fore
SplineSet
248 317 m 257
 424 317 l 257
 643 0 l 257
 445 0 l 257
 248 317 l 257
74 700 m 257
 242 700 l 257
 242 0 l 257
 74 0 l 257
 74 700 l 257
180 557 m 257
 180 700 l 257
 329 700 l 258
 507 700 601 606 601 471 c 256
 601 336 507 243 329 243 c 258
 180 243 l 257
 180 374 l 257
 316 374 l 258
 384 374 426 407 426 465 c 256
 426 523 384 557 316 557 c 258
 180 557 l 257
313 902 m 257
 404 987 l 257
 510 916 l 257
 313 776 l 257
 115 916 l 257
 221 987 l 257
 313 902 l 257
EndSplineSet
EndChar

StartChar: uni0213
Encoding: 531 531 306
Width: 411
VWidth: 0
Flags: HMW
LayerCount: 2
Fore
SplineSet
208 460 m 257
 208 0 l 257
 60 0 l 257
 60 460 l 257
 208 460 l 257
340 304 m 257
 324 320 308 330 282 330 c 256
 237 330 208 293 208 227 c 257
 172 280 l 257
 172 389 246 471 323 471 c 256
 356 471 389 456 406 433 c 257
 340 304 l 257
69 531 m 257
 168 531 l 257
 168 566 194 591 233 591 c 256
 272 591 298 566 298 531 c 257
 397 531 l 257
 397 612 338 677 233 677 c 256
 128 677 69 612 69 531 c 257
EndSplineSet
EndChar

StartChar: uni0212
Encoding: 530 530 307
Width: 646
VWidth: 0
Flags: HMW
LayerCount: 2
Fore
SplineSet
248 317 m 257
 424 317 l 257
 643 0 l 257
 445 0 l 257
 248 317 l 257
74 700 m 257
 242 700 l 257
 242 0 l 257
 74 0 l 257
 74 700 l 257
180 557 m 257
 180 700 l 257
 329 700 l 258
 507 700 601 606 601 471 c 256
 601 336 507 243 329 243 c 258
 180 243 l 257
 180 374 l 257
 316 374 l 258
 384 374 426 407 426 465 c 256
 426 523 384 557 316 557 c 258
 180 557 l 257
162 776 m 257
 261 776 l 257
 261 811 287 836 326 836 c 256
 365 836 392 811 392 776 c 257
 491 776 l 257
 491 857 431 922 326 922 c 256
 221 922 162 857 162 776 c 257
EndSplineSet
EndChar

StartChar: OE
Encoding: 338 338 308
Width: 985
VWidth: 0
Flags: HMW
LayerCount: 2
Fore
SplineSet
562 300 m 257
 562 436 l 257
 929 436 l 257
 929 300 l 257
 562 300 l 257
484 670 m 257
 646 670 l 257
 646 30 l 257
 484 30 l 257
 484 670 l 257
950 139 m 257
 950 0 l 257
 390 0 l 258
 187 0 34 141 34 350 c 256
 34 559 186 700 390 700 c 258
 949 700 l 257
 949 561 l 257
 568 561 l 257
 551 552 l 257
 421 552 l 258
 282 552 209 482 209 350 c 256
 209 218 283 148 421 148 c 258
 548 148 l 257
 572 139 l 257
 950 139 l 257
EndSplineSet
EndChar

StartChar: oe
Encoding: 339 339 309
Width: 900
VWidth: 0
Flags: HMW
LayerCount: 2
Fore
SplineSet
706 250 m 258
 706 324 676 369 617 369 c 256
 562 369 515 334 515 260 c 257
 513 230 l 257
 513 143 554 96 619 96 c 256
 674 96 705 121 732 159 c 257
 866 126 l 257
 826 50 741 -10 642 -10 c 256
 517 -10 430 91 430 230 c 256
 430 247 431 263 434 279 c 256
 453 392 539 470 658 470 c 256
 768 470 865 379 865 234 c 256
 865 226 864 206 863 198 c 257
 706 230 l 257
 706 250 l 258
481 198 m 257
 481 281 l 257
 844 281 l 257
 863 198 l 257
 481 198 l 257
35 230 m 256
 35 379 138 470 263 470 c 256
 388 470 466 379 466 230 c 256
 466 81 388 -10 263 -10 c 256
 138 -10 35 81 35 230 c 256
184 230 m 256
 184 155 232 115 292 115 c 256
 350 115 391 155 391 230 c 256
 391 305 350 345 292 345 c 256
 232 345 184 305 184 230 c 256
EndSplineSet
EndChar

StartChar: a.alt
Encoding: 65536 -1 310
Width: 616
VWidth: 0
Flags: HMW
LayerCount: 2
Fore
SplineSet
410 460 m 257
 559 460 l 257
 559 0 l 257
 410 0 l 257
 410 460 l 257
32 230 m 256
 32 385 138 470 251 470 c 256
 366 470 450 379 450 230 c 256
 450 81 366 -10 251 -10 c 256
 138 -10 32 75 32 230 c 256
190 230 m 256
 190 158 241 112 301 112 c 256
 352 112 408 155 408 230 c 256
 408 305 352 348 301 348 c 256
 241 348 190 302 190 230 c 256
EndSplineSet
EndChar

StartChar: Jcircumflex
Encoding: 308 308 312
Width: 329
VWidth: 0
Flags: HMW
LayerCount: 2
Fore
SplineSet
-72 -64 m 257
 -52 -82 -21 -97 9 -97 c 256
 39 -97 74 -76 74 -16 c 258
 74 700 l 257
 256 700 l 257
 256 -54 l 258
 256 -188 151 -239 26 -239 c 256
 -52 -239 -124 -208 -164 -182 c 257
 -72 -64 l 257
165 862 m 257
 73 776 l 257
 -33 847 l 257
 165 987 l 257
 362 847 l 257
 256 776 l 257
 165 862 l 257
EndSplineSet
EndChar

StartChar: jcircumflex
Encoding: 309 309 313
Width: 271
VWidth: 0
Flags: HMW
LayerCount: 2
Fore
SplineSet
-33 -77 m 257
 -20 -95 -5 -103 13 -103 c 256
 43 -103 61 -81 61 -34 c 258
 61 460 l 257
 206 460 l 257
 206 -72 l 258
 206 -175 148 -239 33 -239 c 256
 -35 -239 -73 -208 -94 -188 c 257
 -33 -77 l 257
134 616 m 257
 42 531 l 257
 -64 602 l 257
 134 742 l 257
 331 602 l 257
 225 531 l 257
 134 616 l 257
EndSplineSet
EndChar

StartChar: Nacute
Encoding: 323 323 314
Width: 793
VWidth: 0
Flags: HMW
LayerCount: 2
Fore
SplineSet
557 700 m 257
 720 700 l 257
 720 -35 l 257
 236 394 l 257
 236 0 l 257
 74 0 l 257
 74 735 l 257
 557 306 l 257
 557 700 l 257
548 911 m 257
 368 761 l 257
 282 804 l 257
 432 964 l 257
 548 911 l 257
EndSplineSet
EndChar

StartChar: nacute
Encoding: 324 324 315
Width: 574
VWidth: 0
Flags: HMW
LayerCount: 2
Fore
SplineSet
211 460 m 257
 211 0 l 257
 60 0 l 257
 60 460 l 257
 211 460 l 257
358 280 m 258
 358 334 341 365 291 365 c 256
 243 365 211 334 211 280 c 257
 185 274 l 257
 185 383 237 471 351 471 c 256
 465 471 515 409 515 296 c 258
 515 0 l 257
 358 0 l 257
 358 280 l 258
452 681 m 257
 272 531 l 257
 187 573 l 257
 337 733 l 257
 452 681 l 257
EndSplineSet
EndChar

StartChar: uni0145
Encoding: 325 325 316
Width: 793
VWidth: 0
Flags: HMW
LayerCount: 2
Fore
SplineSet
364 -54 m 257
 514 -86 l 257
 389 -336 l 257
 276 -313 l 257
 364 -54 l 257
557 700 m 257
 720 700 l 257
 720 -35 l 257
 236 394 l 257
 236 0 l 257
 74 0 l 257
 74 735 l 257
 557 306 l 257
 557 700 l 257
EndSplineSet
EndChar

StartChar: uni0146
Encoding: 326 326 317
Width: 574
VWidth: 0
Flags: HMW
LayerCount: 2
Fore
SplineSet
211 460 m 257
 211 0 l 257
 60 0 l 257
 60 460 l 257
 211 460 l 257
358 280 m 258
 358 334 341 365 291 365 c 256
 243 365 211 334 211 280 c 257
 181 274 l 257
 181 383 237 471 351 471 c 256
 465 471 515 409 515 296 c 258
 515 0 l 257
 358 0 l 257
 358 280 l 258
255 -60 m 257
 407 -92 l 257
 281 -342 l 257
 167 -319 l 257
 255 -60 l 257
EndSplineSet
EndChar

StartChar: Ncaron
Encoding: 327 327 318
Width: 793
VWidth: 0
Flags: HMW
LayerCount: 2
Fore
SplineSet
375 902 m 257
 467 987 l 257
 572 916 l 257
 375 776 l 257
 178 916 l 257
 284 987 l 257
 375 902 l 257
557 700 m 257
 720 700 l 257
 720 -35 l 257
 236 394 l 257
 236 0 l 257
 74 0 l 257
 74 735 l 257
 557 306 l 257
 557 700 l 257
EndSplineSet
EndChar

StartChar: ncaron
Encoding: 328 328 319
Width: 574
VWidth: 0
Flags: HMW
LayerCount: 2
Fore
SplineSet
211 460 m 257
 211 0 l 257
 60 0 l 257
 60 460 l 257
 211 460 l 257
358 280 m 258
 358 334 341 365 291 365 c 256
 243 365 211 334 211 280 c 257
 181 274 l 257
 181 383 237 471 351 471 c 256
 465 471 515 409 515 296 c 258
 515 0 l 257
 358 0 l 257
 358 280 l 258
287 656 m 257
 378 742 l 257
 484 671 l 257
 287 531 l 257
 90 671 l 257
 195 742 l 257
 287 656 l 257
EndSplineSet
EndChar

StartChar: Omacron
Encoding: 332 332 320
Width: 821
VWidth: 0
Flags: HMW
LayerCount: 2
Fore
SplineSet
212 350 m 256
 212 226 291 139 410 139 c 256
 529 139 609 226 609 350 c 256
 609 474 532 561 410 561 c 256
 291 561 212 474 212 350 c 256
34 350 m 256
 34 566 197 716 410 716 c 256
 626 716 787 566 787 350 c 256
 787 134 630 -22 410 -22 c 256
 190 -22 34 134 34 350 c 256
225 776 m 257
 225 907 l 257
 596 907 l 257
 596 776 l 257
 225 776 l 257
EndSplineSet
EndChar

StartChar: omacron
Encoding: 333 333 321
Width: 589
VWidth: 0
Flags: HMW
LayerCount: 2
Fore
SplineSet
32 230 m 256
 32 375 145 471 295 471 c 256
 445 471 558 375 558 230 c 256
 558 85 445 -10 295 -10 c 256
 145 -10 32 85 32 230 c 256
187 230 m 256
 187 159 236 115 295 115 c 256
 354 115 402 159 402 230 c 256
 402 301 354 346 295 346 c 256
 236 346 187 301 187 230 c 256
109 531 m 257
 109 661 l 257
 480 661 l 257
 480 531 l 257
 109 531 l 257
EndSplineSet
EndChar

StartChar: Obreve
Encoding: 334 334 322
Width: 821
VWidth: 0
Flags: HMW
LayerCount: 2
Fore
SplineSet
212 350 m 256
 212 226 291 139 410 139 c 256
 529 139 609 226 609 350 c 256
 609 474 532 561 410 561 c 256
 291 561 212 474 212 350 c 256
34 350 m 256
 34 566 197 716 410 716 c 256
 626 716 787 566 787 350 c 256
 787 134 630 -22 410 -22 c 256
 190 -22 34 134 34 350 c 256
246 922 m 257
 345 922 l 257
 345 887 371 863 410 863 c 256
 449 863 476 887 476 922 c 257
 575 922 l 257
 575 841 515 776 410 776 c 256
 305 776 246 841 246 922 c 257
EndSplineSet
EndChar

StartChar: obreve
Encoding: 335 335 323
Width: 589
VWidth: 0
Flags: HMW
LayerCount: 2
Fore
SplineSet
32 230 m 256
 32 375 145 471 295 471 c 256
 445 471 558 375 558 230 c 256
 558 85 445 -10 295 -10 c 256
 145 -10 32 85 32 230 c 256
187 230 m 256
 187 159 236 115 295 115 c 256
 354 115 402 159 402 230 c 256
 402 301 354 346 295 346 c 256
 236 346 187 301 187 230 c 256
130 677 m 257
 229 677 l 257
 229 642 256 617 295 617 c 256
 334 617 360 642 360 677 c 257
 459 677 l 257
 459 596 400 531 295 531 c 256
 190 531 130 596 130 677 c 257
EndSplineSet
EndChar

StartChar: Racute
Encoding: 340 340 324
Width: 646
VWidth: 0
Flags: HMW
LayerCount: 2
Fore
SplineSet
248 317 m 257
 424 317 l 257
 643 0 l 257
 445 0 l 257
 248 317 l 257
74 700 m 257
 242 700 l 257
 242 0 l 257
 74 0 l 257
 74 700 l 257
180 557 m 257
 180 700 l 257
 329 700 l 258
 507 700 601 606 601 471 c 256
 601 336 507 243 329 243 c 258
 180 243 l 257
 180 374 l 257
 316 374 l 258
 384 374 426 407 426 465 c 256
 426 523 384 557 316 557 c 258
 180 557 l 257
469 926 m 257
 289 776 l 257
 204 819 l 257
 354 979 l 257
 469 926 l 257
EndSplineSet
EndChar

StartChar: uni0156
Encoding: 342 342 325
Width: 646
VWidth: 0
Flags: HMW
LayerCount: 2
Fore
SplineSet
248 317 m 257
 424 317 l 257
 643 0 l 257
 445 0 l 257
 248 317 l 257
74 700 m 257
 242 700 l 257
 242 0 l 257
 74 0 l 257
 74 700 l 257
180 557 m 257
 180 700 l 257
 329 700 l 258
 507 700 601 606 601 471 c 256
 601 336 507 243 329 243 c 258
 180 243 l 257
 180 374 l 257
 316 374 l 258
 384 374 426 407 426 465 c 256
 426 523 384 557 316 557 c 258
 180 557 l 257
327 -60 m 257
 478 -92 l 257
 353 -342 l 257
 239 -319 l 257
 327 -60 l 257
EndSplineSet
EndChar

StartChar: uni0157
Encoding: 343 343 326
Width: 411
VWidth: 0
Flags: HMW
LayerCount: 2
Fore
SplineSet
208 460 m 257
 208 0 l 257
 60 0 l 257
 60 460 l 257
 208 460 l 257
340 304 m 257
 324 320 308 330 282 330 c 256
 237 330 208 293 208 227 c 257
 172 280 l 257
 172 389 246 471 323 471 c 256
 356 471 389 456 406 433 c 257
 340 304 l 257
102 -60 m 257
 253 -92 l 257
 128 -342 l 257
 14 -319 l 257
 102 -60 l 257
EndSplineSet
EndChar

StartChar: Scedilla
Encoding: 350 350 327
Width: 624
VWidth: 0
Flags: HMW
LayerCount: 2
Fore
SplineSet
153 251 m 257
 201 167 248 125 323 125 c 256
 378 125 408 148 408 193 c 256
 408 252 344 271 264 302 c 256
 195 329 74 378 74 518 c 256
 74 636 172 716 321 716 c 256
 471 716 545 637 576 562 c 257
 449 489 l 257
 419 541 378 573 324 573 c 256
 275 573 247 550 247 514 c 256
 247 466 325 443 408 413 c 256
 505 379 586 317 586 196 c 256
 586 53 479 -22 319 -22 c 256
 192 -22 78 53 34 168 c 257
 153 251 l 257
291 61 m 257
 401 57 l 257
 315 -64 l 257
 326 -61 338 -61 351 -61 c 256
 391 -61 442 -93 442 -159 c 256
 442 -231 375 -268 312 -268 c 256
 256 -268 215 -258 168 -228 c 257
 214 -160 l 257
 239 -178 272 -185 292 -185 c 256
 326 -185 346 -174 346 -150 c 256
 346 -124 317 -118 286 -118 c 256
 276 -118 238 -120 203 -134 c 257
 291 61 l 257
EndSplineSet
EndChar

StartChar: scedilla
Encoding: 351 351 328
Width: 451
VWidth: 0
Flags: HMW
LayerCount: 2
Fore
SplineSet
84 173 m 257
 147 128 203 98 237 98 c 256
 267 98 281 109 281 129 c 256
 281 157 235 173 183 192 c 256
 118 216 53 254 53 340 c 256
 53 412 126 470 223 470 c 256
 302 470 371 440 417 400 c 257
 362 307 l 257
 317 342 272 362 235 362 c 256
 202 362 190 350 190 334 c 256
 190 306 243 295 300 273 c 256
 365 248 427 218 427 130 c 256
 427 35 360 -19 250 -19 c 256
 154 -19 73 21 19 79 c 257
 84 173 l 257
215 71.9336 m 257
 325 67.9336 l 257
 238 -53.0664 l 257
 249 -50.0664 262 -50.0664 275 -50.0664 c 256
 315 -50.0664 366 -81.0664 366 -147.066 c 256
 366 -219.066 298 -256.066 235 -256.066 c 256
 179 -256.066 138 -247.066 91 -217.066 c 257
 137 -148.066 l 257
 162 -166.066 195 -174.066 215 -174.066 c 256
 249 -174.066 269 -163.066 269 -139.066 c 256
 269 -113.066 240 -106.066 209 -106.066 c 256
 199 -106.066 162 -109.066 127 -123.066 c 257
 215 71.9336 l 257
EndSplineSet
EndChar

StartChar: Zcaron
Encoding: 381 381 329
Width: 619
VWidth: 0
Flags: HMW
LayerCount: 2
Fore
SplineSet
57 549 m 257
 57 700 l 257
 606 700 l 257
 275 145 l 257
 570 145 l 257
 570 0 l 257
 9 0 l 257
 335 549 l 257
 57 549 l 257
331 902 m 257
 422 987 l 257
 528 916 l 257
 331 776 l 257
 134 916 l 257
 239 987 l 257
 331 902 l 257
EndSplineSet
EndChar

StartChar: zcaron
Encoding: 382 382 330
Width: 515
VWidth: 0
Flags: HMW
LayerCount: 2
Fore
SplineSet
282 656 m 257
 374 741 l 257
 479 670 l 257
 282 530 l 257
 85 670 l 257
 191 741 l 257
 282 656 l 257
258 323 m 257
 57 323 l 257
 57 460 l 257
 507 460 l 257
 276 137 l 257
 475 137 l 257
 475 0 l 257
 15 0 l 257
 258 323 l 257
EndSplineSet
EndChar

StartChar: Ydieresis
Encoding: 376 376 331
Width: 659
VWidth: 0
Flags: HMW
LayerCount: 2
Fore
SplineSet
102 868 m 256
 102 916 140 950 189 950 c 256
 238 950 278 916 278 868 c 256
 278 820 238 787 189 787 c 256
 140 787 102 820 102 868 c 256
382 868 m 256
 382 916 421 950 470 950 c 256
 519 950 558 916 558 868 c 256
 558 820 519 787 470 787 c 256
 421 787 382 820 382 868 c 256
467 700 m 257
 661 700 l 257
 416 285 l 257
 416 0 l 257
 244 0 l 257
 244 284 l 257
 -1 700 l 257
 193 700 l 257
 330 437 l 257
 467 700 l 257
EndSplineSet
EndChar

StartChar: Scaron
Encoding: 352 352 332
Width: 624
VWidth: 0
Flags: HMW
LayerCount: 2
Fore
SplineSet
153 251 m 257
 201 167 248 125 323 125 c 256
 378 125 408 148 408 193 c 256
 408 252 344 271 264 302 c 256
 195 329 74 384 74 520 c 256
 74 638 176 716 321 716 c 256
 471 716 548 633 576 562 c 257
 449 489 l 257
 419 541 382 573 328 573 c 256
 279 573 247 550 247 514 c 256
 247 466 325 443 408 413 c 256
 505 379 586 317 586 196 c 256
 586 53 483 -22 319 -22 c 256
 192 -22 78 53 34 168 c 257
 153 251 l 257
321 902 m 257
 412 987 l 257
 518 916 l 257
 321 776 l 257
 124 916 l 257
 229 987 l 257
 321 902 l 257
EndSplineSet
EndChar

StartChar: scaron
Encoding: 353 353 333
Width: 455
VWidth: 0
Flags: HMW
LayerCount: 2
Fore
SplineSet
83 175 m 257
 151 115 203 97 235 97 c 256
 262 97 281 105 281 128 c 256
 281 163 212 172 158 197 c 256
 97 225 42 257 42 337 c 256
 42 425 126 470 225 470 c 256
 304 470 373 441 422 402 c 257
 368 304 l 257
 332 339 272 360 235 360 c 256
 203 360 187 352 187 332 c 256
 187 305 247 290 305 268 c 256
 370 243 432 209 432 130 c 256
 432 25 366 -19 255 -19 c 256
 158 -19 76 19 19 75 c 257
 83 175 l 257
225 644 m 257
 316 729 l 257
 422 658 l 257
 225 518 l 257
 28 658 l 257
 133 729 l 257
 225 644 l 257
EndSplineSet
EndChar

StartChar: Lslash
Encoding: 321 321 334
Width: 533
VWidth: 0
Flags: HMW
LayerCount: 2
Fore
SplineSet
5 309 m 257
 -34 383 l 257
 329 627 l 257
 368 553 l 257
 5 309 l 257
74 700 m 257
 242 700 l 257
 242 145 l 257
 524 145 l 257
 524 0 l 257
 74 0 l 257
 74 700 l 257
EndSplineSet
EndChar

StartChar: lslash
Encoding: 322 322 335
Width: 270
VWidth: 0
Flags: HMW
LayerCount: 2
Fore
SplineSet
-7 309 m 257
 -46 383 l 257
 285 601 l 257
 323 527 l 257
 -7 309 l 257
60 780 m 257
 211 780 l 257
 211 0 l 257
 60 0 l 257
 60 780 l 257
EndSplineSet
EndChar

StartChar: uni0218
Encoding: 536 536 336
Width: 624
VWidth: 0
Flags: HMW
LayerCount: 2
Fore
SplineSet
153 251 m 257
 201 167 248 125 323 125 c 256
 378 125 408 148 408 193 c 256
 408 252 344 271 264 302 c 256
 195 329 74 384 74 520 c 256
 74 638 176 716 321 716 c 256
 471 716 548 633 576 562 c 257
 449 489 l 257
 419 541 382 573 328 573 c 256
 279 573 247 550 247 514 c 256
 247 466 325 443 408 413 c 256
 505 379 586 317 586 196 c 256
 586 53 483 -22 319 -22 c 256
 192 -22 78 53 34 168 c 257
 153 251 l 257
262 -70 m 257
 414 -102 l 257
 288 -352 l 257
 174 -329 l 257
 262 -70 l 257
EndSplineSet
EndChar

StartChar: uni0219
Encoding: 537 537 337
Width: 455
VWidth: 0
Flags: HMW
LayerCount: 2
Fore
SplineSet
83 175 m 257
 151 115 203 97 235 97 c 256
 262 97 281 105 281 128 c 256
 281 163 212 172 158 197 c 256
 97 225 42 257 42 337 c 256
 42 425 126 470 225 470 c 256
 304 470 373 441 422 402 c 257
 368 304 l 257
 332 339 272 360 235 360 c 256
 203 360 187 352 187 332 c 256
 187 305 247 290 305 268 c 256
 370 243 432 209 432 130 c 256
 432 25 366 -19 255 -19 c 256
 158 -19 76 19 19 75 c 257
 83 175 l 257
198 -67 m 257
 349 -99 l 257
 224 -349 l 257
 110 -326 l 257
 198 -67 l 257
EndSplineSet
EndChar

StartChar: pi
Encoding: 960 960 338
Width: 602
VWidth: 0
Flags: HMW
LayerCount: 2
Fore
SplineSet
90 430 m 257
 232 430 l 257
 232 0 l 257
 90 0 l 257
 90 430 l 257
30 460 m 257
 562 460 l 257
 562 335 l 257
 30 335 l 257
 30 460 l 257
340 430 m 257
 482 430 l 257
 482 178 l 258
 482 112 505 108 535 108 c 257
 535 -9 l 257
 408 -9 340 0 340 121 c 258
 340 430 l 257
EndSplineSet
EndChar

StartChar: trademark
Encoding: 8482 8482 339
Width: 745
VWidth: 0
Flags: HMW
LayerCount: 2
Fore
SplineSet
30 624 m 257
 30 700 l 257
 306 700 l 257
 306 624 l 257
 210 624 l 257
 210 350 l 257
 126 350 l 257
 126 624 l 257
 30 624 l 257
602 593 m 257
 663 718 l 257
 719 350 l 257
 631 350 l 257
 602 593 l 257
365 718 m 257
 426 593 l 257
 397 350 l 257
 308 350 l 257
 365 718 l 257
663 718 m 257
 663 603 l 257
 514 382 l 257
 365 603 l 257
 365 718 l 257
 514 504 l 257
 663 718 l 257
EndSplineSet
EndChar

StartChar: uni2219
Encoding: 8729 8729 340
Width: 322
VWidth: 0
Flags: HMW
LayerCount: 2
Fore
SplineSet
67 443 m 256
 67 493 106 535 161 535 c 256
 216 535 255 493 255 443 c 256
 255 393 216 351 161 351 c 256
 106 351 67 393 67 443 c 256
EndSplineSet
EndChar

StartChar: agrave.alt
Encoding: 65537 -1 341
Width: 616
VWidth: 0
Flags: HMW
LayerCount: 2
Fore
SplineSet
410 460 m 257
 559 460 l 257
 559 0 l 257
 410 0 l 257
 410 460 l 257
32 230 m 256
 32 385 138 470 251 470 c 256
 366 470 450 379 450 230 c 256
 450 81 366 -10 251 -10 c 256
 138 -10 32 75 32 230 c 256
190 230 m 256
 190 158 241 112 301 112 c 256
 352 112 408 155 408 230 c 256
 408 305 352 348 301 348 c 256
 241 348 190 302 190 230 c 256
132 681 m 257
 247 733 l 257
 397 573 l 257
 312 531 l 257
 132 681 l 257
EndSplineSet
EndChar

StartChar: aacute.alt
Encoding: 65538 -1 342
Width: 616
VWidth: 0
Flags: HMW
LayerCount: 2
Fore
SplineSet
410 460 m 257
 559 460 l 257
 559 0 l 257
 410 0 l 257
 410 460 l 257
32 230 m 256
 32 385 138 470 251 470 c 256
 366 470 450 379 450 230 c 256
 450 81 366 -10 251 -10 c 256
 138 -10 32 75 32 230 c 256
190 230 m 256
 190 158 241 112 301 112 c 256
 352 112 408 155 408 230 c 256
 408 305 352 348 301 348 c 256
 241 348 190 302 190 230 c 256
449 681 m 257
 269 531 l 257
 184 573 l 257
 334 733 l 257
 449 681 l 257
EndSplineSet
EndChar

StartChar: acircumflex.alt
Encoding: 65539 -1 343
Width: 616
VWidth: 0
Flags: HMW
LayerCount: 2
Fore
SplineSet
410 460 m 257
 559 460 l 257
 559 0 l 257
 410 0 l 257
 410 460 l 257
32 230 m 256
 32 385 138 470 251 470 c 256
 366 470 450 379 450 230 c 256
 450 81 366 -10 251 -10 c 256
 138 -10 32 75 32 230 c 256
190 230 m 256
 190 158 241 112 301 112 c 256
 352 112 408 155 408 230 c 256
 408 305 352 348 301 348 c 256
 241 348 190 302 190 230 c 256
314 616 m 257
 223 531 l 257
 117 602 l 257
 314 742 l 257
 511 602 l 257
 405 531 l 257
 314 616 l 257
EndSplineSet
EndChar

StartChar: atilde.alt
Encoding: 65540 -1 344
Width: 616
VWidth: 0
Flags: HMW
LayerCount: 2
Fore
SplineSet
410 460 m 257
 559 460 l 257
 559 0 l 257
 410 0 l 257
 410 460 l 257
32 230 m 256
 32 385 138 470 251 470 c 256
 366 470 450 379 450 230 c 256
 450 81 366 -10 251 -10 c 256
 138 -10 32 75 32 230 c 256
190 230 m 256
 190 158 241 112 301 112 c 256
 352 112 408 155 408 230 c 256
 408 305 352 348 301 348 c 256
 241 348 190 302 190 230 c 256
124 596 m 257
 134 645 180 691 244 691 c 256
 310 691 324 639 380 639 c 256
 405 639 425 660 445 692 c 257
 516 618 l 257
 500 581 444 532 382 532 c 256
 327 532 292 585 243 585 c 256
 205 585 196 549 196 534 c 257
 124 596 l 257
EndSplineSet
EndChar

StartChar: adieresis.alt
Encoding: 65541 -1 345
Width: 616
VWidth: 0
Flags: HMW
LayerCount: 2
Fore
SplineSet
410 460 m 257
 559 460 l 257
 559 0 l 257
 410 0 l 257
 410 460 l 257
32 230 m 256
 32 385 138 470 251 470 c 256
 366 470 450 379 450 230 c 256
 450 81 366 -10 251 -10 c 256
 138 -10 32 75 32 230 c 256
190 230 m 256
 190 158 241 112 301 112 c 256
 352 112 408 155 408 230 c 256
 408 305 352 348 301 348 c 256
 241 348 190 302 190 230 c 256
342 612 m 256
 342 660 381 694 430 694 c 256
 479 694 517 660 517 612 c 256
 517 564 479 531 430 531 c 256
 381 531 342 564 342 612 c 256
98 612 m 256
 98 660 137 694 186 694 c 256
 235 694 274 660 274 612 c 256
 274 564 235 531 186 531 c 256
 137 531 98 564 98 612 c 256
EndSplineSet
EndChar

StartChar: aring.alt
Encoding: 65542 -1 346
Width: 616
VWidth: 0
Flags: HMW
LayerCount: 2
Fore
SplineSet
410 460 m 257
 559 460 l 257
 559 0 l 257
 410 0 l 257
 410 460 l 257
32 230 m 256
 32 385 138 470 251 470 c 256
 366 470 450 379 450 230 c 256
 450 81 366 -10 251 -10 c 256
 138 -10 32 75 32 230 c 256
190 230 m 256
 190 158 241 112 301 112 c 256
 352 112 408 155 408 230 c 256
 408 305 352 348 301 348 c 256
 241 348 190 302 190 230 c 256
183 646 m 256
 183 715 238 762 307 762 c 256
 376 762 433 715 433 646 c 256
 433 577 376 531 307 531 c 256
 238 531 183 577 183 646 c 256
261 646 m 256
 261 616 282 599 307 599 c 256
 332 599 354 616 354 646 c 256
 354 676 332 694 307 694 c 256
 282 694 261 676 261 646 c 256
EndSplineSet
EndChar

StartChar: amacron.alt
Encoding: 65543 -1 347
Width: 616
VWidth: 0
Flags: HMW
LayerCount: 2
Fore
SplineSet
410 460 m 257
 559 460 l 257
 559 0 l 257
 410 0 l 257
 410 460 l 257
32 230 m 256
 32 385 138 470 251 470 c 256
 366 470 450 379 450 230 c 256
 450 81 366 -10 251 -10 c 256
 138 -10 32 75 32 230 c 256
190 230 m 256
 190 158 241 112 301 112 c 256
 352 112 408 155 408 230 c 256
 408 305 352 348 301 348 c 256
 241 348 190 302 190 230 c 256
124 531 m 257
 124 661 l 257
 496 661 l 257
 496 531 l 257
 124 531 l 257
EndSplineSet
EndChar

StartChar: abreve.alt
Encoding: 65544 -1 348
Width: 616
VWidth: 0
Flags: HMW
LayerCount: 2
Fore
SplineSet
410 460 m 257
 559 460 l 257
 559 0 l 257
 410 0 l 257
 410 460 l 257
32 230 m 256
 32 385 138 470 251 470 c 256
 366 470 450 379 450 230 c 256
 450 81 366 -10 251 -10 c 256
 138 -10 32 75 32 230 c 256
190 230 m 256
 190 158 241 112 301 112 c 256
 352 112 408 155 408 230 c 256
 408 305 352 348 301 348 c 256
 241 348 190 302 190 230 c 256
136 677 m 257
 235 677 l 257
 235 642 261 617 300 617 c 256
 339 617 366 642 366 677 c 257
 464 677 l 257
 464 596 405 531 300 531 c 256
 195 531 136 596 136 677 c 257
EndSplineSet
EndChar

StartChar: aogonek.alt
Encoding: 65545 -1 349
Width: 616
VWidth: 0
Flags: HMW
LayerCount: 2
Fore
SplineSet
410 460 m 257
 559 460 l 257
 559 0 l 257
 410 0 l 257
 410 460 l 257
32 230 m 256
 32 385 138 470 251 470 c 256
 366 470 450 379 450 230 c 256
 450 81 366 -10 251 -10 c 256
 138 -10 32 75 32 230 c 256
190 230 m 256
 190 158 241 112 301 112 c 256
 352 112 408 155 408 230 c 256
 408 305 352 348 301 348 c 256
 241 348 190 302 190 230 c 256
533 -111 m 257
 566 -180 l 257
 551 -200 521 -220 466 -220 c 256
 401 -220 349 -185 349 -120 c 256
 349 -55 417 -11 487 25 c 257
 528 0 l 257
 476 -28 447 -63 447 -94 c 256
 447 -119 459 -131 483 -131 c 256
 503 -131 519 -124 533 -111 c 257
EndSplineSet
EndChar

StartChar: dagger
Encoding: 8224 8224 350
Width: 632
VWidth: 0
Flags: HMW
LayerCount: 2
Fore
SplineSet
90 540 m 257
 542 540 l 257
 542 415 l 257
 90 415 l 257
 90 540 l 257
245 700 m 257
 387 700 l 257
 387 -150 l 257
 245 -150 l 257
 245 700 l 257
EndSplineSet
EndChar

StartChar: daggerdbl
Encoding: 8225 8225 351
Width: 632
VWidth: 0
Flags: HMW
LayerCount: 2
Fore
SplineSet
90 157 m 257
 542 157 l 257
 542 33 l 257
 90 33 l 257
 90 157 l 257
90 540 m 257
 542 540 l 257
 542 415 l 257
 90 415 l 257
 90 540 l 257
245 700 m 257
 387 700 l 257
 387 -150 l 257
 245 -150 l 257
 245 700 l 257
EndSplineSet
EndChar

StartChar: ellipsis
Encoding: 8230 8230 352
Width: 924
VWidth: 0
Flags: HMW
LayerCount: 2
Fore
SplineSet
67 68 m 256
 67 118 106 160 161 160 c 256
 216 160 255 118 255 68 c 256
 255 18 216 -24 161 -24 c 256
 106 -24 67 18 67 68 c 256
367 68 m 256
 367 118 406 160 461 160 c 256
 516 160 555 118 555 68 c 256
 555 18 516 -24 461 -24 c 256
 406 -24 367 18 367 68 c 256
667 68 m 256
 667 118 706 160 761 160 c 256
 816 160 855 118 855 68 c 256
 855 18 816 -24 761 -24 c 256
 706 -24 667 18 667 68 c 256
EndSplineSet
EndChar

StartChar: uniFF10
Encoding: 65296 65296 353
Width: 629
VWidth: 0
Flags: HMW
LayerCount: 2
Fore
SplineSet
186 350 m 256
 186 218 237 132 314 132 c 256
 391 132 443 218 443 350 c 256
 443 482 391 568 314 568 c 256
 237 568 186 482 186 350 c 256
23 350 m 256
 23 578 141 713 314 713 c 256
 493 713 605 578 605 350 c 256
 605 122 493 -13 314 -13 c 256
 141 -13 23 122 23 350 c 256
EndSplineSet
EndChar

StartChar: uniFF11
Encoding: 65297 65297 354
Width: 629
VWidth: 0
Flags: HMW
LayerCount: 2
Fore
SplineSet
109 498 m 257
 109 645 l 257
 445 713 l 257
 445 0 l 257
 282 0 l 257
 282 541 l 257
 109 498 l 257
EndSplineSet
EndChar

StartChar: uniFF12
Encoding: 65298 65298 355
Width: 629
VWidth: 0
Flags: HMW
LayerCount: 2
Fore
SplineSet
13 0 m 257
 325 323 l 258
 381 383 415 426 415 481 c 256
 415 526 386 569 322 569 c 256
 257 569 212 516 212 441 c 257
 47 441 l 257
 47 590 145 714 327 714 c 256
 500 714 589 598 589 488 c 256
 589 413 549 353 488 301 c 258
 325 154 l 257
 606 154 l 257
 606 0 l 257
 13 0 l 257
EndSplineSet
EndChar

StartChar: uniFF13
Encoding: 65299 65299 356
Width: 629
VWidth: 0
Flags: HMW
LayerCount: 2
Fore
SplineSet
273 339 m 257
 273 415 l 257
 351 415 402 459 402 509 c 256
 402 550 376 578 323 578 c 256
 270 578 231 544 231 495 c 257
 76 495 l 257
 76 619 174 713 323 713 c 256
 480 713 569 627 569 519 c 256
 569 398 439 339 273 339 c 257
316 -16 m 256
 147 -16 46 98 46 222 c 257
 213 222 l 257
 213 153 264 120 322 120 c 256
 380 120 422 147 422 207 c 256
 422 265 375 306 273 306 c 257
 273 392 l 257
 458 392 589 333 589 191 c 256
 589 69 488 -16 316 -16 c 256
EndSplineSet
EndChar

StartChar: uniFF14
Encoding: 65300 65300 357
Width: 629
VWidth: 0
Flags: HMW
LayerCount: 2
Fore
SplineSet
12 124 m 257
 150 246 l 257
 428 246 l 256
 445 268 l 256
 610 268 l 257
 610 124 l 257
 12 124 l 257
170 174 m 257
 12 124 l 257
 387 700 l 257
 512 700 l 257
 512 0 l 257
 337 0 l 257
 337 160 l 256
 356 172 l 256
 356 455 l 257
 170 174 l 257
EndSplineSet
EndChar

StartChar: uniFF15
Encoding: 65301 65301 358
Width: 629
VWidth: 0
Flags: HMW
LayerCount: 2
Fore
SplineSet
590 224 m 256
 590 59 443 -13 308 -13 c 256
 179 -13 93 29 28 78 c 257
 94 217 l 257
 150 169 219 141 271 141 c 256
 355 141 406 174 406 242 c 256
 406 310 339 340 271 340 c 256
 216 340 145 332 74 296 c 257
 191 381 l 257
 243 437 307 453 378 453 c 256
 489 453 590 369 590 224 c 256
295 554 m 257
 237 380 l 257
 74 296 l 257
 171 700 l 257
 576 700 l 257
 576 554 l 257
 295 554 l 257
EndSplineSet
EndChar

StartChar: uniFF16
Encoding: 65302 65302 359
Width: 629
VWidth: 0
Flags: HMW
LayerCount: 2
Fore
SplineSet
196 246 m 256
 196 175 247 128 314 128 c 256
 381 128 432 175 432 246 c 256
 432 317 381 365 314 365 c 256
 247 365 196 317 196 246 c 256
313 697 m 257
 526 697 l 257
 300 444 l 257
 265 429 l 257
 303 465 332 473 382 473 c 256
 487 473 599 387 599 246 c 256
 599 74 471 -16 314 -16 c 256
 157 -16 30 74 30 246 c 256
 30 322 65 384 111 440 c 258
 313 697 l 257
EndSplineSet
EndChar

StartChar: uniFF17
Encoding: 65303 65303 360
Width: 629
VWidth: 0
Flags: HMW
LayerCount: 2
Fore
SplineSet
39 542 m 257
 39 700 l 257
 609 700 l 257
 271 0 l 257
 89 0 l 257
 362 542 l 257
 39 542 l 257
EndSplineSet
EndChar

StartChar: uniFF18
Encoding: 65304 65304 361
Width: 629
VWidth: 0
Flags: HMW
LayerCount: 2
Fore
SplineSet
91 531 m 256
 91 649 198 716 327 716 c 256
 456 716 564 649 564 531 c 256
 564 403 442 343 327 343 c 256
 212 343 91 403 91 531 c 256
249 515 m 256
 249 468 283 435 327 435 c 256
 371 435 405 468 405 515 c 256
 405 562 373 595 327 595 c 256
 281 595 249 562 249 515 c 256
66 190 m 256
 66 338 212 396 327 396 c 256
 442 396 589 338 589 190 c 256
 589 62 464 -16 327 -16 c 256
 190 -16 66 62 66 190 c 256
234 216 m 256
 234 155 276 121 327 121 c 256
 378 121 421 155 421 216 c 256
 421 267 378 307 327 307 c 256
 276 307 234 267 234 216 c 256
EndSplineSet
EndChar

StartChar: uniFF19
Encoding: 65305 65305 362
Width: 629
VWidth: 0
Flags: HMW
LayerCount: 2
Fore
SplineSet
432 454 m 256
 432 525 381 572 314 572 c 256
 247 572 196 525 196 454 c 256
 196 383 247 335 314 335 c 256
 381 335 432 383 432 454 c 256
316 3 m 257
 102 3 l 257
 328 256 l 257
 363 271 l 257
 325 235 296 227 246 227 c 256
 141 227 30 313 30 454 c 256
 30 626 157 716 314 716 c 256
 471 716 599 626 599 454 c 256
 599 378 563 316 517 260 c 258
 316 3 l 257
EndSplineSet
EndChar

StartChar: caron
Encoding: 711 711 363
Width: 480
VWidth: 0
Flags: HMW
LayerCount: 2
Fore
SplineSet
240 676 m 257
 331 762 l 257
 437 691 l 257
 240 551 l 257
 43 691 l 257
 149 762 l 257
 240 676 l 257
EndSplineSet
EndChar

StartChar: napostrophe
Encoding: 329 329 364
Width: 746
VWidth: 0
Flags: HMW
LayerCount: 2
Fore
SplineSet
383 460 m 257
 383 0 l 257
 232 0 l 257
 232 460 l 257
 383 460 l 257
530 280 m 258
 530 334 513 365 463 365 c 256
 415 365 383 334 383 280 c 257
 353 274 l 257
 353 383 409 471 523 471 c 256
 637 471 687 409 687 296 c 258
 687 0 l 257
 530 0 l 257
 530 280 l 258
111 700 m 257
 268 700 l 257
 165 445 l 257
 58 445 l 257
 111 700 l 257
EndSplineSet
EndChar

StartChar: IJ
Encoding: 306 306 365
Width: 623
VWidth: 0
Flags: HMW
LayerCount: 2
Fore
SplineSet
221 -64 m 257
 241 -82 272 -97 302 -97 c 256
 332 -97 367 -76 367 -16 c 258
 367 700 l 257
 550 700 l 257
 550 -54 l 258
 550 -188 444 -239 319 -239 c 256
 241 -239 170 -208 130 -182 c 257
 221 -64 l 257
74 700 m 257
 246 700 l 257
 246 0 l 257
 74 0 l 257
 74 700 l 257
EndSplineSet
EndChar

StartChar: ij
Encoding: 307 307 366
Width: 544
VWidth: 0
Flags: HMW
LayerCount: 2
Fore
SplineSet
319 633 m 256
 319 681 358 714 407 714 c 256
 456 714 495 681 495 633 c 256
 495 585 456 551 407 551 c 256
 358 551 319 585 319 633 c 256
239 -77 m 257
 252 -95 268 -103 286 -103 c 256
 316 -103 334 -81 334 -34 c 258
 334 460 l 257
 479 460 l 257
 479 -72 l 258
 479 -175 421 -239 306 -239 c 256
 238 -239 200 -208 179 -188 c 257
 239 -77 l 257
50 633 m 256
 50 681 89 714 138 714 c 256
 187 714 226 681 226 633 c 256
 226 585 187 551 138 551 c 256
 89 551 50 585 50 633 c 256
65 460 m 257
 211 460 l 257
 211 0 l 257
 65 0 l 257
 65 460 l 257
EndSplineSet
EndChar

StartChar: uni0237
Encoding: 567 567 367
Width: 271
VWidth: 0
Flags: HMW
LayerCount: 2
Fore
SplineSet
-33 -77 m 257
 -20 -95 -5 -103 13 -103 c 256
 43 -103 61 -81 61 -34 c 258
 61 460 l 257
 206 460 l 257
 206 -72 l 258
 206 -175 148 -239 33 -239 c 256
 -35 -239 -73 -208 -94 -188 c 257
 -33 -77 l 257
EndSplineSet
EndChar

StartChar: Sacute
Encoding: 346 346 368
Width: 624
VWidth: 0
Flags: HMW
LayerCount: 2
Fore
SplineSet
153 251 m 257
 201 167 248 125 323 125 c 256
 378 125 408 148 408 193 c 256
 408 252 344 271 264 302 c 256
 195 329 74 384 74 520 c 256
 74 638 176 716 321 716 c 256
 471 716 548 633 576 562 c 257
 449 489 l 257
 419 541 382 573 328 573 c 256
 279 573 247 550 247 514 c 256
 247 466 325 443 408 413 c 256
 505 379 586 317 586 196 c 256
 586 53 483 -22 319 -22 c 256
 192 -22 78 53 34 168 c 257
 153 251 l 257
501 926 m 257
 321 776 l 257
 235 819 l 257
 385 979 l 257
 501 926 l 257
EndSplineSet
EndChar

StartChar: sacute
Encoding: 347 347 369
Width: 455
VWidth: 0
Flags: HMW
LayerCount: 2
Fore
SplineSet
83 175 m 257
 151 115 203 97 235 97 c 256
 262 97 281 105 281 128 c 256
 281 163 212 172 158 197 c 256
 97 225 42 257 42 337 c 256
 42 425 126 470 225 470 c 256
 304 470 373 441 422 402 c 257
 368 304 l 257
 332 339 272 360 235 360 c 256
 203 360 187 352 187 332 c 256
 187 305 247 290 305 268 c 256
 370 243 432 209 432 130 c 256
 432 25 366 -19 255 -19 c 256
 158 -19 76 19 19 75 c 257
 83 175 l 257
405 681 m 257
 225 531 l 257
 139 573 l 257
 289 733 l 257
 405 681 l 257
EndSplineSet
EndChar

StartChar: Scircumflex
Encoding: 348 348 370
Width: 624
VWidth: 0
Flags: HMW
LayerCount: 2
Fore
SplineSet
153 251 m 257
 201 167 248 125 323 125 c 256
 378 125 408 148 408 193 c 256
 408 252 344 271 264 302 c 256
 195 329 74 384 74 520 c 256
 74 638 176 716 321 716 c 256
 471 716 548 633 576 562 c 257
 449 489 l 257
 419 541 382 573 328 573 c 256
 279 573 247 550 247 514 c 256
 247 466 325 443 408 413 c 256
 505 379 586 317 586 196 c 256
 586 53 483 -22 319 -22 c 256
 192 -22 78 53 34 168 c 257
 153 251 l 257
321 862 m 257
 229 776 l 257
 124 847 l 257
 321 987 l 257
 518 847 l 257
 412 776 l 257
 321 862 l 257
EndSplineSet
EndChar

StartChar: scircumflex
Encoding: 349 349 371
Width: 455
VWidth: 0
Flags: HMW
LayerCount: 2
Fore
SplineSet
83 175 m 257
 151 115 203 97 235 97 c 256
 262 97 281 105 281 128 c 256
 281 163 212 172 158 197 c 256
 97 225 42 257 42 337 c 256
 42 425 126 470 225 470 c 256
 304 470 373 441 422 402 c 257
 368 304 l 257
 332 339 272 360 235 360 c 256
 203 360 187 352 187 332 c 256
 187 305 247 290 305 268 c 256
 370 243 432 209 432 130 c 256
 432 25 366 -19 255 -19 c 256
 158 -19 76 19 19 75 c 257
 83 175 l 257
237 616 m 257
 146 531 l 257
 40 602 l 257
 237 742 l 257
 434 602 l 257
 328 531 l 257
 237 616 l 257
EndSplineSet
EndChar

StartChar: uni1E9E
Encoding: 7838 7838 372
Width: 889
VWidth: 0
Flags: HMW
LayerCount: 2
Fore
SplineSet
558 -16 m 256
 373 -16 301 113 301 222 c 257
 449 222 l 257
 449 162 492 120 558 120 c 256
 626 120 658 150 658 207 c 256
 658 274 600 306 510 306 c 257
 510 380 l 257
 688 380 826 324 826 185 c 256
 826 66 714 -16 558 -16 c 256
510 345 m 257
 510 416 l 257
 588 416 632 448 632 502 c 256
 632 549 585 580 485 580 c 256
 360 580 249 511 249 336 c 258
 249 0 l 257
 80 0 l 257
 80 361 l 258
 80 578 241 710 478 710 c 256
 686 710 806 636 806 522 c 256
 806 413 688 345 510 345 c 257
EndSplineSet
EndChar

StartChar: Zacute
Encoding: 377 377 373
Width: 619
VWidth: 0
Flags: HW
LayerCount: 2
Fore
SplineSet
57 549 m 257
 57 700 l 257
 606 700 l 257
 275 145 l 257
 570 145 l 257
 570 0 l 257
 9 0 l 257
 335 549 l 257
 57 549 l 257
503 926 m 257
 323 776 l 257
 238 819 l 257
 388 979 l 257
 503 926 l 257
EndSplineSet
EndChar

StartChar: zacute
Encoding: 378 378 374
Width: 522
VWidth: 0
Flags: HW
LayerCount: 2
Fore
SplineSet
257 323 m 257
 57 323 l 257
 57 460 l 257
 507 460 l 257
 277 137 l 257
 475 137 l 257
 475 0 l 257
 15 0 l 257
 257 323 l 257
455 688 m 257
 275 538 l 257
 189 581 l 257
 339 741 l 257
 455 688 l 257
EndSplineSet
EndChar

StartChar: Zdotaccent
Encoding: 379 379 375
Width: 619
VWidth: 0
Flags: HW
LayerCount: 2
Fore
SplineSet
57 549 m 257
 57 700 l 257
 606 700 l 257
 275 145 l 257
 570 145 l 257
 570 0 l 257
 9 0 l 257
 335 549 l 257
 57 549 l 257
243 858 m 256
 243 906 282 940 331 940 c 256
 380 940 419 906 419 858 c 256
 419 810 380 776 331 776 c 256
 282 776 243 810 243 858 c 256
EndSplineSet
EndChar

StartChar: zdotaccent
Encoding: 380 380 376
Width: 522
VWidth: 0
Flags: HW
LayerCount: 2
Fore
SplineSet
257 323 m 257
 57 323 l 257
 57 460 l 257
 507 460 l 257
 277 137 l 257
 475 137 l 257
 475 0 l 257
 15 0 l 257
 257 323 l 257
194 624 m 256
 194 672 233 705 282 705 c 256
 331 705 370 672 370 624 c 256
 370 576 331 542 282 542 c 256
 233 542 194 576 194 624 c 256
EndSplineSet
EndChar

StartChar: Tcaron
Encoding: 356 356 377
Width: 561
VWidth: 0
Flags: HW
LayerCount: 2
Fore
SplineSet
4 548 m 257
 4 700 l 257
 558 700 l 257
 558 548 l 257
 366 548 l 257
 366 0 l 257
 196 0 l 257
 196 548 l 257
 4 548 l 257
281 901 m 257
 372 987 l 257
 478 916 l 257
 281 776 l 257
 84 916 l 257
 190 987 l 257
 281 901 l 257
EndSplineSet
EndChar

StartChar: tcaron
Encoding: 357 357 378
Width: 498
VWidth: 0
Flags: HW
LayerCount: 2
Fore
SplineSet
5 460 m 257
 313 460 l 257
 313 335 l 257
 5 335 l 257
 5 460 l 257
86 620 m 257
 232 620 l 257
 232 0 l 257
 86 0 l 257
 86 620 l 257
377 792 m 257
 529 760 l 257
 403 510 l 257
 289 533 l 257
 377 792 l 257
EndSplineSet
EndChar

StartChar: Uring
Encoding: 366 366 379
Width: 701
VWidth: 0
Flags: HW
LayerCount: 2
Fore
SplineSet
68 700 m 257
 238 700 l 257
 238 242 l 258
 238 171 275 123 350 123 c 256
 425 123 463 171 463 242 c 258
 463 700 l 257
 632 700 l 257
 632 230 l 258
 632 54 508 -29 350 -29 c 256
 192 -29 68 54 68 230 c 258
 68 700 l 257
225 892 m 256
 225 961 280 1007 349 1007 c 256
 418 1007 475 961 475 892 c 256
 475 823 418 776 349 776 c 256
 280 776 225 823 225 892 c 256
303 892 m 256
 303 862 324 844 349 844 c 256
 374 844 396 862 396 892 c 256
 396 922 374 940 349 940 c 256
 324 940 303 922 303 892 c 256
EndSplineSet
EndChar

StartChar: uring
Encoding: 367 367 380
Width: 575
VWidth: 0
Flags: HW
LayerCount: 2
Fore
SplineSet
364 0 m 257
 364 460 l 257
 516 460 l 257
 516 0 l 257
 364 0 l 257
218 180 m 258
 218 126 234 96 284 96 c 256
 332 96 364 126 364 180 c 257
 390 186 l 257
 390 77 338 -10 224 -10 c 256
 110 -10 60 52 60 164 c 258
 60 460 l 257
 218 460 l 257
 218 180 l 258
163 646 m 256
 163 715 218 761 287 761 c 256
 356 761 413 715 413 646 c 256
 413 577 356 530 287 530 c 256
 218 530 163 577 163 646 c 256
241 646 m 256
 241 616 262 598 287 598 c 256
 312 598 334 616 334 646 c 256
 334 676 312 694 287 694 c 256
 262 694 241 676 241 646 c 256
EndSplineSet
EndChar
